%
M48
M72
T01C0.0197
T02C0.0236
T03C0.0276
T04C0.0320
T05C0.0394
T06C0.0400
T07C0.0433
T08C0.0472
T09C0.0748
T10C0.1260
%
T01
X8369Y4240
X9275Y4437
X12543Y5421
X12543Y6406
X20338Y3295
X7385Y12154
X6558Y12154
X9354Y14240
X9235Y15697
X6204Y17587
X5298Y18138
X9511Y18177
X12818Y12862
X18133Y17823
X20456Y15500
X21243Y15539
X19944Y15028
X21676Y17823
X22739Y17862
X24708Y17783
X25731Y16130
T02
X13881Y3886
X13842Y2980
T03
X20694Y5130
X20705Y6130
X20694Y7130
X25494Y7130
X25494Y6130
X25494Y5130
X25494Y11862
X25494Y12862
X25494Y13862
X20694Y13862
X20705Y12862
X20694Y11862
T04
X15169Y14043
X14169Y14043
X14554Y15575
X14554Y16575
X14554Y17575
X14554Y18575
X11554Y18575
X11554Y17575
X11554Y16575
X11554Y15575
X11444Y10851
X10444Y10851
X9444Y10851
X8444Y10851
X8444Y7551
X9444Y7551
X10444Y7551
X11444Y7551
X14011Y7350
X15011Y7350
X15208Y9083
X14208Y9083
X13932Y10815
X14932Y10815
X12846Y3413
X11846Y3413
T05
X15700Y1500
X16700Y1500
X17700Y1500
X18700Y1500
X19700Y1500
X20700Y1500
X22700Y1500
X23700Y1500
X24700Y1500
X25700Y1500
X26700Y1500
X27700Y1500
X29196Y6130
X29196Y11839
X27700Y20500
X26700Y20500
X25700Y20500
X24700Y20500
X23700Y20500
X22700Y20500
X21700Y20500
X20700Y20500
X19100Y20500
X18100Y20500
X17100Y20500
X16100Y20500
X15100Y20500
X14100Y20500
X13100Y20500
X12100Y20500
T06
X16857Y15122
X17857Y15122
X18857Y15122
X18857Y12925
X17857Y12925
X16857Y12925
X16857Y11146
X17857Y11146
X18857Y11146
X18857Y8469
X17857Y8469
X16857Y8469
X16857Y6311
X17857Y6311
X18857Y6311
X18857Y4571
X17857Y4571
X16857Y4571
T07
X26480Y6130
X27267Y6858
X27267Y5402
X27267Y11110
X26480Y11839
X27267Y12567
T08
X28251Y11839
X28251Y6130
T09
X23094Y9025
X23094Y9967
X23094Y15757
X23094Y3235
T10
X8200Y1500
X28700Y14500
X8700Y20500
M30
