G75*
%MOIN*%
%OFA0B0*%
%FSLAX24Y24*%
%IPPOS*%
%LPD*%
%AMOC8*
5,1,8,0,0,1.08239X$1,22.5*
%
%ADD10OC8,0.0630*%
%ADD11OC8,0.0680*%
%ADD12OC8,0.0600*%
%ADD13OC8,0.0512*%
%ADD14C,0.0000*%
%ADD15OC8,0.0660*%
%ADD16OC8,0.0520*%
%ADD17OC8,0.0760*%
%ADD18R,0.0591X0.0512*%
%ADD19C,0.0320*%
%ADD20C,0.0317*%
%ADD21C,0.0120*%
%ADD22C,0.0160*%
%ADD23C,0.0356*%
%ADD24C,0.0240*%
D10*
X011846Y003413D03*
X012846Y003413D03*
X014011Y007350D03*
X015011Y007350D03*
X015208Y009083D03*
X014208Y009083D03*
X013932Y010815D03*
X014932Y010815D03*
X015169Y014043D03*
X014169Y014043D03*
D11*
X011444Y010851D03*
X010444Y010851D03*
X009444Y010851D03*
X008444Y010851D03*
X008444Y007551D03*
X009444Y007551D03*
X010444Y007551D03*
X011444Y007551D03*
D12*
X016857Y008469D03*
X017857Y008469D03*
X018857Y008469D03*
X018857Y006311D03*
X017857Y006311D03*
X016857Y006311D03*
X016857Y004571D03*
X017857Y004571D03*
X018857Y004571D03*
X018857Y011146D03*
X017857Y011146D03*
X016857Y011146D03*
X016857Y012925D03*
X017857Y012925D03*
X018857Y012925D03*
X018857Y015122D03*
X017857Y015122D03*
X016857Y015122D03*
D13*
X020694Y013862D03*
X020705Y012862D03*
X020694Y011862D03*
X025494Y011862D03*
X025494Y012862D03*
X025494Y013862D03*
X025494Y007130D03*
X025494Y006130D03*
X025494Y005130D03*
X020694Y005130D03*
X020705Y006130D03*
X020694Y007130D03*
D14*
X002700Y000500D02*
X002700Y021500D01*
X028100Y021500D01*
X028700Y020900D01*
X028700Y016400D01*
X029700Y015400D01*
X029700Y002500D01*
X028700Y001500D01*
X028700Y000500D01*
X002700Y000500D01*
X007570Y001500D02*
X007572Y001550D01*
X007578Y001600D01*
X007588Y001649D01*
X007602Y001697D01*
X007619Y001744D01*
X007640Y001789D01*
X007665Y001833D01*
X007693Y001874D01*
X007725Y001913D01*
X007759Y001950D01*
X007796Y001984D01*
X007836Y002014D01*
X007878Y002041D01*
X007922Y002065D01*
X007968Y002086D01*
X008015Y002102D01*
X008063Y002115D01*
X008113Y002124D01*
X008162Y002129D01*
X008213Y002130D01*
X008263Y002127D01*
X008312Y002120D01*
X008361Y002109D01*
X008409Y002094D01*
X008455Y002076D01*
X008500Y002054D01*
X008543Y002028D01*
X008584Y001999D01*
X008623Y001967D01*
X008659Y001932D01*
X008691Y001894D01*
X008721Y001854D01*
X008748Y001811D01*
X008771Y001767D01*
X008790Y001721D01*
X008806Y001673D01*
X008818Y001624D01*
X008826Y001575D01*
X008830Y001525D01*
X008830Y001475D01*
X008826Y001425D01*
X008818Y001376D01*
X008806Y001327D01*
X008790Y001279D01*
X008771Y001233D01*
X008748Y001189D01*
X008721Y001146D01*
X008691Y001106D01*
X008659Y001068D01*
X008623Y001033D01*
X008584Y001001D01*
X008543Y000972D01*
X008500Y000946D01*
X008455Y000924D01*
X008409Y000906D01*
X008361Y000891D01*
X008312Y000880D01*
X008263Y000873D01*
X008213Y000870D01*
X008162Y000871D01*
X008113Y000876D01*
X008063Y000885D01*
X008015Y000898D01*
X007968Y000914D01*
X007922Y000935D01*
X007878Y000959D01*
X007836Y000986D01*
X007796Y001016D01*
X007759Y001050D01*
X007725Y001087D01*
X007693Y001126D01*
X007665Y001167D01*
X007640Y001211D01*
X007619Y001256D01*
X007602Y001303D01*
X007588Y001351D01*
X007578Y001400D01*
X007572Y001450D01*
X007570Y001500D01*
X022720Y003235D02*
X022722Y003273D01*
X022728Y003312D01*
X022738Y003349D01*
X022751Y003385D01*
X022769Y003419D01*
X022789Y003452D01*
X022813Y003482D01*
X022840Y003509D01*
X022870Y003534D01*
X022901Y003556D01*
X022935Y003574D01*
X022971Y003588D01*
X023008Y003599D01*
X023046Y003606D01*
X023084Y003609D01*
X023123Y003608D01*
X023161Y003603D01*
X023199Y003594D01*
X023235Y003581D01*
X023270Y003565D01*
X023303Y003545D01*
X023334Y003522D01*
X023362Y003496D01*
X023387Y003467D01*
X023410Y003436D01*
X023429Y003402D01*
X023444Y003367D01*
X023456Y003330D01*
X023464Y003293D01*
X023468Y003254D01*
X023468Y003216D01*
X023464Y003177D01*
X023456Y003140D01*
X023444Y003103D01*
X023429Y003068D01*
X023410Y003034D01*
X023387Y003003D01*
X023362Y002974D01*
X023334Y002948D01*
X023303Y002925D01*
X023270Y002905D01*
X023235Y002889D01*
X023199Y002876D01*
X023161Y002867D01*
X023123Y002862D01*
X023084Y002861D01*
X023046Y002864D01*
X023008Y002871D01*
X022971Y002882D01*
X022935Y002896D01*
X022901Y002914D01*
X022870Y002936D01*
X022840Y002961D01*
X022813Y002988D01*
X022789Y003018D01*
X022769Y003051D01*
X022751Y003085D01*
X022738Y003121D01*
X022728Y003158D01*
X022722Y003197D01*
X022720Y003235D01*
X028015Y006130D02*
X028017Y006160D01*
X028023Y006190D01*
X028032Y006219D01*
X028045Y006246D01*
X028062Y006271D01*
X028081Y006294D01*
X028104Y006315D01*
X028129Y006332D01*
X028155Y006346D01*
X028184Y006356D01*
X028213Y006363D01*
X028243Y006366D01*
X028274Y006365D01*
X028304Y006360D01*
X028333Y006351D01*
X028360Y006339D01*
X028386Y006324D01*
X028410Y006305D01*
X028431Y006283D01*
X028449Y006259D01*
X028464Y006232D01*
X028475Y006204D01*
X028483Y006175D01*
X028487Y006145D01*
X028487Y006115D01*
X028483Y006085D01*
X028475Y006056D01*
X028464Y006028D01*
X028449Y006001D01*
X028431Y005977D01*
X028410Y005955D01*
X028386Y005936D01*
X028360Y005921D01*
X028333Y005909D01*
X028304Y005900D01*
X028274Y005895D01*
X028243Y005894D01*
X028213Y005897D01*
X028184Y005904D01*
X028155Y005914D01*
X028129Y005928D01*
X028104Y005945D01*
X028081Y005966D01*
X028062Y005989D01*
X028045Y006014D01*
X028032Y006041D01*
X028023Y006070D01*
X028017Y006100D01*
X028015Y006130D01*
X022720Y009025D02*
X022722Y009063D01*
X022728Y009102D01*
X022738Y009139D01*
X022751Y009175D01*
X022769Y009209D01*
X022789Y009242D01*
X022813Y009272D01*
X022840Y009299D01*
X022870Y009324D01*
X022901Y009346D01*
X022935Y009364D01*
X022971Y009378D01*
X023008Y009389D01*
X023046Y009396D01*
X023084Y009399D01*
X023123Y009398D01*
X023161Y009393D01*
X023199Y009384D01*
X023235Y009371D01*
X023270Y009355D01*
X023303Y009335D01*
X023334Y009312D01*
X023362Y009286D01*
X023387Y009257D01*
X023410Y009226D01*
X023429Y009192D01*
X023444Y009157D01*
X023456Y009120D01*
X023464Y009083D01*
X023468Y009044D01*
X023468Y009006D01*
X023464Y008967D01*
X023456Y008930D01*
X023444Y008893D01*
X023429Y008858D01*
X023410Y008824D01*
X023387Y008793D01*
X023362Y008764D01*
X023334Y008738D01*
X023303Y008715D01*
X023270Y008695D01*
X023235Y008679D01*
X023199Y008666D01*
X023161Y008657D01*
X023123Y008652D01*
X023084Y008651D01*
X023046Y008654D01*
X023008Y008661D01*
X022971Y008672D01*
X022935Y008686D01*
X022901Y008704D01*
X022870Y008726D01*
X022840Y008751D01*
X022813Y008778D01*
X022789Y008808D01*
X022769Y008841D01*
X022751Y008875D01*
X022738Y008911D01*
X022728Y008948D01*
X022722Y008987D01*
X022720Y009025D01*
X022720Y009967D02*
X022722Y010005D01*
X022728Y010044D01*
X022738Y010081D01*
X022751Y010117D01*
X022769Y010151D01*
X022789Y010184D01*
X022813Y010214D01*
X022840Y010241D01*
X022870Y010266D01*
X022901Y010288D01*
X022935Y010306D01*
X022971Y010320D01*
X023008Y010331D01*
X023046Y010338D01*
X023084Y010341D01*
X023123Y010340D01*
X023161Y010335D01*
X023199Y010326D01*
X023235Y010313D01*
X023270Y010297D01*
X023303Y010277D01*
X023334Y010254D01*
X023362Y010228D01*
X023387Y010199D01*
X023410Y010168D01*
X023429Y010134D01*
X023444Y010099D01*
X023456Y010062D01*
X023464Y010025D01*
X023468Y009986D01*
X023468Y009948D01*
X023464Y009909D01*
X023456Y009872D01*
X023444Y009835D01*
X023429Y009800D01*
X023410Y009766D01*
X023387Y009735D01*
X023362Y009706D01*
X023334Y009680D01*
X023303Y009657D01*
X023270Y009637D01*
X023235Y009621D01*
X023199Y009608D01*
X023161Y009599D01*
X023123Y009594D01*
X023084Y009593D01*
X023046Y009596D01*
X023008Y009603D01*
X022971Y009614D01*
X022935Y009628D01*
X022901Y009646D01*
X022870Y009668D01*
X022840Y009693D01*
X022813Y009720D01*
X022789Y009750D01*
X022769Y009783D01*
X022751Y009817D01*
X022738Y009853D01*
X022728Y009890D01*
X022722Y009929D01*
X022720Y009967D01*
X028015Y011839D02*
X028017Y011869D01*
X028023Y011899D01*
X028032Y011928D01*
X028045Y011955D01*
X028062Y011980D01*
X028081Y012003D01*
X028104Y012024D01*
X028129Y012041D01*
X028155Y012055D01*
X028184Y012065D01*
X028213Y012072D01*
X028243Y012075D01*
X028274Y012074D01*
X028304Y012069D01*
X028333Y012060D01*
X028360Y012048D01*
X028386Y012033D01*
X028410Y012014D01*
X028431Y011992D01*
X028449Y011968D01*
X028464Y011941D01*
X028475Y011913D01*
X028483Y011884D01*
X028487Y011854D01*
X028487Y011824D01*
X028483Y011794D01*
X028475Y011765D01*
X028464Y011737D01*
X028449Y011710D01*
X028431Y011686D01*
X028410Y011664D01*
X028386Y011645D01*
X028360Y011630D01*
X028333Y011618D01*
X028304Y011609D01*
X028274Y011604D01*
X028243Y011603D01*
X028213Y011606D01*
X028184Y011613D01*
X028155Y011623D01*
X028129Y011637D01*
X028104Y011654D01*
X028081Y011675D01*
X028062Y011698D01*
X028045Y011723D01*
X028032Y011750D01*
X028023Y011779D01*
X028017Y011809D01*
X028015Y011839D01*
X028070Y014500D02*
X028072Y014550D01*
X028078Y014600D01*
X028088Y014649D01*
X028102Y014697D01*
X028119Y014744D01*
X028140Y014789D01*
X028165Y014833D01*
X028193Y014874D01*
X028225Y014913D01*
X028259Y014950D01*
X028296Y014984D01*
X028336Y015014D01*
X028378Y015041D01*
X028422Y015065D01*
X028468Y015086D01*
X028515Y015102D01*
X028563Y015115D01*
X028613Y015124D01*
X028662Y015129D01*
X028713Y015130D01*
X028763Y015127D01*
X028812Y015120D01*
X028861Y015109D01*
X028909Y015094D01*
X028955Y015076D01*
X029000Y015054D01*
X029043Y015028D01*
X029084Y014999D01*
X029123Y014967D01*
X029159Y014932D01*
X029191Y014894D01*
X029221Y014854D01*
X029248Y014811D01*
X029271Y014767D01*
X029290Y014721D01*
X029306Y014673D01*
X029318Y014624D01*
X029326Y014575D01*
X029330Y014525D01*
X029330Y014475D01*
X029326Y014425D01*
X029318Y014376D01*
X029306Y014327D01*
X029290Y014279D01*
X029271Y014233D01*
X029248Y014189D01*
X029221Y014146D01*
X029191Y014106D01*
X029159Y014068D01*
X029123Y014033D01*
X029084Y014001D01*
X029043Y013972D01*
X029000Y013946D01*
X028955Y013924D01*
X028909Y013906D01*
X028861Y013891D01*
X028812Y013880D01*
X028763Y013873D01*
X028713Y013870D01*
X028662Y013871D01*
X028613Y013876D01*
X028563Y013885D01*
X028515Y013898D01*
X028468Y013914D01*
X028422Y013935D01*
X028378Y013959D01*
X028336Y013986D01*
X028296Y014016D01*
X028259Y014050D01*
X028225Y014087D01*
X028193Y014126D01*
X028165Y014167D01*
X028140Y014211D01*
X028119Y014256D01*
X028102Y014303D01*
X028088Y014351D01*
X028078Y014400D01*
X028072Y014450D01*
X028070Y014500D01*
X022720Y015757D02*
X022722Y015795D01*
X022728Y015834D01*
X022738Y015871D01*
X022751Y015907D01*
X022769Y015941D01*
X022789Y015974D01*
X022813Y016004D01*
X022840Y016031D01*
X022870Y016056D01*
X022901Y016078D01*
X022935Y016096D01*
X022971Y016110D01*
X023008Y016121D01*
X023046Y016128D01*
X023084Y016131D01*
X023123Y016130D01*
X023161Y016125D01*
X023199Y016116D01*
X023235Y016103D01*
X023270Y016087D01*
X023303Y016067D01*
X023334Y016044D01*
X023362Y016018D01*
X023387Y015989D01*
X023410Y015958D01*
X023429Y015924D01*
X023444Y015889D01*
X023456Y015852D01*
X023464Y015815D01*
X023468Y015776D01*
X023468Y015738D01*
X023464Y015699D01*
X023456Y015662D01*
X023444Y015625D01*
X023429Y015590D01*
X023410Y015556D01*
X023387Y015525D01*
X023362Y015496D01*
X023334Y015470D01*
X023303Y015447D01*
X023270Y015427D01*
X023235Y015411D01*
X023199Y015398D01*
X023161Y015389D01*
X023123Y015384D01*
X023084Y015383D01*
X023046Y015386D01*
X023008Y015393D01*
X022971Y015404D01*
X022935Y015418D01*
X022901Y015436D01*
X022870Y015458D01*
X022840Y015483D01*
X022813Y015510D01*
X022789Y015540D01*
X022769Y015573D01*
X022751Y015607D01*
X022738Y015643D01*
X022728Y015680D01*
X022722Y015719D01*
X022720Y015757D01*
X008070Y020500D02*
X008072Y020550D01*
X008078Y020600D01*
X008088Y020649D01*
X008102Y020697D01*
X008119Y020744D01*
X008140Y020789D01*
X008165Y020833D01*
X008193Y020874D01*
X008225Y020913D01*
X008259Y020950D01*
X008296Y020984D01*
X008336Y021014D01*
X008378Y021041D01*
X008422Y021065D01*
X008468Y021086D01*
X008515Y021102D01*
X008563Y021115D01*
X008613Y021124D01*
X008662Y021129D01*
X008713Y021130D01*
X008763Y021127D01*
X008812Y021120D01*
X008861Y021109D01*
X008909Y021094D01*
X008955Y021076D01*
X009000Y021054D01*
X009043Y021028D01*
X009084Y020999D01*
X009123Y020967D01*
X009159Y020932D01*
X009191Y020894D01*
X009221Y020854D01*
X009248Y020811D01*
X009271Y020767D01*
X009290Y020721D01*
X009306Y020673D01*
X009318Y020624D01*
X009326Y020575D01*
X009330Y020525D01*
X009330Y020475D01*
X009326Y020425D01*
X009318Y020376D01*
X009306Y020327D01*
X009290Y020279D01*
X009271Y020233D01*
X009248Y020189D01*
X009221Y020146D01*
X009191Y020106D01*
X009159Y020068D01*
X009123Y020033D01*
X009084Y020001D01*
X009043Y019972D01*
X009000Y019946D01*
X008955Y019924D01*
X008909Y019906D01*
X008861Y019891D01*
X008812Y019880D01*
X008763Y019873D01*
X008713Y019870D01*
X008662Y019871D01*
X008613Y019876D01*
X008563Y019885D01*
X008515Y019898D01*
X008468Y019914D01*
X008422Y019935D01*
X008378Y019959D01*
X008336Y019986D01*
X008296Y020016D01*
X008259Y020050D01*
X008225Y020087D01*
X008193Y020126D01*
X008165Y020167D01*
X008140Y020211D01*
X008119Y020256D01*
X008102Y020303D01*
X008088Y020351D01*
X008078Y020400D01*
X008072Y020450D01*
X008070Y020500D01*
D15*
X012100Y020500D03*
X013100Y020500D03*
X014100Y020500D03*
X015100Y020500D03*
X016100Y020500D03*
X017100Y020500D03*
X018100Y020500D03*
X019100Y020500D03*
X020700Y020500D03*
X021700Y020500D03*
X022700Y020500D03*
X023700Y020500D03*
X024700Y020500D03*
X025700Y020500D03*
X026700Y020500D03*
X027700Y020500D03*
X027700Y001500D03*
X026700Y001500D03*
X025700Y001500D03*
X024700Y001500D03*
X023700Y001500D03*
X022700Y001500D03*
X020700Y001500D03*
X019700Y001500D03*
X018700Y001500D03*
X017700Y001500D03*
X016700Y001500D03*
X015700Y001500D03*
D16*
X014554Y015575D03*
X014554Y016575D03*
X014554Y017575D03*
X014554Y018575D03*
X011554Y018575D03*
X011554Y017575D03*
X011554Y016575D03*
X011554Y015575D03*
D17*
X026480Y011839D03*
X027267Y012567D03*
X029196Y011839D03*
X027267Y011110D03*
X027267Y006858D03*
X026480Y006130D03*
X027267Y005402D03*
X029196Y006130D03*
D18*
X027031Y015441D03*
X027031Y016189D03*
D19*
X016857Y015122D02*
X016850Y015122D01*
X016204Y014476D01*
X016046Y014319D01*
X016046Y011957D01*
X016857Y011146D01*
X016857Y008469D01*
X016810Y008469D01*
X015968Y007626D01*
X015968Y005461D01*
X016857Y004571D01*
X017700Y001500D02*
X017700Y000972D01*
X017543Y000815D01*
X009747Y000815D01*
X009432Y001130D01*
X009432Y002154D01*
X009078Y002508D01*
X008369Y003217D01*
X007661Y002508D01*
X007621Y002508D01*
X007149Y002035D01*
X004157Y002035D01*
X003763Y002429D01*
X003763Y015185D01*
X006204Y017587D01*
X008369Y004240D02*
X008369Y003965D01*
X008369Y003217D01*
D20*
X008369Y004240D03*
X009275Y004437D03*
X012543Y005421D03*
X012543Y006406D03*
X020338Y003295D03*
X007385Y012154D03*
X006558Y012154D03*
X009354Y014240D03*
X009235Y015697D03*
X006204Y017587D03*
X005298Y018138D03*
X009511Y018177D03*
X012818Y012862D03*
X018133Y017823D03*
X020456Y015500D03*
X021243Y015539D03*
X019944Y015028D03*
X021676Y017823D03*
X022739Y017862D03*
X024708Y017783D03*
X025731Y016130D03*
D21*
X014554Y016575D02*
X012267Y014287D01*
X012267Y009516D01*
X012109Y009358D01*
X012109Y005854D01*
X012306Y005657D01*
X012543Y005421D01*
X012578Y005513D01*
X012369Y005595D01*
X012451Y005385D01*
X012543Y005421D01*
X016857Y004571D02*
X018133Y003295D01*
X020338Y003295D01*
X020298Y003385D01*
X020092Y003295D01*
X020298Y003205D01*
X020338Y003295D01*
D22*
X020619Y003195D02*
X022540Y003195D01*
X022540Y003125D02*
X022624Y002921D01*
X022780Y002765D01*
X022983Y002681D01*
X023204Y002681D01*
X023408Y002765D01*
X023563Y002921D01*
X023648Y003125D01*
X023648Y003345D01*
X023563Y003549D01*
X023408Y003705D01*
X023204Y003789D01*
X022983Y003789D01*
X022780Y003705D01*
X022624Y003549D01*
X022540Y003345D01*
X022540Y003125D01*
X022576Y003036D02*
X020492Y003036D01*
X020507Y003042D02*
X020591Y003126D01*
X020636Y003236D01*
X020636Y003355D01*
X020591Y003464D01*
X020507Y003548D01*
X020397Y003594D01*
X020315Y003594D01*
X020294Y003602D01*
X020221Y003570D01*
X020169Y003548D01*
X020167Y003546D01*
X020165Y003546D01*
X020050Y003495D01*
X018216Y003495D01*
X017297Y004414D01*
X017297Y004753D01*
X017040Y005011D01*
X016842Y005011D01*
X016268Y005585D01*
X016268Y007502D01*
X016794Y008029D01*
X017040Y008029D01*
X017297Y008286D01*
X017297Y008651D01*
X017157Y008791D01*
X017157Y010823D01*
X017297Y010963D01*
X017297Y011328D01*
X017040Y011586D01*
X016842Y011586D01*
X016346Y012081D01*
X016346Y014195D01*
X016458Y014306D01*
X016834Y014682D01*
X017040Y014682D01*
X017297Y014940D01*
X017297Y015304D01*
X017040Y015562D01*
X016675Y015562D01*
X016417Y015304D01*
X016417Y015114D01*
X016034Y014731D01*
X015877Y014573D01*
X015792Y014489D01*
X015746Y014379D01*
X015746Y011897D01*
X015792Y011787D01*
X016417Y011161D01*
X016417Y010963D01*
X016557Y010823D01*
X016557Y008791D01*
X016417Y008651D01*
X016417Y008500D01*
X015798Y007880D01*
X015713Y007796D01*
X015668Y007686D01*
X015668Y005401D01*
X015713Y005291D01*
X016417Y004587D01*
X016417Y004389D01*
X016675Y004131D01*
X017015Y004131D01*
X018050Y003095D01*
X020050Y003095D01*
X020167Y003044D01*
X020169Y003042D01*
X020221Y003021D01*
X020292Y002990D01*
X020294Y002989D01*
X020299Y002990D01*
X020315Y002997D01*
X020397Y002997D01*
X020507Y003042D01*
X020184Y003036D02*
X013112Y003036D01*
X013034Y002958D02*
X013301Y003225D01*
X013301Y003602D01*
X013034Y003868D01*
X012657Y003868D01*
X012391Y003602D01*
X012391Y003225D01*
X012657Y002958D01*
X013034Y002958D01*
X013270Y003195D02*
X017951Y003195D01*
X017792Y003353D02*
X013301Y003353D01*
X013301Y003512D02*
X017634Y003512D01*
X017475Y003670D02*
X013233Y003670D01*
X013074Y003829D02*
X017317Y003829D01*
X017158Y003987D02*
X008669Y003987D01*
X008669Y003829D02*
X011561Y003829D01*
X011641Y003908D02*
X011351Y003618D01*
X011351Y003413D01*
X011351Y003208D01*
X011641Y002918D01*
X011846Y002918D01*
X012051Y002918D01*
X012341Y003208D01*
X012341Y003413D01*
X011846Y003413D01*
X011846Y003413D01*
X011846Y002918D01*
X011846Y003413D01*
X011846Y003413D01*
X012341Y003413D01*
X012341Y003618D01*
X012051Y003908D01*
X011846Y003908D01*
X011846Y003413D01*
X011351Y003413D01*
X011846Y003413D01*
X011846Y003413D01*
X011846Y003413D01*
X011846Y003908D01*
X011641Y003908D01*
X011846Y003829D02*
X011846Y003829D01*
X011846Y003670D02*
X011846Y003670D01*
X011846Y003512D02*
X011846Y003512D01*
X011846Y003353D02*
X011846Y003353D01*
X011846Y003195D02*
X011846Y003195D01*
X011846Y003036D02*
X011846Y003036D01*
X012168Y003036D02*
X012580Y003036D01*
X012421Y003195D02*
X012327Y003195D01*
X012341Y003353D02*
X012391Y003353D01*
X012391Y003512D02*
X012341Y003512D01*
X012289Y003670D02*
X012459Y003670D01*
X012617Y003829D02*
X012131Y003829D01*
X011402Y003670D02*
X008669Y003670D01*
X008669Y003512D02*
X011351Y003512D01*
X011351Y003353D02*
X008669Y003353D01*
X008669Y003341D02*
X008669Y004300D01*
X008624Y004410D01*
X008539Y004494D01*
X008429Y004540D01*
X008310Y004540D01*
X008199Y004494D01*
X008115Y004410D01*
X008069Y004300D01*
X008069Y003341D01*
X007519Y002790D01*
X007451Y002762D01*
X007025Y002335D01*
X004281Y002335D01*
X004063Y002553D01*
X004063Y015059D01*
X006457Y017415D01*
X006503Y017525D01*
X006504Y017644D01*
X006460Y017754D01*
X006376Y017840D01*
X006266Y017886D01*
X006147Y017887D01*
X006036Y017842D01*
X003594Y015440D01*
X003593Y015439D01*
X003552Y015398D01*
X003510Y015357D01*
X003510Y015356D01*
X003509Y015355D01*
X003486Y015301D01*
X003463Y015247D01*
X003463Y015246D01*
X003463Y015245D01*
X003463Y015186D01*
X003463Y015128D01*
X003463Y015127D01*
X003463Y002369D01*
X003509Y002259D01*
X003593Y002175D01*
X003987Y001781D01*
X004097Y001735D01*
X007208Y001735D01*
X007319Y001781D01*
X007403Y001865D01*
X007763Y002226D01*
X007831Y002254D01*
X008369Y002792D01*
X008908Y002254D01*
X009132Y002029D01*
X009132Y001070D01*
X009178Y000960D01*
X009262Y000876D01*
X009458Y000680D01*
X002880Y000680D01*
X002880Y021320D01*
X028025Y021320D01*
X028290Y021056D01*
X028280Y015899D01*
X027503Y015899D01*
X027506Y015909D01*
X027506Y016141D01*
X027079Y016141D01*
X027079Y016237D01*
X027506Y016237D01*
X027506Y016469D01*
X027494Y016514D01*
X027470Y016555D01*
X027437Y016589D01*
X027395Y016613D01*
X027350Y016625D01*
X027079Y016625D01*
X027079Y016237D01*
X026983Y016237D01*
X026983Y016625D01*
X026712Y016625D01*
X026666Y016613D01*
X026625Y016589D01*
X026591Y016555D01*
X026568Y016514D01*
X026555Y016469D01*
X026555Y016237D01*
X026983Y016237D01*
X026983Y016141D01*
X026555Y016141D01*
X026555Y015909D01*
X026558Y015899D01*
X024369Y015899D01*
X024251Y015850D01*
X024161Y015760D01*
X024112Y015642D01*
X024112Y002484D01*
X024161Y002366D01*
X024251Y002276D01*
X024369Y002227D01*
X028255Y002227D01*
X028252Y000680D01*
X017832Y000680D01*
X017954Y000803D01*
X018000Y000913D01*
X018000Y001135D01*
X018170Y001305D01*
X018170Y001695D01*
X017895Y001970D01*
X017505Y001970D01*
X017230Y001695D01*
X017230Y001305D01*
X017400Y001135D01*
X017400Y001115D01*
X016980Y001115D01*
X017170Y001305D01*
X017170Y001695D01*
X016895Y001970D01*
X016505Y001970D01*
X016230Y001695D01*
X016230Y001305D01*
X016420Y001115D01*
X015980Y001115D01*
X016170Y001305D01*
X016170Y001695D01*
X015895Y001970D01*
X015505Y001970D01*
X015230Y001695D01*
X015230Y001305D01*
X015420Y001115D01*
X009872Y001115D01*
X009732Y001254D01*
X009732Y002213D01*
X009687Y002323D01*
X009332Y002678D01*
X008669Y003341D01*
X008816Y003195D02*
X011365Y003195D01*
X011523Y003036D02*
X008974Y003036D01*
X009133Y002878D02*
X022668Y002878D01*
X022892Y002719D02*
X009291Y002719D01*
X009450Y002561D02*
X024112Y002561D01*
X024112Y002719D02*
X023296Y002719D01*
X023520Y002878D02*
X024112Y002878D01*
X024112Y003036D02*
X023611Y003036D01*
X023648Y003195D02*
X024112Y003195D01*
X024112Y003353D02*
X023644Y003353D01*
X023579Y003512D02*
X024112Y003512D01*
X024112Y003670D02*
X023442Y003670D01*
X022745Y003670D02*
X018041Y003670D01*
X017883Y003829D02*
X024112Y003829D01*
X024112Y003987D02*
X017724Y003987D01*
X017675Y004131D02*
X018040Y004131D01*
X018297Y004389D01*
X018297Y004706D01*
X018461Y004870D01*
X018534Y004870D01*
X018417Y004753D01*
X018417Y004389D01*
X018675Y004131D01*
X018955Y004131D01*
X019066Y004020D01*
X021138Y004020D01*
X021492Y004374D01*
X021621Y004503D01*
X021621Y004882D01*
X021581Y004922D01*
X021581Y008992D01*
X022516Y009926D01*
X022540Y009950D01*
X022540Y009857D01*
X022624Y009653D01*
X022780Y009498D01*
X022783Y009496D01*
X022780Y009495D01*
X022624Y009339D01*
X022540Y009135D01*
X022540Y008915D01*
X022624Y008711D01*
X022780Y008555D01*
X022983Y008471D01*
X023204Y008471D01*
X023408Y008555D01*
X023563Y008711D01*
X023648Y008915D01*
X023648Y009135D01*
X023563Y009339D01*
X023408Y009495D01*
X023404Y009496D01*
X023408Y009498D01*
X023563Y009653D01*
X023648Y009857D01*
X023648Y010077D01*
X023563Y010281D01*
X023408Y010437D01*
X023204Y010521D01*
X022983Y010521D01*
X022780Y010437D01*
X022644Y010301D01*
X022644Y015394D01*
X022516Y015523D01*
X022329Y015709D01*
X021925Y016114D01*
X021367Y016114D01*
X021362Y016118D01*
X021277Y016114D01*
X021192Y016114D01*
X021187Y016109D01*
X020903Y016094D01*
X020739Y016094D01*
X020511Y015866D01*
X020473Y015853D01*
X020466Y015838D01*
X020332Y015772D01*
X020287Y015753D01*
X020279Y015746D01*
X020242Y015727D01*
X020242Y015727D01*
X020242Y015727D01*
X020232Y015698D01*
X020203Y015669D01*
X020157Y015559D01*
X020157Y015441D01*
X020203Y015331D01*
X020287Y015247D01*
X020397Y015202D01*
X020515Y015202D01*
X020625Y015247D01*
X020654Y015276D01*
X020683Y015286D01*
X020701Y015324D01*
X020709Y015331D01*
X020728Y015376D01*
X020794Y015510D01*
X020809Y015518D01*
X020822Y015555D01*
X020921Y015654D01*
X020968Y015654D01*
X020945Y015599D01*
X020945Y015480D01*
X020990Y015370D01*
X021074Y015286D01*
X021184Y015241D01*
X021225Y015241D01*
X021252Y015227D01*
X021292Y015241D01*
X021303Y015241D01*
X021348Y015260D01*
X021404Y015279D01*
X021489Y015307D01*
X021506Y015302D01*
X021541Y015319D01*
X021546Y015319D01*
X021850Y015015D01*
X021850Y010670D01*
X020365Y009185D01*
X019262Y009185D01*
X018986Y008909D01*
X018675Y008909D01*
X018417Y008651D01*
X018417Y008286D01*
X018675Y008029D01*
X019040Y008029D01*
X019297Y008286D01*
X019297Y008597D01*
X019445Y008745D01*
X020547Y008745D01*
X022204Y010402D01*
X022204Y010237D01*
X021141Y009174D01*
X021141Y004740D01*
X021181Y004700D01*
X021181Y004686D01*
X020955Y004460D01*
X019297Y004460D01*
X019297Y004753D01*
X019181Y004870D01*
X020394Y004870D01*
X020530Y004734D01*
X020858Y004734D01*
X021090Y004966D01*
X021090Y005294D01*
X020858Y005526D01*
X020530Y005526D01*
X020394Y005390D01*
X018302Y005390D01*
X018206Y005350D01*
X018110Y005254D01*
X017867Y005011D01*
X017675Y005011D01*
X017417Y004753D01*
X017417Y004389D01*
X017675Y004131D01*
X017661Y004146D02*
X017566Y004146D01*
X017502Y004304D02*
X017407Y004304D01*
X017417Y004463D02*
X017297Y004463D01*
X017297Y004621D02*
X017417Y004621D01*
X017444Y004780D02*
X017271Y004780D01*
X017113Y004938D02*
X017602Y004938D01*
X017952Y005097D02*
X016756Y005097D01*
X016598Y005255D02*
X018111Y005255D01*
X018246Y005555D02*
X018341Y005516D01*
X020429Y005516D01*
X020524Y005555D01*
X020598Y005628D01*
X020703Y005734D01*
X020869Y005734D01*
X021101Y005966D01*
X021101Y006294D01*
X020869Y006526D01*
X020541Y006526D01*
X020309Y006294D01*
X020309Y006075D01*
X020269Y006036D01*
X019204Y006036D01*
X019297Y006129D01*
X019297Y006493D01*
X019040Y006751D01*
X018675Y006751D01*
X018417Y006493D01*
X018417Y006129D01*
X018511Y006036D01*
X018501Y006036D01*
X018297Y006239D01*
X018297Y006493D01*
X018040Y006751D01*
X017675Y006751D01*
X017417Y006493D01*
X017417Y006129D01*
X017675Y005871D01*
X017930Y005871D01*
X018246Y005555D01*
X018229Y005572D02*
X016281Y005572D01*
X016268Y005731D02*
X018070Y005731D01*
X017657Y005889D02*
X017058Y005889D01*
X017040Y005871D02*
X017297Y006129D01*
X017297Y006493D01*
X017040Y006751D01*
X016675Y006751D01*
X016417Y006493D01*
X016417Y006129D01*
X016675Y005871D01*
X017040Y005871D01*
X017216Y006048D02*
X017499Y006048D01*
X017417Y006206D02*
X017297Y006206D01*
X017297Y006365D02*
X017417Y006365D01*
X017447Y006523D02*
X017268Y006523D01*
X017109Y006682D02*
X017606Y006682D01*
X018109Y006682D02*
X018606Y006682D01*
X018447Y006523D02*
X018268Y006523D01*
X018297Y006365D02*
X018417Y006365D01*
X018417Y006206D02*
X018330Y006206D01*
X018489Y006048D02*
X018499Y006048D01*
X019216Y006048D02*
X020281Y006048D01*
X020309Y006206D02*
X019297Y006206D01*
X019297Y006365D02*
X020379Y006365D01*
X020538Y006523D02*
X019268Y006523D01*
X019109Y006682D02*
X021141Y006682D01*
X021141Y006840D02*
X020964Y006840D01*
X020858Y006734D02*
X020530Y006734D01*
X020298Y006966D01*
X020298Y007158D01*
X020090Y007366D01*
X018633Y007366D01*
X018537Y007406D01*
X018464Y007479D01*
X018228Y007715D01*
X017914Y008029D01*
X017675Y008029D01*
X017417Y008286D01*
X017417Y008651D01*
X017675Y008909D01*
X018040Y008909D01*
X018297Y008651D01*
X018297Y008380D01*
X018595Y008083D01*
X018792Y007886D01*
X020249Y007886D01*
X020345Y007846D01*
X020665Y007526D01*
X020858Y007526D01*
X021090Y007294D01*
X021090Y006966D01*
X020858Y006734D01*
X020871Y006523D02*
X021141Y006523D01*
X021141Y006365D02*
X021030Y006365D01*
X021101Y006206D02*
X021141Y006206D01*
X021141Y006048D02*
X021101Y006048D01*
X021141Y005889D02*
X021024Y005889D01*
X021141Y005731D02*
X020700Y005731D01*
X020541Y005572D02*
X021141Y005572D01*
X021141Y005414D02*
X020970Y005414D01*
X021090Y005255D02*
X021141Y005255D01*
X021141Y005097D02*
X021090Y005097D01*
X021062Y004938D02*
X021141Y004938D01*
X021141Y004780D02*
X020903Y004780D01*
X021116Y004621D02*
X019297Y004621D01*
X019297Y004463D02*
X020958Y004463D01*
X021046Y004240D02*
X021401Y004594D01*
X021401Y004791D01*
X021361Y004831D01*
X021361Y008256D01*
X021361Y009083D01*
X022424Y010146D01*
X022424Y015303D01*
X022109Y015618D01*
X021834Y015894D01*
X021283Y015894D01*
X020909Y015874D01*
X020830Y015874D01*
X020456Y015500D01*
X020526Y015465D01*
X020630Y015674D01*
X020421Y015570D01*
X020456Y015500D01*
X020175Y015399D02*
X019203Y015399D01*
X019297Y015304D02*
X019040Y015562D01*
X018675Y015562D01*
X018417Y015304D01*
X018417Y014940D01*
X018675Y014682D01*
X019040Y014682D01*
X019297Y014940D01*
X019297Y015304D01*
X019297Y015241D02*
X019735Y015241D01*
X019775Y015281D02*
X019691Y015197D01*
X019646Y015087D01*
X019646Y014968D01*
X019691Y014859D01*
X019738Y014811D01*
X019751Y014782D01*
X019833Y014751D01*
X019885Y014729D01*
X019888Y014729D01*
X019894Y014727D01*
X019971Y014650D01*
X020092Y014650D01*
X020139Y014632D01*
X020154Y014639D01*
X020171Y014635D01*
X020195Y014650D01*
X021034Y014650D01*
X021299Y014385D01*
X021299Y011339D01*
X021073Y011114D01*
X019917Y011114D01*
X019665Y011366D01*
X019260Y011366D01*
X019204Y011421D01*
X020547Y011421D01*
X020643Y011461D01*
X020648Y011466D01*
X020858Y011466D01*
X021090Y011698D01*
X021090Y012026D01*
X020858Y012258D01*
X020530Y012258D01*
X020298Y012026D01*
X020298Y011941D01*
X018341Y011941D01*
X018246Y011902D01*
X017930Y011586D01*
X017675Y011586D01*
X017417Y011328D01*
X017417Y010963D01*
X017675Y010706D01*
X018040Y010706D01*
X018297Y010963D01*
X018297Y011218D01*
X018501Y011421D01*
X018511Y011421D01*
X018417Y011328D01*
X018417Y010963D01*
X018675Y010706D01*
X019040Y010706D01*
X019260Y010926D01*
X019483Y010926D01*
X019606Y010803D01*
X019735Y010674D01*
X021256Y010674D01*
X021385Y010803D01*
X021739Y011157D01*
X021739Y014568D01*
X021610Y014696D01*
X021216Y015090D01*
X020256Y015090D01*
X020211Y015164D01*
X020197Y015197D01*
X020180Y015214D01*
X020150Y015262D01*
X020126Y015267D01*
X020113Y015281D01*
X020003Y015326D01*
X019885Y015326D01*
X019775Y015281D01*
X019646Y015082D02*
X019297Y015082D01*
X019281Y014924D02*
X019664Y014924D01*
X019796Y014765D02*
X019123Y014765D01*
X018899Y014448D02*
X021236Y014448D01*
X021299Y014290D02*
X019058Y014290D01*
X019216Y014131D02*
X020403Y014131D01*
X020394Y014122D02*
X019225Y014122D01*
X018297Y015050D01*
X018297Y015304D01*
X018040Y015562D01*
X017675Y015562D01*
X017417Y015304D01*
X017417Y014940D01*
X017675Y014682D01*
X017930Y014682D01*
X018970Y013642D01*
X019066Y013602D01*
X020394Y013602D01*
X020530Y013466D01*
X020858Y013466D01*
X021090Y013698D01*
X021090Y014026D01*
X020858Y014258D01*
X020530Y014258D01*
X020394Y014122D01*
X020985Y014131D02*
X021299Y014131D01*
X021299Y013973D02*
X021090Y013973D01*
X021090Y013814D02*
X021299Y013814D01*
X021299Y013656D02*
X021047Y013656D01*
X020888Y013497D02*
X021299Y013497D01*
X021299Y013339D02*
X019066Y013339D01*
X019040Y013365D02*
X018675Y013365D01*
X018417Y013107D01*
X018417Y012743D01*
X018550Y012610D01*
X018522Y012610D01*
X018297Y012851D01*
X018297Y013107D01*
X018040Y013365D01*
X017675Y013365D01*
X017417Y013107D01*
X017417Y012743D01*
X017675Y012485D01*
X017928Y012485D01*
X018186Y012208D01*
X018188Y012203D01*
X018222Y012170D01*
X018254Y012135D01*
X018258Y012133D01*
X018261Y012130D01*
X018305Y012112D01*
X018348Y012092D01*
X018353Y012092D01*
X018357Y012090D01*
X018404Y012090D01*
X018451Y012089D01*
X018456Y012090D01*
X020149Y012090D01*
X020196Y012089D01*
X020200Y012090D01*
X020205Y012090D01*
X020249Y012108D01*
X020293Y012125D01*
X020296Y012128D01*
X020301Y012130D01*
X020334Y012163D01*
X020660Y012466D01*
X020869Y012466D01*
X021101Y012698D01*
X021101Y013026D01*
X020869Y013258D01*
X020541Y013258D01*
X020309Y013026D01*
X020309Y012849D01*
X020051Y012610D01*
X019165Y012610D01*
X019297Y012743D01*
X019297Y013107D01*
X019040Y013365D01*
X019225Y013180D02*
X020463Y013180D01*
X020309Y013022D02*
X019297Y013022D01*
X019297Y012863D02*
X020309Y012863D01*
X020153Y012705D02*
X019259Y012705D01*
X018456Y012705D02*
X018434Y012705D01*
X018417Y012863D02*
X018297Y012863D01*
X018297Y013022D02*
X018417Y013022D01*
X018490Y013180D02*
X018225Y013180D01*
X018066Y013339D02*
X018649Y013339D01*
X018956Y013656D02*
X016346Y013656D01*
X016346Y013814D02*
X018798Y013814D01*
X018639Y013973D02*
X016346Y013973D01*
X016346Y014131D02*
X018481Y014131D01*
X018322Y014290D02*
X016441Y014290D01*
X016600Y014448D02*
X018164Y014448D01*
X018005Y014607D02*
X016758Y014607D01*
X017123Y014765D02*
X017592Y014765D01*
X017434Y014924D02*
X017281Y014924D01*
X017297Y015082D02*
X017417Y015082D01*
X017417Y015241D02*
X017297Y015241D01*
X017203Y015399D02*
X017512Y015399D01*
X017671Y015558D02*
X017044Y015558D01*
X016671Y015558D02*
X014994Y015558D01*
X014994Y015575D02*
X014554Y015575D01*
X014554Y015575D01*
X014114Y015575D01*
X014114Y015757D01*
X014372Y016015D01*
X014554Y016015D01*
X014554Y015575D01*
X014554Y015575D01*
X014114Y015575D01*
X014114Y015393D01*
X014372Y015135D01*
X014554Y015135D01*
X014554Y015575D01*
X014554Y016015D01*
X014737Y016015D01*
X014994Y015757D01*
X014994Y015575D01*
X014554Y015575D01*
X014554Y015575D01*
X014554Y015575D01*
X014554Y015135D01*
X014737Y015135D01*
X014994Y015393D01*
X014994Y015575D01*
X014994Y015716D02*
X020238Y015716D01*
X020157Y015558D02*
X019044Y015558D01*
X018671Y015558D02*
X018044Y015558D01*
X018203Y015399D02*
X018512Y015399D01*
X018417Y015241D02*
X018297Y015241D01*
X018297Y015082D02*
X018417Y015082D01*
X018424Y014924D02*
X018434Y014924D01*
X018582Y014765D02*
X018592Y014765D01*
X018741Y014607D02*
X021078Y014607D01*
X021125Y014870D02*
X021519Y014476D01*
X021519Y011248D01*
X021165Y010894D01*
X019826Y010894D01*
X019574Y011146D01*
X018857Y011146D01*
X018417Y011120D02*
X018297Y011120D01*
X018295Y010961D02*
X018420Y010961D01*
X018578Y010803D02*
X018137Y010803D01*
X018358Y011278D02*
X018417Y011278D01*
X018098Y011754D02*
X016674Y011754D01*
X016515Y011912D02*
X018271Y011912D01*
X017939Y011595D02*
X016832Y011595D01*
X017189Y011437D02*
X017526Y011437D01*
X017417Y011278D02*
X017297Y011278D01*
X017297Y011120D02*
X017417Y011120D01*
X017420Y010961D02*
X017295Y010961D01*
X017157Y010803D02*
X017578Y010803D01*
X017157Y010644D02*
X021824Y010644D01*
X021850Y010803D02*
X021385Y010803D01*
X021385Y010803D01*
X021543Y010961D02*
X021850Y010961D01*
X021850Y011120D02*
X021702Y011120D01*
X021739Y011278D02*
X021850Y011278D01*
X021850Y011437D02*
X021739Y011437D01*
X021739Y011595D02*
X021850Y011595D01*
X021850Y011754D02*
X021739Y011754D01*
X021739Y011912D02*
X021850Y011912D01*
X021850Y012071D02*
X021739Y012071D01*
X021739Y012229D02*
X021850Y012229D01*
X021850Y012388D02*
X021739Y012388D01*
X021739Y012546D02*
X021850Y012546D01*
X021850Y012705D02*
X021739Y012705D01*
X021739Y012863D02*
X021850Y012863D01*
X021850Y013022D02*
X021739Y013022D01*
X021739Y013180D02*
X021850Y013180D01*
X021850Y013339D02*
X021739Y013339D01*
X021739Y013497D02*
X021850Y013497D01*
X021850Y013656D02*
X021739Y013656D01*
X021739Y013814D02*
X021850Y013814D01*
X021850Y013973D02*
X021739Y013973D01*
X021739Y014131D02*
X021850Y014131D01*
X021850Y014290D02*
X021739Y014290D01*
X021739Y014448D02*
X021850Y014448D01*
X021850Y014607D02*
X021700Y014607D01*
X021850Y014765D02*
X021541Y014765D01*
X021383Y014924D02*
X021850Y014924D01*
X021783Y015082D02*
X021224Y015082D01*
X021226Y015241D02*
X020609Y015241D01*
X020683Y015286D02*
X020683Y015286D01*
X020683Y015286D01*
X020739Y015399D02*
X020978Y015399D01*
X020945Y015558D02*
X020825Y015558D01*
X021243Y015539D02*
X021268Y015465D01*
X021489Y015539D01*
X021268Y015614D01*
X021243Y015539D01*
X021637Y015539D01*
X022070Y015106D01*
X022070Y010579D01*
X020456Y008965D01*
X019354Y008965D01*
X018857Y008469D01*
X019297Y008425D02*
X021141Y008425D01*
X021141Y008267D02*
X019278Y008267D01*
X019119Y008108D02*
X021141Y008108D01*
X021141Y007950D02*
X018728Y007950D01*
X018596Y008108D02*
X018570Y008108D01*
X018437Y008267D02*
X018411Y008267D01*
X018417Y008425D02*
X018297Y008425D01*
X018297Y008584D02*
X018417Y008584D01*
X018509Y008742D02*
X018206Y008742D01*
X018048Y008901D02*
X018667Y008901D01*
X019137Y009059D02*
X017157Y009059D01*
X017157Y008901D02*
X017667Y008901D01*
X017509Y008742D02*
X017206Y008742D01*
X017297Y008584D02*
X017417Y008584D01*
X017417Y008425D02*
X017297Y008425D01*
X017278Y008267D02*
X017437Y008267D01*
X017596Y008108D02*
X017119Y008108D01*
X016716Y007950D02*
X017993Y007950D01*
X018152Y007791D02*
X016557Y007791D01*
X016399Y007633D02*
X018310Y007633D01*
X018469Y007474D02*
X016268Y007474D01*
X016268Y007316D02*
X020140Y007316D01*
X020298Y007157D02*
X016268Y007157D01*
X016268Y006999D02*
X020298Y006999D01*
X020424Y006840D02*
X016268Y006840D01*
X016268Y006682D02*
X016606Y006682D01*
X016447Y006523D02*
X016268Y006523D01*
X016268Y006365D02*
X016417Y006365D01*
X016417Y006206D02*
X016268Y006206D01*
X016268Y006048D02*
X016499Y006048D01*
X016657Y005889D02*
X016268Y005889D01*
X016439Y005414D02*
X020417Y005414D01*
X020484Y004780D02*
X019271Y004780D01*
X018857Y004571D02*
X018857Y004539D01*
X019157Y004240D01*
X021046Y004240D01*
X021263Y004146D02*
X024112Y004146D01*
X024112Y004304D02*
X021421Y004304D01*
X021580Y004463D02*
X024112Y004463D01*
X024112Y004621D02*
X021621Y004621D01*
X021621Y004780D02*
X024112Y004780D01*
X024112Y004938D02*
X021581Y004938D01*
X021581Y005097D02*
X024112Y005097D01*
X024112Y005255D02*
X021581Y005255D01*
X021581Y005414D02*
X024112Y005414D01*
X024112Y005572D02*
X021581Y005572D01*
X021581Y005731D02*
X024112Y005731D01*
X024112Y005889D02*
X021581Y005889D01*
X021581Y006048D02*
X024112Y006048D01*
X024112Y006206D02*
X021581Y006206D01*
X021581Y006365D02*
X024112Y006365D01*
X024112Y006523D02*
X021581Y006523D01*
X021581Y006682D02*
X024112Y006682D01*
X024112Y006840D02*
X021581Y006840D01*
X021581Y006999D02*
X024112Y006999D01*
X024112Y007157D02*
X021581Y007157D01*
X021581Y007316D02*
X024112Y007316D01*
X024112Y007474D02*
X021581Y007474D01*
X021581Y007633D02*
X024112Y007633D01*
X024112Y007791D02*
X021581Y007791D01*
X021581Y007950D02*
X024112Y007950D01*
X024112Y008108D02*
X021581Y008108D01*
X021581Y008267D02*
X024112Y008267D01*
X024112Y008425D02*
X021581Y008425D01*
X021581Y008584D02*
X022752Y008584D01*
X022611Y008742D02*
X021581Y008742D01*
X021581Y008901D02*
X022546Y008901D01*
X022540Y009059D02*
X021649Y009059D01*
X021807Y009218D02*
X022574Y009218D01*
X022661Y009376D02*
X021966Y009376D01*
X022124Y009535D02*
X022743Y009535D01*
X022608Y009693D02*
X022283Y009693D01*
X022441Y009852D02*
X022542Y009852D01*
X022644Y010327D02*
X022670Y010327D01*
X022644Y010486D02*
X022897Y010486D01*
X022644Y010644D02*
X024112Y010644D01*
X024112Y010486D02*
X023290Y010486D01*
X023517Y010327D02*
X024112Y010327D01*
X024112Y010169D02*
X023610Y010169D01*
X023648Y010010D02*
X024112Y010010D01*
X024112Y009852D02*
X023645Y009852D01*
X023580Y009693D02*
X024112Y009693D01*
X024112Y009535D02*
X023445Y009535D01*
X023526Y009376D02*
X024112Y009376D01*
X024112Y009218D02*
X023614Y009218D01*
X023648Y009059D02*
X024112Y009059D01*
X024112Y008901D02*
X023642Y008901D01*
X023576Y008742D02*
X024112Y008742D01*
X024112Y008584D02*
X023436Y008584D01*
X024432Y008584D02*
X029460Y008584D01*
X029460Y008742D02*
X024432Y008742D01*
X024432Y008901D02*
X029460Y008901D01*
X029460Y009059D02*
X024432Y009059D01*
X024432Y009218D02*
X029460Y009218D01*
X029460Y009376D02*
X024432Y009376D01*
X024432Y009535D02*
X029460Y009535D01*
X029460Y009693D02*
X024432Y009693D01*
X024432Y009852D02*
X029460Y009852D01*
X029460Y010010D02*
X024432Y010010D01*
X024432Y010169D02*
X029460Y010169D01*
X029460Y010327D02*
X024432Y010327D01*
X024432Y010486D02*
X029460Y010486D01*
X029460Y010644D02*
X027678Y010644D01*
X027524Y010490D02*
X027887Y010853D01*
X027887Y011367D01*
X027524Y011730D01*
X027100Y011730D01*
X027100Y011947D01*
X027524Y011947D01*
X027887Y012310D01*
X027887Y012824D01*
X027524Y013187D01*
X027010Y013187D01*
X026647Y012824D01*
X026647Y012459D01*
X026223Y012459D01*
X025911Y012147D01*
X025699Y012358D01*
X025288Y012358D01*
X024998Y012068D01*
X024998Y011657D01*
X025288Y011366D01*
X025699Y011366D01*
X025887Y011554D01*
X026223Y011219D01*
X026647Y011219D01*
X026647Y010853D01*
X027010Y010490D01*
X027524Y010490D01*
X027836Y010803D02*
X029460Y010803D01*
X029460Y010961D02*
X027887Y010961D01*
X027887Y011120D02*
X029460Y011120D01*
X029453Y011219D02*
X029460Y011226D01*
X029460Y006743D01*
X029453Y006750D01*
X028939Y006750D01*
X028622Y006433D01*
X028521Y006534D01*
X028346Y006606D01*
X028156Y006606D01*
X027981Y006534D01*
X027847Y006400D01*
X027775Y006225D01*
X027775Y006035D01*
X027847Y005860D01*
X027981Y005726D01*
X028156Y005654D01*
X028346Y005654D01*
X028521Y005726D01*
X028622Y005827D01*
X028939Y005510D01*
X029453Y005510D01*
X029460Y005517D01*
X029460Y002599D01*
X029408Y002547D01*
X024432Y002547D01*
X024432Y015579D01*
X026555Y015579D01*
X026555Y015489D01*
X026983Y015489D01*
X026983Y015393D01*
X027079Y015393D01*
X027079Y015489D01*
X027506Y015489D01*
X027506Y015579D01*
X029182Y015579D01*
X029460Y015301D01*
X029460Y014938D01*
X029437Y014993D01*
X029193Y015237D01*
X028873Y015370D01*
X028527Y015370D01*
X028207Y015237D01*
X027963Y014993D01*
X027830Y014673D01*
X027830Y014327D01*
X027963Y014007D01*
X028207Y013763D01*
X028527Y013630D01*
X028873Y013630D01*
X029193Y013763D01*
X029437Y014007D01*
X029460Y014062D01*
X029460Y012451D01*
X029453Y012459D01*
X028939Y012459D01*
X028622Y012141D01*
X028521Y012242D01*
X028346Y012315D01*
X028156Y012315D01*
X027981Y012242D01*
X027847Y012108D01*
X027775Y011933D01*
X027775Y011744D01*
X027847Y011569D01*
X027981Y011435D01*
X028156Y011362D01*
X028346Y011362D01*
X028521Y011435D01*
X028622Y011536D01*
X028939Y011219D01*
X029453Y011219D01*
X028880Y011278D02*
X027887Y011278D01*
X027817Y011437D02*
X027980Y011437D01*
X027837Y011595D02*
X027659Y011595D01*
X027775Y011754D02*
X027100Y011754D01*
X027100Y011912D02*
X027775Y011912D01*
X027832Y012071D02*
X027647Y012071D01*
X027806Y012229D02*
X027968Y012229D01*
X027887Y012388D02*
X028868Y012388D01*
X028710Y012229D02*
X028534Y012229D01*
X027887Y012546D02*
X029460Y012546D01*
X029460Y012705D02*
X027887Y012705D01*
X027848Y012863D02*
X029460Y012863D01*
X029460Y013022D02*
X027689Y013022D01*
X027531Y013180D02*
X029460Y013180D01*
X029460Y013339D02*
X025719Y013339D01*
X025699Y013358D02*
X025288Y013358D01*
X024998Y013068D01*
X024998Y012657D01*
X025288Y012366D01*
X025699Y012366D01*
X025990Y012657D01*
X025990Y013068D01*
X025699Y013358D01*
X025699Y013366D02*
X025990Y013657D01*
X025990Y014068D01*
X025699Y014358D01*
X025288Y014358D01*
X024998Y014068D01*
X024998Y013657D01*
X025288Y013366D01*
X025699Y013366D01*
X025830Y013497D02*
X029460Y013497D01*
X029460Y013656D02*
X028934Y013656D01*
X029244Y013814D02*
X029460Y013814D01*
X029460Y013973D02*
X029403Y013973D01*
X028466Y013656D02*
X025988Y013656D01*
X025990Y013814D02*
X028156Y013814D01*
X027997Y013973D02*
X025990Y013973D01*
X025926Y014131D02*
X027911Y014131D01*
X027846Y014290D02*
X025768Y014290D01*
X025220Y014290D02*
X024432Y014290D01*
X024432Y014448D02*
X027830Y014448D01*
X027830Y014607D02*
X024432Y014607D01*
X024432Y014765D02*
X027868Y014765D01*
X027934Y014924D02*
X024432Y014924D01*
X024432Y015082D02*
X026587Y015082D01*
X026591Y015075D02*
X026625Y015041D01*
X026666Y015017D01*
X026712Y015005D01*
X026983Y015005D01*
X026983Y015393D01*
X026555Y015393D01*
X026555Y015161D01*
X026568Y015116D01*
X026591Y015075D01*
X026555Y015241D02*
X024432Y015241D01*
X024432Y015399D02*
X026983Y015399D01*
X027079Y015399D02*
X029362Y015399D01*
X029460Y015241D02*
X029185Y015241D01*
X029348Y015082D02*
X029460Y015082D01*
X029203Y015558D02*
X027506Y015558D01*
X027506Y015393D02*
X027506Y015161D01*
X027494Y015116D01*
X027470Y015075D01*
X027437Y015041D01*
X027395Y015017D01*
X027350Y015005D01*
X027079Y015005D01*
X027079Y015393D01*
X027506Y015393D01*
X027506Y015241D02*
X028215Y015241D01*
X028052Y015082D02*
X027474Y015082D01*
X027079Y015082D02*
X026983Y015082D01*
X026983Y015241D02*
X027079Y015241D01*
X026555Y015558D02*
X024432Y015558D01*
X024112Y015558D02*
X023611Y015558D01*
X023648Y015647D02*
X023563Y015443D01*
X023408Y015288D01*
X023204Y015203D01*
X022983Y015203D01*
X022780Y015288D01*
X022624Y015443D01*
X022540Y015647D01*
X022540Y015867D01*
X022624Y016071D01*
X022780Y016227D01*
X022983Y016311D01*
X023204Y016311D01*
X023408Y016227D01*
X023563Y016071D01*
X023648Y015867D01*
X023648Y015647D01*
X023648Y015716D02*
X024143Y015716D01*
X024310Y015875D02*
X023645Y015875D01*
X023579Y016033D02*
X026555Y016033D01*
X026555Y016350D02*
X014895Y016350D01*
X014954Y016409D02*
X014954Y016740D01*
X014720Y016975D01*
X014389Y016975D01*
X014154Y016740D01*
X014154Y016458D01*
X012067Y014370D01*
X012067Y009599D01*
X011909Y009441D01*
X011909Y007821D01*
X011659Y008071D01*
X011444Y008071D01*
X011229Y008071D01*
X010924Y007766D01*
X010924Y007551D01*
X011444Y007551D01*
X011444Y008071D01*
X011444Y007551D01*
X011444Y007551D01*
X011444Y007551D01*
X010924Y007551D01*
X010924Y007335D01*
X011229Y007031D01*
X011444Y007031D01*
X011444Y007551D01*
X011444Y007551D01*
X011444Y007031D01*
X011659Y007031D01*
X011909Y007281D01*
X011909Y005771D01*
X012027Y005654D01*
X012198Y005483D01*
X012244Y005365D01*
X012244Y005362D01*
X012266Y005310D01*
X012295Y005235D01*
X012316Y005226D01*
X012373Y005168D01*
X012483Y005123D01*
X012602Y005123D01*
X012712Y005168D01*
X012796Y005252D01*
X012841Y005362D01*
X012841Y005481D01*
X012796Y005590D01*
X012738Y005648D01*
X012729Y005669D01*
X012729Y005669D01*
X012686Y005686D01*
X012654Y005698D01*
X012602Y005720D01*
X012599Y005720D01*
X012480Y005766D01*
X012309Y005937D01*
X012309Y009275D01*
X012467Y009433D01*
X012467Y014205D01*
X014437Y016175D01*
X014720Y016175D01*
X014954Y016409D01*
X014954Y016509D02*
X026566Y016509D01*
X026983Y016509D02*
X027079Y016509D01*
X027079Y016350D02*
X026983Y016350D01*
X026983Y016192D02*
X023443Y016192D01*
X022745Y016192D02*
X014737Y016192D01*
X014295Y016033D02*
X020678Y016033D01*
X020519Y015875D02*
X014877Y015875D01*
X014554Y015875D02*
X014554Y015875D01*
X014554Y015716D02*
X014554Y015716D01*
X014554Y015558D02*
X014554Y015558D01*
X014554Y015399D02*
X014554Y015399D01*
X014554Y015241D02*
X014554Y015241D01*
X014266Y015241D02*
X013503Y015241D01*
X013661Y015399D02*
X014114Y015399D01*
X014114Y015558D02*
X013820Y015558D01*
X013978Y015716D02*
X014114Y015716D01*
X014137Y015875D02*
X014232Y015875D01*
X013888Y016192D02*
X011737Y016192D01*
X011720Y016175D02*
X011954Y016409D01*
X011954Y016740D01*
X011720Y016975D01*
X011389Y016975D01*
X011154Y016740D01*
X011154Y016409D01*
X011389Y016175D01*
X011720Y016175D01*
X011720Y015975D02*
X011389Y015975D01*
X011154Y015740D01*
X011154Y015409D01*
X011389Y015175D01*
X011720Y015175D01*
X011954Y015409D01*
X011954Y015740D01*
X011720Y015975D01*
X011820Y015875D02*
X013571Y015875D01*
X013730Y016033D02*
X005053Y016033D01*
X005214Y016192D02*
X011372Y016192D01*
X011213Y016350D02*
X005375Y016350D01*
X005536Y016509D02*
X011154Y016509D01*
X011154Y016667D02*
X005697Y016667D01*
X005858Y016826D02*
X011239Y016826D01*
X011389Y017175D02*
X011720Y017175D01*
X011954Y017409D01*
X011954Y017740D01*
X011720Y017975D01*
X011389Y017975D01*
X011154Y017740D01*
X011154Y017409D01*
X011389Y017175D01*
X011262Y017301D02*
X006341Y017301D01*
X006476Y017460D02*
X011154Y017460D01*
X011154Y017618D02*
X006504Y017618D01*
X006438Y017777D02*
X011190Y017777D01*
X011349Y017935D02*
X002880Y017935D01*
X002880Y017777D02*
X005969Y017777D01*
X005808Y017618D02*
X002880Y017618D01*
X002880Y017460D02*
X005647Y017460D01*
X005486Y017301D02*
X002880Y017301D01*
X002880Y017143D02*
X005325Y017143D01*
X005164Y016984D02*
X002880Y016984D01*
X002880Y016826D02*
X005003Y016826D01*
X004842Y016667D02*
X002880Y016667D01*
X002880Y016509D02*
X004680Y016509D01*
X004519Y016350D02*
X002880Y016350D01*
X002880Y016192D02*
X004358Y016192D01*
X004197Y016033D02*
X002880Y016033D01*
X002880Y015875D02*
X004036Y015875D01*
X003875Y015716D02*
X002880Y015716D01*
X002880Y015558D02*
X003714Y015558D01*
X003553Y015399D02*
X002880Y015399D01*
X002880Y015241D02*
X003463Y015241D01*
X003463Y015082D02*
X002880Y015082D01*
X002880Y014924D02*
X003463Y014924D01*
X003463Y014765D02*
X002880Y014765D01*
X002880Y014607D02*
X003463Y014607D01*
X003463Y014448D02*
X002880Y014448D01*
X002880Y014290D02*
X003463Y014290D01*
X003463Y014131D02*
X002880Y014131D01*
X002880Y013973D02*
X003463Y013973D01*
X003463Y013814D02*
X002880Y013814D01*
X002880Y013656D02*
X003463Y013656D01*
X003463Y013497D02*
X002880Y013497D01*
X002880Y013339D02*
X003463Y013339D01*
X003463Y013180D02*
X002880Y013180D01*
X002880Y013022D02*
X003463Y013022D01*
X003463Y012863D02*
X002880Y012863D01*
X002880Y012705D02*
X003463Y012705D01*
X003463Y012546D02*
X002880Y012546D01*
X002880Y012388D02*
X003463Y012388D01*
X003463Y012229D02*
X002880Y012229D01*
X002880Y012071D02*
X003463Y012071D01*
X003463Y011912D02*
X002880Y011912D01*
X002880Y011754D02*
X003463Y011754D01*
X003463Y011595D02*
X002880Y011595D01*
X002880Y011437D02*
X003463Y011437D01*
X003463Y011278D02*
X002880Y011278D01*
X002880Y011120D02*
X003463Y011120D01*
X003463Y010961D02*
X002880Y010961D01*
X002880Y010803D02*
X003463Y010803D01*
X003463Y010644D02*
X002880Y010644D01*
X002880Y010486D02*
X003463Y010486D01*
X003463Y010327D02*
X002880Y010327D01*
X002880Y010169D02*
X003463Y010169D01*
X003463Y010010D02*
X002880Y010010D01*
X002880Y009852D02*
X003463Y009852D01*
X003463Y009693D02*
X002880Y009693D01*
X002880Y009535D02*
X003463Y009535D01*
X003463Y009376D02*
X002880Y009376D01*
X002880Y009218D02*
X003463Y009218D01*
X003463Y009059D02*
X002880Y009059D01*
X002880Y008901D02*
X003463Y008901D01*
X003463Y008742D02*
X002880Y008742D01*
X002880Y008584D02*
X003463Y008584D01*
X003463Y008425D02*
X002880Y008425D01*
X002880Y008267D02*
X003463Y008267D01*
X003463Y008108D02*
X002880Y008108D01*
X002880Y007950D02*
X003463Y007950D01*
X003463Y007791D02*
X002880Y007791D01*
X002880Y007633D02*
X003463Y007633D01*
X003463Y007474D02*
X002880Y007474D01*
X002880Y007316D02*
X003463Y007316D01*
X003463Y007157D02*
X002880Y007157D01*
X002880Y006999D02*
X003463Y006999D01*
X003463Y006840D02*
X002880Y006840D01*
X002880Y006682D02*
X003463Y006682D01*
X003463Y006523D02*
X002880Y006523D01*
X002880Y006365D02*
X003463Y006365D01*
X003463Y006206D02*
X002880Y006206D01*
X002880Y006048D02*
X003463Y006048D01*
X003463Y005889D02*
X002880Y005889D01*
X002880Y005731D02*
X003463Y005731D01*
X003463Y005572D02*
X002880Y005572D01*
X002880Y005414D02*
X003463Y005414D01*
X003463Y005255D02*
X002880Y005255D01*
X002880Y005097D02*
X003463Y005097D01*
X003463Y004938D02*
X002880Y004938D01*
X002880Y004780D02*
X003463Y004780D01*
X003463Y004621D02*
X002880Y004621D01*
X002880Y004463D02*
X003463Y004463D01*
X003463Y004304D02*
X002880Y004304D01*
X002880Y004146D02*
X003463Y004146D01*
X003463Y003987D02*
X002880Y003987D01*
X002880Y003829D02*
X003463Y003829D01*
X003463Y003670D02*
X002880Y003670D01*
X002880Y003512D02*
X003463Y003512D01*
X003463Y003353D02*
X002880Y003353D01*
X002880Y003195D02*
X003463Y003195D01*
X003463Y003036D02*
X002880Y003036D01*
X002880Y002878D02*
X003463Y002878D01*
X003463Y002719D02*
X002880Y002719D01*
X002880Y002561D02*
X003463Y002561D01*
X003463Y002402D02*
X002880Y002402D01*
X002880Y002244D02*
X003524Y002244D01*
X003683Y002085D02*
X002880Y002085D01*
X002880Y001927D02*
X003841Y001927D01*
X004018Y001768D02*
X002880Y001768D01*
X002880Y001610D02*
X007390Y001610D01*
X007390Y001661D02*
X007390Y001339D01*
X007513Y001041D01*
X007741Y000813D01*
X008039Y000690D01*
X008361Y000690D01*
X008659Y000813D01*
X008887Y001041D01*
X009010Y001339D01*
X009010Y001661D01*
X008887Y001959D01*
X008659Y002187D01*
X008361Y002310D01*
X008039Y002310D01*
X007741Y002187D01*
X007513Y001959D01*
X007390Y001661D01*
X007434Y001768D02*
X007287Y001768D01*
X007464Y001927D02*
X007500Y001927D01*
X007623Y002085D02*
X007640Y002085D01*
X007806Y002244D02*
X007879Y002244D01*
X007979Y002402D02*
X008760Y002402D01*
X008918Y002244D02*
X008521Y002244D01*
X008760Y002085D02*
X009077Y002085D01*
X009132Y001927D02*
X008900Y001927D01*
X008966Y001768D02*
X009132Y001768D01*
X009132Y001610D02*
X009010Y001610D01*
X009010Y001451D02*
X009132Y001451D01*
X009132Y001293D02*
X008991Y001293D01*
X008925Y001134D02*
X009132Y001134D01*
X009172Y000976D02*
X008821Y000976D01*
X008662Y000817D02*
X009321Y000817D01*
X009852Y001134D02*
X015401Y001134D01*
X015243Y001293D02*
X009732Y001293D01*
X009732Y001451D02*
X015230Y001451D01*
X015230Y001610D02*
X009732Y001610D01*
X009732Y001768D02*
X015303Y001768D01*
X015462Y001927D02*
X009732Y001927D01*
X009732Y002085D02*
X028254Y002085D01*
X028254Y001927D02*
X027938Y001927D01*
X027895Y001970D02*
X027505Y001970D01*
X027230Y001695D01*
X027230Y001305D01*
X027505Y001030D01*
X027895Y001030D01*
X028170Y001305D01*
X028170Y001695D01*
X027895Y001970D01*
X028097Y001768D02*
X028254Y001768D01*
X028253Y001610D02*
X028170Y001610D01*
X028170Y001451D02*
X028253Y001451D01*
X028253Y001293D02*
X028157Y001293D01*
X028253Y001134D02*
X027999Y001134D01*
X028252Y000976D02*
X018000Y000976D01*
X018000Y001134D02*
X018345Y001134D01*
X018489Y000990D02*
X018682Y000990D01*
X018682Y001482D01*
X018718Y001482D01*
X018718Y000990D01*
X018911Y000990D01*
X019200Y001279D01*
X019489Y000990D01*
X019682Y000990D01*
X019682Y001482D01*
X019718Y001482D01*
X019718Y001518D01*
X019682Y001518D01*
X019682Y002010D01*
X019489Y002010D01*
X019200Y001721D01*
X018911Y002010D01*
X018718Y002010D01*
X018718Y001518D01*
X018682Y001518D01*
X018682Y002010D01*
X018489Y002010D01*
X018190Y001711D01*
X018190Y001518D01*
X018682Y001518D01*
X018682Y001482D01*
X018190Y001482D01*
X018190Y001289D01*
X018489Y000990D01*
X018682Y001134D02*
X018718Y001134D01*
X018718Y001293D02*
X018682Y001293D01*
X018682Y001451D02*
X018718Y001451D01*
X018718Y001482D02*
X018718Y001518D01*
X019210Y001518D01*
X019682Y001518D01*
X019682Y001482D01*
X018718Y001482D01*
X018718Y001610D02*
X018682Y001610D01*
X018682Y001768D02*
X018718Y001768D01*
X018718Y001927D02*
X018682Y001927D01*
X018405Y001927D02*
X017938Y001927D01*
X018097Y001768D02*
X018247Y001768D01*
X018190Y001610D02*
X018170Y001610D01*
X018170Y001451D02*
X018190Y001451D01*
X018190Y001293D02*
X018157Y001293D01*
X017960Y000817D02*
X028252Y000817D01*
X027401Y001134D02*
X026999Y001134D01*
X026895Y001030D02*
X027170Y001305D01*
X027170Y001695D01*
X026895Y001970D01*
X026505Y001970D01*
X026230Y001695D01*
X026230Y001305D01*
X026505Y001030D01*
X026895Y001030D01*
X027157Y001293D02*
X027243Y001293D01*
X027230Y001451D02*
X027170Y001451D01*
X027170Y001610D02*
X027230Y001610D01*
X027303Y001768D02*
X027097Y001768D01*
X026938Y001927D02*
X027462Y001927D01*
X026462Y001927D02*
X025938Y001927D01*
X025895Y001970D02*
X025505Y001970D01*
X025230Y001695D01*
X025230Y001305D01*
X025505Y001030D01*
X025895Y001030D01*
X026170Y001305D01*
X026170Y001695D01*
X025895Y001970D01*
X026097Y001768D02*
X026303Y001768D01*
X026230Y001610D02*
X026170Y001610D01*
X026170Y001451D02*
X026230Y001451D01*
X026243Y001293D02*
X026157Y001293D01*
X025999Y001134D02*
X026401Y001134D01*
X025401Y001134D02*
X024999Y001134D01*
X024895Y001030D02*
X025170Y001305D01*
X025170Y001695D01*
X024895Y001970D01*
X024505Y001970D01*
X024230Y001695D01*
X024230Y001305D01*
X024505Y001030D01*
X024895Y001030D01*
X025157Y001293D02*
X025243Y001293D01*
X025230Y001451D02*
X025170Y001451D01*
X025170Y001610D02*
X025230Y001610D01*
X025303Y001768D02*
X025097Y001768D01*
X024938Y001927D02*
X025462Y001927D01*
X024462Y001927D02*
X023938Y001927D01*
X023895Y001970D02*
X023505Y001970D01*
X023230Y001695D01*
X023230Y001305D01*
X023505Y001030D01*
X023895Y001030D01*
X024170Y001305D01*
X024170Y001695D01*
X023895Y001970D01*
X024097Y001768D02*
X024303Y001768D01*
X024230Y001610D02*
X024170Y001610D01*
X024170Y001451D02*
X024230Y001451D01*
X024243Y001293D02*
X024157Y001293D01*
X023999Y001134D02*
X024401Y001134D01*
X023462Y001927D02*
X022938Y001927D01*
X022895Y001970D02*
X022505Y001970D01*
X022230Y001695D01*
X022230Y001305D01*
X022505Y001030D01*
X022895Y001030D01*
X023170Y001305D01*
X023170Y001695D01*
X022895Y001970D01*
X023097Y001768D02*
X023303Y001768D01*
X023230Y001610D02*
X023170Y001610D01*
X023170Y001451D02*
X023230Y001451D01*
X023243Y001293D02*
X023157Y001293D01*
X022999Y001134D02*
X023401Y001134D01*
X022401Y001134D02*
X020999Y001134D01*
X020895Y001030D02*
X021170Y001305D01*
X021170Y001695D01*
X020895Y001970D01*
X020505Y001970D01*
X020230Y001695D01*
X020230Y001305D01*
X020505Y001030D01*
X020895Y001030D01*
X021157Y001293D02*
X022243Y001293D01*
X022230Y001451D02*
X021170Y001451D01*
X021170Y001610D02*
X022230Y001610D01*
X022303Y001768D02*
X021097Y001768D01*
X020938Y001927D02*
X022462Y001927D01*
X024146Y002402D02*
X009608Y002402D01*
X009720Y002244D02*
X024329Y002244D01*
X024432Y002561D02*
X029421Y002561D01*
X029460Y002719D02*
X024432Y002719D01*
X024432Y002878D02*
X029460Y002878D01*
X029460Y003036D02*
X024432Y003036D01*
X024432Y003195D02*
X029460Y003195D01*
X029460Y003353D02*
X024432Y003353D01*
X024432Y003512D02*
X029460Y003512D01*
X029460Y003670D02*
X024432Y003670D01*
X024432Y003829D02*
X029460Y003829D01*
X029460Y003987D02*
X024432Y003987D01*
X024432Y004146D02*
X029460Y004146D01*
X029460Y004304D02*
X024432Y004304D01*
X024432Y004463D02*
X029460Y004463D01*
X029460Y004621D02*
X024432Y004621D01*
X024432Y004780D02*
X025143Y004780D01*
X024998Y004925D02*
X025288Y004634D01*
X025699Y004634D01*
X025990Y004925D01*
X025990Y005335D01*
X025699Y005626D01*
X025288Y005626D01*
X024998Y005335D01*
X024998Y004925D01*
X024998Y004938D02*
X024432Y004938D01*
X024432Y005097D02*
X024998Y005097D01*
X024998Y005255D02*
X024432Y005255D01*
X024432Y005414D02*
X025076Y005414D01*
X025234Y005572D02*
X024432Y005572D01*
X024432Y005731D02*
X025192Y005731D01*
X025288Y005634D02*
X025699Y005634D01*
X025899Y005834D01*
X026223Y005510D01*
X026647Y005510D01*
X026647Y005145D01*
X027010Y004782D01*
X027524Y004782D01*
X027887Y005145D01*
X027887Y005658D01*
X027524Y006022D01*
X027100Y006022D01*
X027100Y006238D01*
X027524Y006238D01*
X027887Y006601D01*
X027887Y007115D01*
X027524Y007478D01*
X027010Y007478D01*
X026647Y007115D01*
X026647Y006750D01*
X026223Y006750D01*
X025899Y006426D01*
X025699Y006626D01*
X025288Y006626D01*
X024998Y006335D01*
X024998Y005925D01*
X025288Y005634D01*
X025033Y005889D02*
X024432Y005889D01*
X024432Y006048D02*
X024998Y006048D01*
X024998Y006206D02*
X024432Y006206D01*
X024432Y006365D02*
X025027Y006365D01*
X025185Y006523D02*
X024432Y006523D01*
X024432Y006682D02*
X025241Y006682D01*
X025288Y006634D02*
X025699Y006634D01*
X025990Y006925D01*
X025990Y007335D01*
X025699Y007626D01*
X025288Y007626D01*
X024998Y007335D01*
X024998Y006925D01*
X025288Y006634D01*
X025082Y006840D02*
X024432Y006840D01*
X024432Y006999D02*
X024998Y006999D01*
X024998Y007157D02*
X024432Y007157D01*
X024432Y007316D02*
X024998Y007316D01*
X025136Y007474D02*
X024432Y007474D01*
X024432Y007633D02*
X029460Y007633D01*
X029460Y007791D02*
X024432Y007791D01*
X024432Y007950D02*
X029460Y007950D01*
X029460Y008108D02*
X024432Y008108D01*
X024432Y008267D02*
X029460Y008267D01*
X029460Y008425D02*
X024432Y008425D01*
X025851Y007474D02*
X027006Y007474D01*
X026847Y007316D02*
X025990Y007316D01*
X025990Y007157D02*
X026689Y007157D01*
X026647Y006999D02*
X025990Y006999D01*
X025905Y006840D02*
X026647Y006840D01*
X026154Y006682D02*
X025747Y006682D01*
X025802Y006523D02*
X025996Y006523D01*
X026002Y005731D02*
X025796Y005731D01*
X025753Y005572D02*
X026161Y005572D01*
X025911Y005414D02*
X026647Y005414D01*
X026647Y005255D02*
X025990Y005255D01*
X025990Y005097D02*
X026695Y005097D01*
X026854Y004938D02*
X025990Y004938D01*
X025845Y004780D02*
X029460Y004780D01*
X029460Y004938D02*
X027680Y004938D01*
X027839Y005097D02*
X029460Y005097D01*
X029460Y005255D02*
X027887Y005255D01*
X027887Y005414D02*
X029460Y005414D01*
X028877Y005572D02*
X027887Y005572D01*
X027815Y005731D02*
X027977Y005731D01*
X027836Y005889D02*
X027656Y005889D01*
X027775Y006048D02*
X027100Y006048D01*
X027100Y006206D02*
X027775Y006206D01*
X027833Y006365D02*
X027650Y006365D01*
X027808Y006523D02*
X027971Y006523D01*
X027887Y006682D02*
X028871Y006682D01*
X028712Y006523D02*
X028532Y006523D01*
X027887Y006840D02*
X029460Y006840D01*
X029460Y006999D02*
X027887Y006999D01*
X027845Y007157D02*
X029460Y007157D01*
X029460Y007316D02*
X027686Y007316D01*
X027528Y007474D02*
X029460Y007474D01*
X028719Y005731D02*
X028525Y005731D01*
X022609Y003512D02*
X020544Y003512D01*
X020636Y003353D02*
X022543Y003353D01*
X020462Y001927D02*
X019995Y001927D01*
X019911Y002010D02*
X019718Y002010D01*
X019718Y001518D01*
X020210Y001518D01*
X020210Y001711D01*
X019911Y002010D01*
X019718Y001927D02*
X019682Y001927D01*
X019682Y001768D02*
X019718Y001768D01*
X019718Y001610D02*
X019682Y001610D01*
X019718Y001482D02*
X020210Y001482D01*
X020210Y001289D01*
X019911Y000990D01*
X019718Y000990D01*
X019718Y001482D01*
X019718Y001451D02*
X019682Y001451D01*
X019682Y001293D02*
X019718Y001293D01*
X019718Y001134D02*
X019682Y001134D01*
X019345Y001134D02*
X019055Y001134D01*
X019153Y001768D02*
X019247Y001768D01*
X019405Y001927D02*
X018995Y001927D01*
X020055Y001134D02*
X020401Y001134D01*
X020243Y001293D02*
X020210Y001293D01*
X020210Y001451D02*
X020230Y001451D01*
X020230Y001610D02*
X020210Y001610D01*
X020153Y001768D02*
X020303Y001768D01*
X020087Y003512D02*
X018200Y003512D01*
X018054Y004146D02*
X018661Y004146D01*
X018502Y004304D02*
X018213Y004304D01*
X018297Y004463D02*
X018417Y004463D01*
X018417Y004621D02*
X018297Y004621D01*
X018371Y004780D02*
X018444Y004780D01*
X016661Y004146D02*
X008669Y004146D01*
X008668Y004304D02*
X016502Y004304D01*
X016417Y004463D02*
X008571Y004463D01*
X008167Y004463D02*
X004063Y004463D01*
X004063Y004621D02*
X016383Y004621D01*
X016225Y004780D02*
X004063Y004780D01*
X004063Y004938D02*
X016066Y004938D01*
X015908Y005097D02*
X004063Y005097D01*
X004063Y005255D02*
X012287Y005255D01*
X012295Y005235D02*
X012295Y005235D01*
X012295Y005235D01*
X012225Y005414D02*
X004063Y005414D01*
X004063Y005572D02*
X012109Y005572D01*
X011950Y005731D02*
X004063Y005731D01*
X004063Y005889D02*
X011909Y005889D01*
X011909Y006048D02*
X004063Y006048D01*
X004063Y006206D02*
X011909Y006206D01*
X011909Y006365D02*
X004063Y006365D01*
X004063Y006523D02*
X011909Y006523D01*
X011909Y006682D02*
X004063Y006682D01*
X004063Y006840D02*
X011909Y006840D01*
X011909Y006999D02*
X004063Y006999D01*
X004063Y007157D02*
X008159Y007157D01*
X008245Y007071D02*
X008643Y007071D01*
X008924Y007352D01*
X008924Y007750D01*
X008643Y008031D01*
X008245Y008031D01*
X007964Y007750D01*
X007964Y007352D01*
X008245Y007071D01*
X008001Y007316D02*
X004063Y007316D01*
X004063Y007474D02*
X007964Y007474D01*
X007964Y007633D02*
X004063Y007633D01*
X004063Y007791D02*
X008005Y007791D01*
X008164Y007950D02*
X004063Y007950D01*
X004063Y008108D02*
X011909Y008108D01*
X011909Y007950D02*
X011781Y007950D01*
X011444Y007950D02*
X011444Y007950D01*
X011444Y007791D02*
X011444Y007791D01*
X011444Y007633D02*
X011444Y007633D01*
X011444Y007474D02*
X011444Y007474D01*
X011444Y007316D02*
X011444Y007316D01*
X011444Y007157D02*
X011444Y007157D01*
X011786Y007157D02*
X011909Y007157D01*
X012309Y007157D02*
X013561Y007157D01*
X013556Y007162D02*
X013823Y006895D01*
X014199Y006895D01*
X014466Y007162D01*
X014466Y007539D01*
X014199Y007805D01*
X013823Y007805D01*
X013556Y007539D01*
X013556Y007162D01*
X013556Y007316D02*
X012309Y007316D01*
X012309Y007474D02*
X013556Y007474D01*
X013650Y007633D02*
X012309Y007633D01*
X012309Y007791D02*
X013808Y007791D01*
X014214Y007791D02*
X014808Y007791D01*
X014823Y007805D02*
X014556Y007539D01*
X014556Y007162D01*
X014823Y006895D01*
X015199Y006895D01*
X015466Y007162D01*
X015466Y007539D01*
X015199Y007805D01*
X014823Y007805D01*
X014650Y007633D02*
X014372Y007633D01*
X014466Y007474D02*
X014556Y007474D01*
X014556Y007316D02*
X014466Y007316D01*
X014461Y007157D02*
X014561Y007157D01*
X014719Y006999D02*
X014303Y006999D01*
X013719Y006999D02*
X012309Y006999D01*
X012309Y006840D02*
X015668Y006840D01*
X015668Y006682D02*
X012309Y006682D01*
X012309Y006523D02*
X015668Y006523D01*
X015668Y006365D02*
X012309Y006365D01*
X012309Y006206D02*
X015668Y006206D01*
X015668Y006048D02*
X012309Y006048D01*
X012358Y005889D02*
X015668Y005889D01*
X015668Y005731D02*
X012571Y005731D01*
X012729Y005669D02*
X012729Y005669D01*
X012803Y005572D02*
X015668Y005572D01*
X015668Y005414D02*
X012841Y005414D01*
X012797Y005255D02*
X015749Y005255D01*
X015668Y006999D02*
X015303Y006999D01*
X015461Y007157D02*
X015668Y007157D01*
X015668Y007316D02*
X015466Y007316D01*
X015466Y007474D02*
X015668Y007474D01*
X015668Y007633D02*
X015372Y007633D01*
X015214Y007791D02*
X015711Y007791D01*
X015867Y007950D02*
X012309Y007950D01*
X012309Y008108D02*
X016025Y008108D01*
X016184Y008267D02*
X012309Y008267D01*
X012309Y008425D02*
X016342Y008425D01*
X016417Y008584D02*
X012309Y008584D01*
X012309Y008742D02*
X013849Y008742D01*
X013713Y008878D02*
X014003Y008588D01*
X014208Y008588D01*
X014413Y008588D01*
X014703Y008878D01*
X014703Y009083D01*
X014703Y009288D01*
X014413Y009578D01*
X014208Y009578D01*
X014208Y009083D01*
X014208Y009083D01*
X014703Y009083D01*
X014208Y009083D01*
X014208Y009083D01*
X014208Y009578D01*
X014003Y009578D01*
X013713Y009288D01*
X013713Y009083D01*
X014208Y009083D01*
X014208Y009083D01*
X014208Y008588D01*
X014208Y009083D01*
X014208Y009083D01*
X013713Y009083D01*
X013713Y008878D01*
X013713Y008901D02*
X012309Y008901D01*
X012309Y009059D02*
X013713Y009059D01*
X013713Y009218D02*
X012309Y009218D01*
X012410Y009376D02*
X013801Y009376D01*
X013960Y009535D02*
X012467Y009535D01*
X012467Y009693D02*
X016557Y009693D01*
X016557Y009535D02*
X015400Y009535D01*
X015396Y009538D02*
X015019Y009538D01*
X014753Y009271D01*
X014753Y008894D01*
X015019Y008628D01*
X015396Y008628D01*
X015663Y008894D01*
X015663Y009271D01*
X015396Y009538D01*
X015558Y009376D02*
X016557Y009376D01*
X016557Y009218D02*
X015663Y009218D01*
X015663Y009059D02*
X016557Y009059D01*
X016557Y008901D02*
X015663Y008901D01*
X015511Y008742D02*
X016509Y008742D01*
X017157Y009218D02*
X020398Y009218D01*
X020556Y009376D02*
X017157Y009376D01*
X017157Y009535D02*
X020715Y009535D01*
X020873Y009693D02*
X017157Y009693D01*
X017157Y009852D02*
X021032Y009852D01*
X021190Y010010D02*
X017157Y010010D01*
X017157Y010169D02*
X021349Y010169D01*
X021507Y010327D02*
X017157Y010327D01*
X017157Y010486D02*
X021666Y010486D01*
X022129Y010327D02*
X022204Y010327D01*
X022136Y010169D02*
X021971Y010169D01*
X021978Y010010D02*
X021812Y010010D01*
X021819Y009852D02*
X021654Y009852D01*
X021661Y009693D02*
X021495Y009693D01*
X021502Y009535D02*
X021337Y009535D01*
X021344Y009376D02*
X021178Y009376D01*
X021185Y009218D02*
X021020Y009218D01*
X021141Y009059D02*
X020861Y009059D01*
X020703Y008901D02*
X021141Y008901D01*
X021141Y008742D02*
X019442Y008742D01*
X019297Y008584D02*
X021141Y008584D01*
X021141Y007791D02*
X020400Y007791D01*
X020559Y007633D02*
X021141Y007633D01*
X021141Y007474D02*
X020910Y007474D01*
X021068Y007316D02*
X021141Y007316D01*
X021141Y007157D02*
X021090Y007157D01*
X021090Y006999D02*
X021141Y006999D01*
X016557Y009852D02*
X012467Y009852D01*
X012467Y010010D02*
X016557Y010010D01*
X016557Y010169D02*
X012467Y010169D01*
X012467Y010327D02*
X016557Y010327D01*
X016557Y010486D02*
X015246Y010486D01*
X015121Y010360D02*
X015387Y010626D01*
X015387Y011003D01*
X015121Y011270D01*
X014744Y011270D01*
X014477Y011003D01*
X014477Y010626D01*
X014744Y010360D01*
X015121Y010360D01*
X015387Y010644D02*
X016557Y010644D01*
X016557Y010803D02*
X015387Y010803D01*
X015387Y010961D02*
X016420Y010961D01*
X016417Y011120D02*
X015271Y011120D01*
X014593Y011120D02*
X014271Y011120D01*
X014387Y011003D02*
X014121Y011270D01*
X013744Y011270D01*
X013477Y011003D01*
X013477Y010626D01*
X013744Y010360D01*
X014121Y010360D01*
X014387Y010626D01*
X014387Y011003D01*
X014387Y010961D02*
X014477Y010961D01*
X014477Y010803D02*
X014387Y010803D01*
X014387Y010644D02*
X014477Y010644D01*
X014618Y010486D02*
X014246Y010486D01*
X013618Y010486D02*
X012467Y010486D01*
X012467Y010644D02*
X013477Y010644D01*
X013477Y010803D02*
X012467Y010803D01*
X012467Y010961D02*
X013477Y010961D01*
X013593Y011120D02*
X012467Y011120D01*
X012467Y011278D02*
X016301Y011278D01*
X016142Y011437D02*
X012467Y011437D01*
X012467Y011595D02*
X015984Y011595D01*
X015825Y011754D02*
X012467Y011754D01*
X012467Y011912D02*
X015746Y011912D01*
X015746Y012071D02*
X012467Y012071D01*
X012467Y012229D02*
X015746Y012229D01*
X015746Y012388D02*
X012467Y012388D01*
X012467Y012546D02*
X015746Y012546D01*
X015746Y012705D02*
X012467Y012705D01*
X012467Y012863D02*
X015746Y012863D01*
X015746Y013022D02*
X012467Y013022D01*
X012467Y013180D02*
X015746Y013180D01*
X015746Y013339D02*
X012467Y013339D01*
X012467Y013497D02*
X015746Y013497D01*
X015746Y013656D02*
X015424Y013656D01*
X015357Y013588D02*
X015624Y013855D01*
X015624Y014232D01*
X015357Y014498D01*
X014980Y014498D01*
X014714Y014232D01*
X014714Y013855D01*
X014980Y013588D01*
X015357Y013588D01*
X015583Y013814D02*
X015746Y013814D01*
X015746Y013973D02*
X015624Y013973D01*
X015624Y014131D02*
X015746Y014131D01*
X015746Y014290D02*
X015566Y014290D01*
X015407Y014448D02*
X015775Y014448D01*
X015910Y014607D02*
X012869Y014607D01*
X013027Y014765D02*
X016068Y014765D01*
X016227Y014924D02*
X013186Y014924D01*
X013344Y015082D02*
X016385Y015082D01*
X016417Y015241D02*
X014842Y015241D01*
X014994Y015399D02*
X016512Y015399D01*
X014930Y014448D02*
X014464Y014448D01*
X014374Y014538D02*
X014169Y014538D01*
X014169Y014043D01*
X014169Y014043D01*
X014664Y014043D01*
X014664Y013838D01*
X014374Y013548D01*
X014169Y013548D01*
X014169Y014043D01*
X014168Y014043D01*
X013674Y014043D01*
X013674Y013838D01*
X013963Y013548D01*
X014168Y013548D01*
X014168Y014043D01*
X014168Y014043D01*
X013674Y014043D01*
X013674Y014248D01*
X013963Y014538D01*
X014168Y014538D01*
X014168Y014043D01*
X014169Y014043D01*
X014664Y014043D01*
X014664Y014248D01*
X014374Y014538D01*
X014169Y014448D02*
X014168Y014448D01*
X014168Y014290D02*
X014169Y014290D01*
X014168Y014131D02*
X014169Y014131D01*
X014168Y013973D02*
X014169Y013973D01*
X014168Y013814D02*
X014169Y013814D01*
X014168Y013656D02*
X014169Y013656D01*
X014481Y013656D02*
X014913Y013656D01*
X014754Y013814D02*
X014639Y013814D01*
X014664Y013973D02*
X014714Y013973D01*
X014714Y014131D02*
X014664Y014131D01*
X014622Y014290D02*
X014771Y014290D01*
X013873Y014448D02*
X012710Y014448D01*
X012552Y014290D02*
X013715Y014290D01*
X013674Y014131D02*
X012467Y014131D01*
X012467Y013973D02*
X013674Y013973D01*
X013698Y013814D02*
X012467Y013814D01*
X012467Y013656D02*
X013856Y013656D01*
X012462Y014765D02*
X004063Y014765D01*
X004063Y014607D02*
X012303Y014607D01*
X012145Y014448D02*
X004063Y014448D01*
X004063Y014290D02*
X012067Y014290D01*
X012067Y014131D02*
X004063Y014131D01*
X004063Y013973D02*
X012067Y013973D01*
X012067Y013814D02*
X004063Y013814D01*
X004063Y013656D02*
X012067Y013656D01*
X012067Y013497D02*
X004063Y013497D01*
X004063Y013339D02*
X012067Y013339D01*
X012067Y013180D02*
X004063Y013180D01*
X004063Y013022D02*
X012067Y013022D01*
X012067Y012863D02*
X004063Y012863D01*
X004063Y012705D02*
X012067Y012705D01*
X012067Y012546D02*
X004063Y012546D01*
X004063Y012388D02*
X012067Y012388D01*
X012067Y012229D02*
X004063Y012229D01*
X004063Y012071D02*
X012067Y012071D01*
X012067Y011912D02*
X004063Y011912D01*
X004063Y011754D02*
X012067Y011754D01*
X012067Y011595D02*
X004063Y011595D01*
X004063Y011437D02*
X012067Y011437D01*
X012067Y011278D02*
X011696Y011278D01*
X011643Y011331D02*
X011245Y011331D01*
X010964Y011050D01*
X010964Y010652D01*
X011245Y010371D01*
X011643Y010371D01*
X011924Y010652D01*
X011924Y011050D01*
X011643Y011331D01*
X011854Y011120D02*
X012067Y011120D01*
X012067Y010961D02*
X011924Y010961D01*
X011924Y010803D02*
X012067Y010803D01*
X012067Y010644D02*
X011916Y010644D01*
X012067Y010486D02*
X011758Y010486D01*
X012067Y010327D02*
X004063Y010327D01*
X004063Y010169D02*
X012067Y010169D01*
X012067Y010010D02*
X004063Y010010D01*
X004063Y009852D02*
X012067Y009852D01*
X012067Y009693D02*
X004063Y009693D01*
X004063Y009535D02*
X012003Y009535D01*
X011909Y009376D02*
X004063Y009376D01*
X004063Y009218D02*
X011909Y009218D01*
X011909Y009059D02*
X004063Y009059D01*
X004063Y008901D02*
X011909Y008901D01*
X011909Y008742D02*
X004063Y008742D01*
X004063Y008584D02*
X011909Y008584D01*
X011909Y008425D02*
X004063Y008425D01*
X004063Y008267D02*
X011909Y008267D01*
X011107Y007950D02*
X010724Y007950D01*
X010643Y008031D02*
X010245Y008031D01*
X009964Y007750D01*
X009964Y007352D01*
X010245Y007071D01*
X010643Y007071D01*
X010924Y007352D01*
X010924Y007750D01*
X010643Y008031D01*
X010883Y007791D02*
X010949Y007791D01*
X010924Y007633D02*
X010924Y007633D01*
X010944Y007316D02*
X010888Y007316D01*
X010729Y007157D02*
X011102Y007157D01*
X010159Y007157D02*
X009729Y007157D01*
X009643Y007071D02*
X009924Y007352D01*
X009924Y007750D01*
X009643Y008031D01*
X009245Y008031D01*
X008964Y007750D01*
X008964Y007352D01*
X009245Y007071D01*
X009643Y007071D01*
X009888Y007316D02*
X010001Y007316D01*
X009964Y007474D02*
X009924Y007474D01*
X009924Y007633D02*
X009964Y007633D01*
X010005Y007791D02*
X009883Y007791D01*
X009724Y007950D02*
X010164Y007950D01*
X009164Y007950D02*
X008724Y007950D01*
X008883Y007791D02*
X009005Y007791D01*
X008964Y007633D02*
X008924Y007633D01*
X008924Y007474D02*
X008964Y007474D01*
X009001Y007316D02*
X008888Y007316D01*
X008729Y007157D02*
X009159Y007157D01*
X008071Y004304D02*
X004063Y004304D01*
X004063Y004146D02*
X008069Y004146D01*
X008069Y003987D02*
X004063Y003987D01*
X004063Y003829D02*
X008069Y003829D01*
X008069Y003670D02*
X004063Y003670D01*
X004063Y003512D02*
X008069Y003512D01*
X008069Y003353D02*
X004063Y003353D01*
X004063Y003195D02*
X007923Y003195D01*
X007764Y003036D02*
X004063Y003036D01*
X004063Y002878D02*
X007606Y002878D01*
X007408Y002719D02*
X004063Y002719D01*
X004063Y002561D02*
X007250Y002561D01*
X007091Y002402D02*
X004214Y002402D01*
X002880Y001451D02*
X007390Y001451D01*
X007409Y001293D02*
X002880Y001293D01*
X002880Y001134D02*
X007475Y001134D01*
X007579Y000976D02*
X002880Y000976D01*
X002880Y000817D02*
X007738Y000817D01*
X008138Y002561D02*
X008601Y002561D01*
X008443Y002719D02*
X008296Y002719D01*
X015938Y001927D02*
X016462Y001927D01*
X016303Y001768D02*
X016097Y001768D01*
X016170Y001610D02*
X016230Y001610D01*
X016230Y001451D02*
X016170Y001451D01*
X016157Y001293D02*
X016243Y001293D01*
X016401Y001134D02*
X015999Y001134D01*
X016938Y001927D02*
X017462Y001927D01*
X017303Y001768D02*
X017097Y001768D01*
X017170Y001610D02*
X017230Y001610D01*
X017230Y001451D02*
X017170Y001451D01*
X017157Y001293D02*
X017243Y001293D01*
X017400Y001134D02*
X016999Y001134D01*
X020294Y003602D02*
X020294Y003602D01*
X020294Y003602D01*
X014905Y008742D02*
X014567Y008742D01*
X014703Y008901D02*
X014753Y008901D01*
X014753Y009059D02*
X014703Y009059D01*
X014703Y009218D02*
X014753Y009218D01*
X014858Y009376D02*
X014615Y009376D01*
X014456Y009535D02*
X015016Y009535D01*
X014208Y009535D02*
X014208Y009535D01*
X014208Y009376D02*
X014208Y009376D01*
X014208Y009218D02*
X014208Y009218D01*
X014208Y009059D02*
X014208Y009059D01*
X014208Y008901D02*
X014208Y008901D01*
X014208Y008742D02*
X014208Y008742D01*
X011131Y010486D02*
X010758Y010486D01*
X010643Y010371D02*
X010245Y010371D01*
X009964Y010652D01*
X009964Y011050D01*
X010245Y011331D01*
X010643Y011331D01*
X010924Y011050D01*
X010924Y010652D01*
X010643Y010371D01*
X010916Y010644D02*
X010972Y010644D01*
X010964Y010803D02*
X010924Y010803D01*
X010924Y010961D02*
X010964Y010961D01*
X011034Y011120D02*
X010854Y011120D01*
X010696Y011278D02*
X011193Y011278D01*
X010193Y011278D02*
X009696Y011278D01*
X009643Y011331D02*
X009245Y011331D01*
X008964Y011050D01*
X008964Y010652D01*
X009245Y010371D01*
X009643Y010371D01*
X009924Y010652D01*
X009924Y011050D01*
X009643Y011331D01*
X009854Y011120D02*
X010034Y011120D01*
X009964Y010961D02*
X009924Y010961D01*
X009924Y010803D02*
X009964Y010803D01*
X009972Y010644D02*
X009916Y010644D01*
X009758Y010486D02*
X010131Y010486D01*
X009131Y010486D02*
X008758Y010486D01*
X008643Y010371D02*
X008924Y010652D01*
X008924Y011050D01*
X008643Y011331D01*
X008245Y011331D01*
X007964Y011050D01*
X007964Y010652D01*
X008245Y010371D01*
X008643Y010371D01*
X008916Y010644D02*
X008972Y010644D01*
X008964Y010803D02*
X008924Y010803D01*
X008924Y010961D02*
X008964Y010961D01*
X009034Y011120D02*
X008854Y011120D01*
X008696Y011278D02*
X009193Y011278D01*
X008193Y011278D02*
X004063Y011278D01*
X004063Y011120D02*
X008034Y011120D01*
X007964Y010961D02*
X004063Y010961D01*
X004063Y010803D02*
X007964Y010803D01*
X007972Y010644D02*
X004063Y010644D01*
X004063Y010486D02*
X008131Y010486D01*
X004063Y014924D02*
X012620Y014924D01*
X012779Y015082D02*
X004086Y015082D01*
X004247Y015241D02*
X011323Y015241D01*
X011164Y015399D02*
X004408Y015399D01*
X004569Y015558D02*
X011154Y015558D01*
X011154Y015716D02*
X004730Y015716D01*
X004892Y015875D02*
X011288Y015875D01*
X011954Y015716D02*
X013413Y015716D01*
X013254Y015558D02*
X011954Y015558D01*
X011944Y015399D02*
X013096Y015399D01*
X012937Y015241D02*
X011786Y015241D01*
X011895Y016350D02*
X014047Y016350D01*
X014154Y016509D02*
X011954Y016509D01*
X011954Y016667D02*
X014154Y016667D01*
X014239Y016826D02*
X011869Y016826D01*
X011846Y017301D02*
X014262Y017301D01*
X014154Y017409D02*
X014389Y017175D01*
X014720Y017175D01*
X014954Y017409D01*
X014954Y017740D01*
X014720Y017975D01*
X014389Y017975D01*
X014154Y017740D01*
X014154Y017409D01*
X014154Y017460D02*
X011954Y017460D01*
X011954Y017618D02*
X014154Y017618D01*
X014190Y017777D02*
X011918Y017777D01*
X011760Y017935D02*
X014349Y017935D01*
X014389Y018175D02*
X014720Y018175D01*
X014954Y018409D01*
X014954Y018740D01*
X014720Y018975D01*
X014389Y018975D01*
X014154Y018740D01*
X014154Y018409D01*
X014389Y018175D01*
X014311Y018252D02*
X011797Y018252D01*
X011720Y018175D02*
X011954Y018409D01*
X011954Y018740D01*
X011720Y018975D01*
X011389Y018975D01*
X011154Y018740D01*
X011154Y018409D01*
X011389Y018175D01*
X011720Y018175D01*
X011954Y018411D02*
X014154Y018411D01*
X014154Y018569D02*
X011954Y018569D01*
X011954Y018728D02*
X014154Y018728D01*
X014300Y018886D02*
X011809Y018886D01*
X011300Y018886D02*
X002880Y018886D01*
X002880Y018728D02*
X011154Y018728D01*
X011154Y018569D02*
X002880Y018569D01*
X002880Y018411D02*
X011154Y018411D01*
X011311Y018252D02*
X002880Y018252D01*
X002880Y018094D02*
X028284Y018094D01*
X028284Y018252D02*
X014797Y018252D01*
X014954Y018411D02*
X028285Y018411D01*
X028285Y018569D02*
X014954Y018569D01*
X014954Y018728D02*
X028285Y018728D01*
X028286Y018886D02*
X014809Y018886D01*
X014760Y017935D02*
X028284Y017935D01*
X028283Y017777D02*
X014918Y017777D01*
X014954Y017618D02*
X028283Y017618D01*
X028283Y017460D02*
X014954Y017460D01*
X014846Y017301D02*
X028283Y017301D01*
X028282Y017143D02*
X006180Y017143D01*
X006019Y016984D02*
X028282Y016984D01*
X028282Y016826D02*
X014869Y016826D01*
X014954Y016667D02*
X028281Y016667D01*
X028281Y016509D02*
X027495Y016509D01*
X027506Y016350D02*
X028281Y016350D01*
X028281Y016192D02*
X027079Y016192D01*
X027506Y016033D02*
X028280Y016033D01*
X025061Y014131D02*
X024432Y014131D01*
X024432Y013973D02*
X024998Y013973D01*
X024998Y013814D02*
X024432Y013814D01*
X024432Y013656D02*
X024999Y013656D01*
X025158Y013497D02*
X024432Y013497D01*
X024432Y013339D02*
X025269Y013339D01*
X025110Y013180D02*
X024432Y013180D01*
X024432Y013022D02*
X024998Y013022D01*
X024998Y012863D02*
X024432Y012863D01*
X024432Y012705D02*
X024998Y012705D01*
X025109Y012546D02*
X024432Y012546D01*
X024432Y012388D02*
X025267Y012388D01*
X025159Y012229D02*
X024432Y012229D01*
X024432Y012071D02*
X025001Y012071D01*
X024998Y011912D02*
X024432Y011912D01*
X024432Y011754D02*
X024998Y011754D01*
X025060Y011595D02*
X024432Y011595D01*
X024432Y011437D02*
X025218Y011437D01*
X025769Y011437D02*
X026005Y011437D01*
X026163Y011278D02*
X024432Y011278D01*
X024432Y011120D02*
X026647Y011120D01*
X026647Y010961D02*
X024432Y010961D01*
X024432Y010803D02*
X026698Y010803D01*
X026856Y010644D02*
X024432Y010644D01*
X024112Y010803D02*
X022644Y010803D01*
X022644Y010961D02*
X024112Y010961D01*
X024112Y011120D02*
X022644Y011120D01*
X022644Y011278D02*
X024112Y011278D01*
X024112Y011437D02*
X022644Y011437D01*
X022644Y011595D02*
X024112Y011595D01*
X024112Y011754D02*
X022644Y011754D01*
X022644Y011912D02*
X024112Y011912D01*
X024112Y012071D02*
X022644Y012071D01*
X022644Y012229D02*
X024112Y012229D01*
X024112Y012388D02*
X022644Y012388D01*
X022644Y012546D02*
X024112Y012546D01*
X024112Y012705D02*
X022644Y012705D01*
X022644Y012863D02*
X024112Y012863D01*
X024112Y013022D02*
X022644Y013022D01*
X022644Y013180D02*
X024112Y013180D01*
X024112Y013339D02*
X022644Y013339D01*
X022644Y013497D02*
X024112Y013497D01*
X024112Y013656D02*
X022644Y013656D01*
X022644Y013814D02*
X024112Y013814D01*
X024112Y013973D02*
X022644Y013973D01*
X022644Y014131D02*
X024112Y014131D01*
X024112Y014290D02*
X022644Y014290D01*
X022644Y014448D02*
X024112Y014448D01*
X024112Y014607D02*
X022644Y014607D01*
X022644Y014765D02*
X024112Y014765D01*
X024112Y014924D02*
X022644Y014924D01*
X022644Y015082D02*
X024112Y015082D01*
X024112Y015241D02*
X023294Y015241D01*
X023519Y015399D02*
X024112Y015399D01*
X022893Y015241D02*
X022644Y015241D01*
X022640Y015399D02*
X022668Y015399D01*
X022577Y015558D02*
X022481Y015558D01*
X022540Y015716D02*
X022323Y015716D01*
X022164Y015875D02*
X022543Y015875D01*
X022608Y016033D02*
X022006Y016033D01*
X021625Y015241D02*
X021291Y015241D01*
X021125Y014870D02*
X020062Y014870D01*
X019944Y014988D01*
X019944Y015028D01*
X019916Y014954D01*
X020133Y014870D01*
X020011Y015069D01*
X019944Y015028D01*
X020163Y015241D02*
X020303Y015241D01*
X020150Y015262D02*
X020150Y015262D01*
X020150Y015262D01*
X020499Y013497D02*
X016346Y013497D01*
X016346Y013339D02*
X016649Y013339D01*
X016675Y013365D02*
X016417Y013107D01*
X016417Y012743D01*
X016675Y012485D01*
X017040Y012485D01*
X017297Y012743D01*
X017297Y013107D01*
X017040Y013365D01*
X016675Y013365D01*
X016490Y013180D02*
X016346Y013180D01*
X016346Y013022D02*
X016417Y013022D01*
X016417Y012863D02*
X016346Y012863D01*
X016346Y012705D02*
X016456Y012705D01*
X016346Y012546D02*
X016614Y012546D01*
X016346Y012388D02*
X018019Y012388D01*
X018166Y012229D02*
X016346Y012229D01*
X016357Y012071D02*
X020342Y012071D01*
X020405Y012229D02*
X020501Y012229D01*
X020576Y012388D02*
X021299Y012388D01*
X021299Y012546D02*
X020948Y012546D01*
X021101Y012705D02*
X021299Y012705D01*
X021299Y012863D02*
X021101Y012863D01*
X021101Y013022D02*
X021299Y013022D01*
X021299Y013180D02*
X020947Y013180D01*
X020887Y012229D02*
X021299Y012229D01*
X021299Y012071D02*
X021045Y012071D01*
X021090Y011912D02*
X021299Y011912D01*
X021299Y011754D02*
X021090Y011754D01*
X020986Y011595D02*
X021299Y011595D01*
X021299Y011437D02*
X020584Y011437D01*
X021079Y011120D02*
X019911Y011120D01*
X019753Y011278D02*
X021238Y011278D01*
X019606Y010803D02*
X019137Y010803D01*
X017614Y012546D02*
X017101Y012546D01*
X017259Y012705D02*
X017456Y012705D01*
X017417Y012863D02*
X017297Y012863D01*
X017297Y013022D02*
X017417Y013022D01*
X017490Y013180D02*
X017225Y013180D01*
X017066Y013339D02*
X017649Y013339D01*
X025720Y012388D02*
X026152Y012388D01*
X025993Y012229D02*
X025828Y012229D01*
X025879Y012546D02*
X026647Y012546D01*
X026647Y012705D02*
X025990Y012705D01*
X025990Y012863D02*
X026686Y012863D01*
X026845Y013022D02*
X025990Y013022D01*
X025877Y013180D02*
X027003Y013180D01*
X028523Y011437D02*
X028721Y011437D01*
X028286Y019045D02*
X002880Y019045D01*
X002880Y019203D02*
X028286Y019203D01*
X028286Y019362D02*
X002880Y019362D01*
X002880Y019520D02*
X028287Y019520D01*
X028287Y019679D02*
X002880Y019679D01*
X002880Y019837D02*
X008218Y019837D01*
X008241Y019813D02*
X008539Y019690D01*
X008861Y019690D01*
X009159Y019813D01*
X009387Y020041D01*
X009510Y020339D01*
X009510Y020661D01*
X009387Y020959D01*
X009159Y021187D01*
X008861Y021310D01*
X008539Y021310D01*
X008241Y021187D01*
X008013Y020959D01*
X007890Y020661D01*
X007890Y020339D01*
X008013Y020041D01*
X008241Y019813D01*
X008059Y019996D02*
X002880Y019996D01*
X002880Y020154D02*
X007967Y020154D01*
X007901Y020313D02*
X002880Y020313D01*
X002880Y020471D02*
X007890Y020471D01*
X007890Y020630D02*
X002880Y020630D01*
X002880Y020788D02*
X007943Y020788D01*
X008008Y020947D02*
X002880Y020947D01*
X002880Y021105D02*
X008160Y021105D01*
X008427Y021264D02*
X002880Y021264D01*
X008973Y021264D02*
X028082Y021264D01*
X028240Y021105D02*
X009240Y021105D01*
X009392Y020947D02*
X011882Y020947D01*
X011905Y020970D02*
X011630Y020695D01*
X011630Y020305D01*
X011905Y020030D01*
X012295Y020030D01*
X012570Y020305D01*
X012570Y020695D01*
X012295Y020970D01*
X011905Y020970D01*
X011723Y020788D02*
X009457Y020788D01*
X009510Y020630D02*
X011630Y020630D01*
X011630Y020471D02*
X009510Y020471D01*
X009499Y020313D02*
X011630Y020313D01*
X011781Y020154D02*
X009433Y020154D01*
X009341Y019996D02*
X012883Y019996D01*
X012889Y019990D02*
X013082Y019990D01*
X013082Y020482D01*
X013118Y020482D01*
X013118Y020518D01*
X013610Y020518D01*
X013610Y020711D01*
X013311Y021010D01*
X013118Y021010D01*
X013118Y020518D01*
X013082Y020518D01*
X013082Y020482D01*
X012590Y020482D01*
X012590Y020289D01*
X012889Y019990D01*
X013082Y019996D02*
X013118Y019996D01*
X013118Y019990D02*
X013311Y019990D01*
X013610Y020289D01*
X013610Y020482D01*
X013118Y020482D01*
X013118Y019990D01*
X013118Y020154D02*
X013082Y020154D01*
X013082Y020313D02*
X013118Y020313D01*
X013118Y020471D02*
X013082Y020471D01*
X013082Y020518D02*
X012590Y020518D01*
X012590Y020711D01*
X012889Y021010D01*
X013082Y021010D01*
X013082Y020518D01*
X013082Y020630D02*
X013118Y020630D01*
X013118Y020788D02*
X013082Y020788D01*
X013082Y020947D02*
X013118Y020947D01*
X013375Y020947D02*
X013882Y020947D01*
X013905Y020970D02*
X013630Y020695D01*
X013630Y020305D01*
X013905Y020030D01*
X014295Y020030D01*
X014570Y020305D01*
X014570Y020695D01*
X014295Y020970D01*
X013905Y020970D01*
X013723Y020788D02*
X013533Y020788D01*
X013610Y020630D02*
X013630Y020630D01*
X013630Y020471D02*
X013610Y020471D01*
X013610Y020313D02*
X013630Y020313D01*
X013781Y020154D02*
X013475Y020154D01*
X013317Y019996D02*
X028288Y019996D01*
X028288Y020154D02*
X028019Y020154D01*
X027895Y020030D02*
X027505Y020030D01*
X027230Y020305D01*
X027230Y020695D01*
X027505Y020970D01*
X027895Y020970D01*
X028170Y020695D01*
X028170Y020305D01*
X027895Y020030D01*
X028287Y019837D02*
X009182Y019837D01*
X012318Y020947D02*
X012825Y020947D01*
X012667Y020788D02*
X012477Y020788D01*
X012570Y020630D02*
X012590Y020630D01*
X012590Y020471D02*
X012570Y020471D01*
X012570Y020313D02*
X012590Y020313D01*
X012725Y020154D02*
X012419Y020154D01*
X014419Y020154D02*
X014781Y020154D01*
X014905Y020030D02*
X014630Y020305D01*
X014630Y020695D01*
X014905Y020970D01*
X015295Y020970D01*
X015570Y020695D01*
X015570Y020305D01*
X015295Y020030D01*
X014905Y020030D01*
X015419Y020154D02*
X015781Y020154D01*
X015905Y020030D02*
X015630Y020305D01*
X015630Y020695D01*
X015905Y020970D01*
X016295Y020970D01*
X016570Y020695D01*
X016570Y020305D01*
X016295Y020030D01*
X015905Y020030D01*
X015630Y020313D02*
X015570Y020313D01*
X015570Y020471D02*
X015630Y020471D01*
X015630Y020630D02*
X015570Y020630D01*
X015477Y020788D02*
X015723Y020788D01*
X015882Y020947D02*
X015318Y020947D01*
X014882Y020947D02*
X014318Y020947D01*
X014477Y020788D02*
X014723Y020788D01*
X014630Y020630D02*
X014570Y020630D01*
X014570Y020471D02*
X014630Y020471D01*
X014630Y020313D02*
X014570Y020313D01*
X016318Y020947D02*
X016882Y020947D01*
X016905Y020970D02*
X016630Y020695D01*
X016630Y020305D01*
X016905Y020030D01*
X017295Y020030D01*
X017570Y020305D01*
X017570Y020695D01*
X017295Y020970D01*
X016905Y020970D01*
X016723Y020788D02*
X016477Y020788D01*
X016570Y020630D02*
X016630Y020630D01*
X016630Y020471D02*
X016570Y020471D01*
X016570Y020313D02*
X016630Y020313D01*
X016781Y020154D02*
X016419Y020154D01*
X017419Y020154D02*
X017781Y020154D01*
X017905Y020030D02*
X017630Y020305D01*
X017630Y020695D01*
X017905Y020970D01*
X018295Y020970D01*
X018570Y020695D01*
X018570Y020305D01*
X018295Y020030D01*
X017905Y020030D01*
X018419Y020154D02*
X018781Y020154D01*
X018905Y020030D02*
X018630Y020305D01*
X018630Y020695D01*
X018905Y020970D01*
X019295Y020970D01*
X019570Y020695D01*
X019570Y020305D01*
X019295Y020030D01*
X018905Y020030D01*
X019419Y020154D02*
X020381Y020154D01*
X020505Y020030D02*
X020230Y020305D01*
X020230Y020695D01*
X020505Y020970D01*
X020895Y020970D01*
X021170Y020695D01*
X021170Y020305D01*
X020895Y020030D01*
X020505Y020030D01*
X020230Y020313D02*
X019570Y020313D01*
X019570Y020471D02*
X020230Y020471D01*
X020230Y020630D02*
X019570Y020630D01*
X019477Y020788D02*
X020323Y020788D01*
X020482Y020947D02*
X019318Y020947D01*
X018882Y020947D02*
X018318Y020947D01*
X018477Y020788D02*
X018723Y020788D01*
X018630Y020630D02*
X018570Y020630D01*
X018570Y020471D02*
X018630Y020471D01*
X018630Y020313D02*
X018570Y020313D01*
X017882Y020947D02*
X017318Y020947D01*
X017477Y020788D02*
X017723Y020788D01*
X017630Y020630D02*
X017570Y020630D01*
X017570Y020471D02*
X017630Y020471D01*
X017630Y020313D02*
X017570Y020313D01*
X020918Y020947D02*
X021482Y020947D01*
X021505Y020970D02*
X021230Y020695D01*
X021230Y020305D01*
X021505Y020030D01*
X021895Y020030D01*
X022170Y020305D01*
X022170Y020695D01*
X021895Y020970D01*
X021505Y020970D01*
X021323Y020788D02*
X021077Y020788D01*
X021170Y020630D02*
X021230Y020630D01*
X021230Y020471D02*
X021170Y020471D01*
X021170Y020313D02*
X021230Y020313D01*
X021381Y020154D02*
X021019Y020154D01*
X022019Y020154D02*
X022381Y020154D01*
X022505Y020030D02*
X022895Y020030D01*
X023170Y020305D01*
X023170Y020695D01*
X022895Y020970D01*
X022505Y020970D01*
X022230Y020695D01*
X022230Y020305D01*
X022505Y020030D01*
X022230Y020313D02*
X022170Y020313D01*
X022170Y020471D02*
X022230Y020471D01*
X022230Y020630D02*
X022170Y020630D01*
X022077Y020788D02*
X022323Y020788D01*
X022482Y020947D02*
X021918Y020947D01*
X022918Y020947D02*
X023482Y020947D01*
X023505Y020970D02*
X023230Y020695D01*
X023230Y020305D01*
X023505Y020030D01*
X023895Y020030D01*
X024170Y020305D01*
X024170Y020695D01*
X023895Y020970D01*
X023505Y020970D01*
X023323Y020788D02*
X023077Y020788D01*
X023170Y020630D02*
X023230Y020630D01*
X023230Y020471D02*
X023170Y020471D01*
X023170Y020313D02*
X023230Y020313D01*
X023381Y020154D02*
X023019Y020154D01*
X024019Y020154D02*
X024381Y020154D01*
X024505Y020030D02*
X024230Y020305D01*
X024230Y020695D01*
X024505Y020970D01*
X024895Y020970D01*
X025170Y020695D01*
X025170Y020305D01*
X024895Y020030D01*
X024505Y020030D01*
X024230Y020313D02*
X024170Y020313D01*
X024170Y020471D02*
X024230Y020471D01*
X024230Y020630D02*
X024170Y020630D01*
X024077Y020788D02*
X024323Y020788D01*
X024482Y020947D02*
X023918Y020947D01*
X024918Y020947D02*
X025482Y020947D01*
X025505Y020970D02*
X025230Y020695D01*
X025230Y020305D01*
X025505Y020030D01*
X025895Y020030D01*
X026170Y020305D01*
X026170Y020695D01*
X025895Y020970D01*
X025505Y020970D01*
X025323Y020788D02*
X025077Y020788D01*
X025170Y020630D02*
X025230Y020630D01*
X025230Y020471D02*
X025170Y020471D01*
X025170Y020313D02*
X025230Y020313D01*
X025381Y020154D02*
X025019Y020154D01*
X026019Y020154D02*
X026381Y020154D01*
X026505Y020030D02*
X026895Y020030D01*
X027170Y020305D01*
X027170Y020695D01*
X026895Y020970D01*
X026505Y020970D01*
X026230Y020695D01*
X026230Y020305D01*
X026505Y020030D01*
X026230Y020313D02*
X026170Y020313D01*
X026170Y020471D02*
X026230Y020471D01*
X026230Y020630D02*
X026170Y020630D01*
X026077Y020788D02*
X026323Y020788D01*
X026482Y020947D02*
X025918Y020947D01*
X026918Y020947D02*
X027482Y020947D01*
X027323Y020788D02*
X027077Y020788D01*
X027170Y020630D02*
X027230Y020630D01*
X027230Y020471D02*
X027170Y020471D01*
X027170Y020313D02*
X027230Y020313D01*
X027381Y020154D02*
X027019Y020154D01*
X027918Y020947D02*
X028289Y020947D01*
X028289Y020788D02*
X028077Y020788D01*
X028170Y020630D02*
X028289Y020630D01*
X028288Y020471D02*
X028170Y020471D01*
X028170Y020313D02*
X028288Y020313D01*
D23*
X013881Y003886D03*
X013842Y002980D03*
D24*
X017857Y004571D02*
X017857Y004634D01*
X018330Y005106D01*
X018354Y005130D01*
X020694Y005130D01*
X020377Y005776D02*
X018393Y005776D01*
X017857Y006311D01*
X018684Y007626D02*
X020198Y007626D01*
X020694Y007130D01*
X020705Y006130D02*
X020705Y006103D01*
X020377Y005776D01*
X018684Y007626D02*
X018448Y007862D01*
X017857Y008453D01*
X017857Y008469D01*
X017857Y011146D02*
X018393Y011681D01*
X020495Y011681D01*
X020676Y011862D01*
X020694Y011862D01*
X020154Y012350D02*
X020705Y012862D01*
X020154Y012350D02*
X018409Y012350D01*
X017873Y012925D01*
X017857Y012925D01*
X019117Y013862D02*
X017857Y015122D01*
X019117Y013862D02*
X020694Y013862D01*
M02*
