G75*
%MOIN*%
%OFA0B0*%
%FSLAX24Y24*%
%IPPOS*%
%LPD*%
%AMOC8*
5,1,8,0,0,1.08239X$1,22.5*
%
%ADD10C,0.0040*%
%ADD11C,0.0060*%
%ADD12C,0.0100*%
%ADD13C,0.0080*%
%ADD14C,0.0200*%
%ADD15R,0.4173X0.0276*%
%ADD16R,0.0669X0.0236*%
%ADD17C,0.0070*%
%ADD18C,0.0030*%
%ADD19C,0.0050*%
%ADD20C,0.0000*%
%ADD21R,0.0059X0.0118*%
%ADD22R,0.0118X0.0118*%
D10*
X003350Y000953D02*
X003586Y001189D01*
X003586Y001248D01*
X003527Y001307D01*
X003409Y001307D01*
X003350Y001248D01*
X003350Y000953D02*
X003586Y000953D01*
X003712Y001012D02*
X003948Y001248D01*
X003948Y001012D01*
X003889Y000953D01*
X003771Y000953D01*
X003712Y001012D01*
X003712Y001248D01*
X003771Y001307D01*
X003889Y001307D01*
X003948Y001248D01*
X004075Y001426D02*
X004193Y001544D01*
X004134Y001544D01*
X004134Y001603D01*
X004193Y001603D01*
X004193Y001544D01*
X003948Y001544D02*
X003712Y001544D01*
X003830Y001544D02*
X003830Y001898D01*
X003712Y001780D01*
X003586Y001662D02*
X003586Y001898D01*
X003350Y001898D02*
X003350Y001662D01*
X003468Y001544D01*
X003586Y001662D01*
X004555Y001307D02*
X004673Y001307D01*
X004614Y001307D02*
X004614Y001012D01*
X004555Y000953D01*
X004496Y000953D01*
X004437Y001012D01*
X004800Y001012D02*
X004800Y001189D01*
X004800Y001012D02*
X004859Y000953D01*
X005036Y000953D01*
X005036Y001189D01*
X005162Y001189D02*
X005339Y001189D01*
X005398Y001130D01*
X005398Y000953D01*
X005162Y000953D02*
X005162Y001189D01*
X005160Y001544D02*
X005160Y001898D01*
X005042Y001780D01*
X004915Y001839D02*
X004915Y001721D01*
X004856Y001662D01*
X004679Y001662D01*
X004797Y001662D02*
X004915Y001544D01*
X005042Y001544D02*
X005278Y001544D01*
X004915Y001839D02*
X004856Y001898D01*
X004679Y001898D01*
X004679Y001544D01*
X005888Y001248D02*
X005947Y001307D01*
X006065Y001307D01*
X006124Y001248D01*
X006124Y001189D01*
X005888Y000953D01*
X006124Y000953D01*
X006250Y001012D02*
X006250Y001248D01*
X006309Y001307D01*
X006427Y001307D01*
X006486Y001248D01*
X006250Y001012D01*
X006309Y000953D01*
X006427Y000953D01*
X006486Y001012D01*
X006486Y001248D01*
X006613Y001189D02*
X006731Y001307D01*
X006731Y000953D01*
X006613Y000953D02*
X006849Y000953D01*
X006975Y001012D02*
X007034Y000953D01*
X007152Y000953D01*
X007211Y001012D01*
X007211Y001071D01*
X007152Y001130D01*
X006975Y001130D01*
X006975Y001012D01*
X006975Y001130D02*
X007093Y001248D01*
X007211Y001307D01*
X010691Y002599D02*
X010750Y002540D01*
X010868Y002540D01*
X010927Y002599D01*
X011053Y002540D02*
X011289Y002540D01*
X011171Y002540D02*
X011171Y002894D01*
X011053Y002776D01*
X010927Y002835D02*
X010868Y002894D01*
X010750Y002894D01*
X010691Y002835D01*
X010691Y002599D01*
X012783Y007361D02*
X012901Y007361D01*
X012960Y007420D01*
X013086Y007361D02*
X013322Y007597D01*
X013322Y007656D01*
X013263Y007715D01*
X013145Y007715D01*
X013086Y007656D01*
X012960Y007656D02*
X012901Y007715D01*
X012783Y007715D01*
X012724Y007656D01*
X012724Y007420D01*
X012783Y007361D01*
X013086Y007361D02*
X013322Y007361D01*
X013230Y008209D02*
X013289Y008268D01*
X013230Y008209D02*
X013112Y008209D01*
X013053Y008268D01*
X013053Y008504D01*
X013112Y008563D01*
X013230Y008563D01*
X013289Y008504D01*
X013415Y008504D02*
X013474Y008563D01*
X013592Y008563D01*
X013651Y008504D01*
X013651Y008445D01*
X013592Y008386D01*
X013651Y008327D01*
X013651Y008268D01*
X013592Y008209D01*
X013474Y008209D01*
X013415Y008268D01*
X013533Y008386D02*
X013592Y008386D01*
X011249Y008971D02*
X011249Y009325D01*
X011131Y009325D02*
X011367Y009325D01*
X011007Y009325D02*
X010889Y009325D01*
X010948Y009325D02*
X010948Y008971D01*
X010889Y008971D02*
X011007Y008971D01*
X010763Y008971D02*
X010586Y009148D01*
X010527Y009089D02*
X010763Y009325D01*
X010527Y009325D02*
X010527Y008971D01*
X010400Y009030D02*
X010341Y008971D01*
X010223Y008971D01*
X010164Y009030D01*
X010164Y009089D01*
X010223Y009148D01*
X010341Y009148D01*
X010400Y009089D01*
X010400Y009030D01*
X010341Y009148D02*
X010400Y009207D01*
X010400Y009266D01*
X010341Y009325D01*
X010223Y009325D01*
X010164Y009266D01*
X010164Y009207D01*
X010223Y009148D01*
X010038Y009148D02*
X009979Y009207D01*
X009920Y009207D01*
X009802Y009148D01*
X009802Y009325D01*
X010038Y009325D01*
X010038Y009148D02*
X010038Y009030D01*
X009979Y008971D01*
X009861Y008971D01*
X009802Y009030D01*
X009675Y009030D02*
X009616Y008971D01*
X009498Y008971D01*
X009439Y009030D01*
X009313Y008971D02*
X009313Y009325D01*
X009195Y009207D01*
X009077Y009325D01*
X009077Y008971D01*
X008950Y008971D02*
X008714Y008971D01*
X008714Y009325D01*
X009439Y009266D02*
X009498Y009325D01*
X009616Y009325D01*
X009675Y009266D01*
X009675Y009207D01*
X009616Y009148D01*
X009675Y009089D01*
X009675Y009030D01*
X009616Y009148D02*
X009557Y009148D01*
X007674Y008561D02*
X007674Y008325D01*
X007674Y008443D02*
X007320Y008443D01*
X007438Y008325D01*
X007379Y008198D02*
X007320Y008139D01*
X007320Y008021D01*
X007379Y007962D01*
X007615Y007962D01*
X007674Y008021D01*
X007674Y008139D01*
X007615Y008198D01*
X007674Y007839D02*
X007674Y007721D01*
X007674Y007780D02*
X007320Y007780D01*
X007320Y007721D02*
X007320Y007839D01*
X012606Y010451D02*
X012665Y010392D01*
X012783Y010392D01*
X012842Y010451D01*
X012968Y010569D02*
X013204Y010569D01*
X013145Y010392D02*
X013145Y010746D01*
X012968Y010569D01*
X012842Y010687D02*
X012783Y010746D01*
X012665Y010746D01*
X012606Y010687D01*
X012606Y010451D01*
X012588Y014522D02*
X012470Y014522D01*
X012529Y014522D02*
X012529Y014876D01*
X012470Y014876D02*
X012588Y014876D01*
X012712Y014817D02*
X012712Y014581D01*
X012771Y014522D01*
X012889Y014522D01*
X012948Y014581D01*
X013074Y014522D02*
X013310Y014758D01*
X013310Y014817D01*
X013251Y014876D01*
X013133Y014876D01*
X013074Y014817D01*
X012948Y014817D02*
X012889Y014876D01*
X012771Y014876D01*
X012712Y014817D01*
X013074Y014522D02*
X013310Y014522D01*
X014864Y015236D02*
X014923Y015177D01*
X015041Y015177D01*
X015100Y015236D01*
X015226Y015236D02*
X015226Y015177D01*
X015226Y015236D02*
X015462Y015472D01*
X015462Y015531D01*
X015226Y015531D01*
X015100Y015472D02*
X015041Y015531D01*
X014923Y015531D01*
X014864Y015472D01*
X014864Y015236D01*
X020473Y014403D02*
X020627Y014249D01*
X020473Y014403D02*
X020934Y014403D01*
X020934Y014556D02*
X020934Y014249D01*
X025241Y014635D02*
X025318Y014482D01*
X025471Y014328D01*
X025471Y014558D01*
X025548Y014635D01*
X025625Y014635D01*
X025702Y014558D01*
X025702Y014405D01*
X025625Y014328D01*
X025471Y014328D01*
X025548Y007903D02*
X025471Y007826D01*
X025471Y007596D01*
X025625Y007596D01*
X025702Y007673D01*
X025702Y007826D01*
X025625Y007903D01*
X025548Y007903D01*
X025318Y007749D02*
X025471Y007596D01*
X025318Y007749D02*
X025241Y007903D01*
X020934Y007824D02*
X020934Y007517D01*
X020934Y007671D02*
X020473Y007671D01*
X020627Y007517D01*
D11*
X015461Y007750D02*
X015461Y006950D01*
X015459Y006933D01*
X015455Y006916D01*
X015448Y006900D01*
X015438Y006886D01*
X015425Y006873D01*
X015411Y006863D01*
X015395Y006856D01*
X015378Y006852D01*
X015361Y006850D01*
X013661Y006850D01*
X013644Y006852D01*
X013627Y006856D01*
X013611Y006863D01*
X013597Y006873D01*
X013584Y006886D01*
X013574Y006900D01*
X013567Y006916D01*
X013563Y006933D01*
X013561Y006950D01*
X013561Y007750D01*
X013563Y007767D01*
X013567Y007784D01*
X013574Y007800D01*
X013584Y007814D01*
X013597Y007827D01*
X013611Y007837D01*
X013627Y007844D01*
X013644Y007848D01*
X013661Y007850D01*
X015361Y007850D01*
X015378Y007848D01*
X015395Y007844D01*
X015411Y007837D01*
X015425Y007827D01*
X015438Y007814D01*
X015448Y007800D01*
X015455Y007784D01*
X015459Y007767D01*
X015461Y007750D01*
X015258Y008483D02*
X015258Y008583D01*
X015158Y008583D01*
X015258Y008583D02*
X015258Y008683D01*
X015258Y008583D02*
X015358Y008583D01*
X013708Y009083D02*
X013710Y009146D01*
X013716Y009208D01*
X013726Y009270D01*
X013739Y009332D01*
X013757Y009392D01*
X013778Y009451D01*
X013803Y009509D01*
X013832Y009565D01*
X013864Y009619D01*
X013899Y009671D01*
X013937Y009720D01*
X013979Y009768D01*
X014023Y009812D01*
X014071Y009854D01*
X014120Y009892D01*
X014172Y009927D01*
X014226Y009959D01*
X014282Y009988D01*
X014340Y010013D01*
X014399Y010034D01*
X014459Y010052D01*
X014521Y010065D01*
X014583Y010075D01*
X014645Y010081D01*
X014708Y010083D01*
X014771Y010081D01*
X014833Y010075D01*
X014895Y010065D01*
X014957Y010052D01*
X015017Y010034D01*
X015076Y010013D01*
X015134Y009988D01*
X015190Y009959D01*
X015244Y009927D01*
X015296Y009892D01*
X015345Y009854D01*
X015393Y009812D01*
X015437Y009768D01*
X015479Y009720D01*
X015517Y009671D01*
X015552Y009619D01*
X015584Y009565D01*
X015613Y009509D01*
X015638Y009451D01*
X015659Y009392D01*
X015677Y009332D01*
X015690Y009270D01*
X015700Y009208D01*
X015706Y009146D01*
X015708Y009083D01*
X015706Y009020D01*
X015700Y008958D01*
X015690Y008896D01*
X015677Y008834D01*
X015659Y008774D01*
X015638Y008715D01*
X015613Y008657D01*
X015584Y008601D01*
X015552Y008547D01*
X015517Y008495D01*
X015479Y008446D01*
X015437Y008398D01*
X015393Y008354D01*
X015345Y008312D01*
X015296Y008274D01*
X015244Y008239D01*
X015190Y008207D01*
X015134Y008178D01*
X015076Y008153D01*
X015017Y008132D01*
X014957Y008114D01*
X014895Y008101D01*
X014833Y008091D01*
X014771Y008085D01*
X014708Y008083D01*
X014645Y008085D01*
X014583Y008091D01*
X014521Y008101D01*
X014459Y008114D01*
X014399Y008132D01*
X014340Y008153D01*
X014282Y008178D01*
X014226Y008207D01*
X014172Y008239D01*
X014120Y008274D01*
X014071Y008312D01*
X014023Y008354D01*
X013979Y008398D01*
X013937Y008446D01*
X013899Y008495D01*
X013864Y008547D01*
X013832Y008601D01*
X013803Y008657D01*
X013778Y008715D01*
X013757Y008774D01*
X013739Y008834D01*
X013726Y008896D01*
X013716Y008958D01*
X013710Y009020D01*
X013708Y009083D01*
X013582Y010315D02*
X015282Y010315D01*
X015299Y010317D01*
X015316Y010321D01*
X015332Y010328D01*
X015346Y010338D01*
X015359Y010351D01*
X015369Y010365D01*
X015376Y010381D01*
X015380Y010398D01*
X015382Y010415D01*
X015382Y011215D01*
X015380Y011232D01*
X015376Y011249D01*
X015369Y011265D01*
X015359Y011279D01*
X015346Y011292D01*
X015332Y011302D01*
X015316Y011309D01*
X015299Y011313D01*
X015282Y011315D01*
X013582Y011315D01*
X013565Y011313D01*
X013548Y011309D01*
X013532Y011302D01*
X013518Y011292D01*
X013505Y011279D01*
X013495Y011265D01*
X013488Y011249D01*
X013484Y011232D01*
X013482Y011215D01*
X013482Y010415D01*
X013484Y010398D01*
X013488Y010381D01*
X013495Y010365D01*
X013505Y010351D01*
X013518Y010338D01*
X013532Y010328D01*
X013548Y010321D01*
X013565Y010317D01*
X013582Y010315D01*
X014282Y010815D02*
X014332Y010815D01*
X014532Y010815D02*
X014582Y010815D01*
X015219Y013443D02*
X015219Y013543D01*
X015119Y013543D01*
X015219Y013543D02*
X015219Y013643D01*
X015219Y013543D02*
X015319Y013543D01*
X013669Y014043D02*
X013671Y014106D01*
X013677Y014168D01*
X013687Y014230D01*
X013700Y014292D01*
X013718Y014352D01*
X013739Y014411D01*
X013764Y014469D01*
X013793Y014525D01*
X013825Y014579D01*
X013860Y014631D01*
X013898Y014680D01*
X013940Y014728D01*
X013984Y014772D01*
X014032Y014814D01*
X014081Y014852D01*
X014133Y014887D01*
X014187Y014919D01*
X014243Y014948D01*
X014301Y014973D01*
X014360Y014994D01*
X014420Y015012D01*
X014482Y015025D01*
X014544Y015035D01*
X014606Y015041D01*
X014669Y015043D01*
X014732Y015041D01*
X014794Y015035D01*
X014856Y015025D01*
X014918Y015012D01*
X014978Y014994D01*
X015037Y014973D01*
X015095Y014948D01*
X015151Y014919D01*
X015205Y014887D01*
X015257Y014852D01*
X015306Y014814D01*
X015354Y014772D01*
X015398Y014728D01*
X015440Y014680D01*
X015478Y014631D01*
X015513Y014579D01*
X015545Y014525D01*
X015574Y014469D01*
X015599Y014411D01*
X015620Y014352D01*
X015638Y014292D01*
X015651Y014230D01*
X015661Y014168D01*
X015667Y014106D01*
X015669Y014043D01*
X015667Y013980D01*
X015661Y013918D01*
X015651Y013856D01*
X015638Y013794D01*
X015620Y013734D01*
X015599Y013675D01*
X015574Y013617D01*
X015545Y013561D01*
X015513Y013507D01*
X015478Y013455D01*
X015440Y013406D01*
X015398Y013358D01*
X015354Y013314D01*
X015306Y013272D01*
X015257Y013234D01*
X015205Y013199D01*
X015151Y013167D01*
X015095Y013138D01*
X015037Y013113D01*
X014978Y013092D01*
X014918Y013074D01*
X014856Y013061D01*
X014794Y013051D01*
X014732Y013045D01*
X014669Y013043D01*
X014606Y013045D01*
X014544Y013051D01*
X014482Y013061D01*
X014420Y013074D01*
X014360Y013092D01*
X014301Y013113D01*
X014243Y013138D01*
X014187Y013167D01*
X014133Y013199D01*
X014081Y013234D01*
X014032Y013272D01*
X013984Y013314D01*
X013940Y013358D01*
X013898Y013406D01*
X013860Y013455D01*
X013825Y013507D01*
X013793Y013561D01*
X013764Y013617D01*
X013739Y013675D01*
X013718Y013734D01*
X013700Y013794D01*
X013687Y013856D01*
X013677Y013918D01*
X013671Y013980D01*
X013669Y014043D01*
X013454Y015075D02*
X014204Y015075D01*
X014204Y019075D01*
X011904Y019075D01*
X011904Y015075D01*
X012654Y015075D01*
X012656Y015114D01*
X012662Y015153D01*
X012671Y015191D01*
X012684Y015228D01*
X012701Y015264D01*
X012721Y015297D01*
X012745Y015329D01*
X012771Y015358D01*
X012800Y015384D01*
X012832Y015408D01*
X012865Y015428D01*
X012901Y015445D01*
X012938Y015458D01*
X012976Y015467D01*
X013015Y015473D01*
X013054Y015475D01*
X013093Y015473D01*
X013132Y015467D01*
X013170Y015458D01*
X013207Y015445D01*
X013243Y015428D01*
X013276Y015408D01*
X013308Y015384D01*
X013337Y015358D01*
X013363Y015329D01*
X013387Y015297D01*
X013407Y015264D01*
X013424Y015228D01*
X013437Y015191D01*
X013446Y015153D01*
X013452Y015114D01*
X013454Y015075D01*
X014361Y007350D02*
X014411Y007350D01*
X014611Y007350D02*
X014661Y007350D01*
X011346Y003413D02*
X011348Y003476D01*
X011354Y003538D01*
X011364Y003600D01*
X011377Y003662D01*
X011395Y003722D01*
X011416Y003781D01*
X011441Y003839D01*
X011470Y003895D01*
X011502Y003949D01*
X011537Y004001D01*
X011575Y004050D01*
X011617Y004098D01*
X011661Y004142D01*
X011709Y004184D01*
X011758Y004222D01*
X011810Y004257D01*
X011864Y004289D01*
X011920Y004318D01*
X011978Y004343D01*
X012037Y004364D01*
X012097Y004382D01*
X012159Y004395D01*
X012221Y004405D01*
X012283Y004411D01*
X012346Y004413D01*
X012409Y004411D01*
X012471Y004405D01*
X012533Y004395D01*
X012595Y004382D01*
X012655Y004364D01*
X012714Y004343D01*
X012772Y004318D01*
X012828Y004289D01*
X012882Y004257D01*
X012934Y004222D01*
X012983Y004184D01*
X013031Y004142D01*
X013075Y004098D01*
X013117Y004050D01*
X013155Y004001D01*
X013190Y003949D01*
X013222Y003895D01*
X013251Y003839D01*
X013276Y003781D01*
X013297Y003722D01*
X013315Y003662D01*
X013328Y003600D01*
X013338Y003538D01*
X013344Y003476D01*
X013346Y003413D01*
X013344Y003350D01*
X013338Y003288D01*
X013328Y003226D01*
X013315Y003164D01*
X013297Y003104D01*
X013276Y003045D01*
X013251Y002987D01*
X013222Y002931D01*
X013190Y002877D01*
X013155Y002825D01*
X013117Y002776D01*
X013075Y002728D01*
X013031Y002684D01*
X012983Y002642D01*
X012934Y002604D01*
X012882Y002569D01*
X012828Y002537D01*
X012772Y002508D01*
X012714Y002483D01*
X012655Y002462D01*
X012595Y002444D01*
X012533Y002431D01*
X012471Y002421D01*
X012409Y002415D01*
X012346Y002413D01*
X012283Y002415D01*
X012221Y002421D01*
X012159Y002431D01*
X012097Y002444D01*
X012037Y002462D01*
X011978Y002483D01*
X011920Y002508D01*
X011864Y002537D01*
X011810Y002569D01*
X011758Y002604D01*
X011709Y002642D01*
X011661Y002684D01*
X011617Y002728D01*
X011575Y002776D01*
X011537Y002825D01*
X011502Y002877D01*
X011470Y002931D01*
X011441Y002987D01*
X011416Y003045D01*
X011395Y003104D01*
X011377Y003164D01*
X011364Y003226D01*
X011354Y003288D01*
X011348Y003350D01*
X011346Y003413D01*
X012796Y002913D02*
X012896Y002913D01*
X012896Y002813D01*
X012896Y002913D02*
X012896Y003013D01*
X012896Y002913D02*
X012996Y002913D01*
D12*
X014411Y007050D02*
X014411Y007350D01*
X014411Y007650D01*
X014611Y007650D02*
X014611Y007350D01*
X014611Y007050D01*
X014532Y010515D02*
X014532Y010815D01*
X014532Y011115D01*
X014332Y011115D02*
X014332Y010815D01*
X014332Y010515D01*
X008244Y008451D02*
X008246Y008479D01*
X008252Y008506D01*
X008261Y008532D01*
X008274Y008557D01*
X008291Y008580D01*
X008310Y008600D01*
X008332Y008617D01*
X008356Y008631D01*
X008382Y008641D01*
X008409Y008648D01*
X008437Y008651D01*
X008465Y008650D01*
X008492Y008645D01*
X008519Y008636D01*
X008544Y008624D01*
X008567Y008609D01*
X008588Y008590D01*
X008606Y008569D01*
X008621Y008545D01*
X008632Y008519D01*
X008640Y008493D01*
X008644Y008465D01*
X008644Y008437D01*
X008640Y008409D01*
X008632Y008383D01*
X008621Y008357D01*
X008606Y008333D01*
X008588Y008312D01*
X008567Y008293D01*
X008544Y008278D01*
X008519Y008266D01*
X008492Y008257D01*
X008465Y008252D01*
X008437Y008251D01*
X008409Y008254D01*
X008382Y008261D01*
X008356Y008271D01*
X008332Y008285D01*
X008310Y008302D01*
X008291Y008322D01*
X008274Y008345D01*
X008261Y008370D01*
X008252Y008396D01*
X008246Y008423D01*
X008244Y008451D01*
D13*
X007944Y008801D02*
X007944Y008051D01*
X011944Y008051D01*
X011944Y010351D01*
X007944Y010351D01*
X007944Y009601D01*
X007983Y009599D01*
X008022Y009593D01*
X008060Y009584D01*
X008097Y009571D01*
X008133Y009554D01*
X008166Y009534D01*
X008198Y009510D01*
X008227Y009484D01*
X008253Y009455D01*
X008277Y009423D01*
X008297Y009390D01*
X008314Y009354D01*
X008327Y009317D01*
X008336Y009279D01*
X008342Y009240D01*
X008344Y009201D01*
X008342Y009162D01*
X008336Y009123D01*
X008327Y009085D01*
X008314Y009048D01*
X008297Y009012D01*
X008277Y008979D01*
X008253Y008947D01*
X008227Y008918D01*
X008198Y008892D01*
X008166Y008868D01*
X008133Y008848D01*
X008097Y008831D01*
X008060Y008818D01*
X008022Y008809D01*
X007983Y008803D01*
X007944Y008801D01*
X015857Y007919D02*
X015907Y009147D01*
X016007Y009247D01*
X019707Y009247D01*
X019807Y009147D01*
X019857Y007919D01*
X019857Y006861D02*
X019807Y005632D01*
X019707Y005532D01*
X016007Y005532D01*
X015907Y005632D01*
X015857Y006861D01*
X016007Y005350D02*
X019707Y005350D01*
X019807Y005250D01*
X019857Y004021D01*
X015857Y004021D02*
X015907Y005250D01*
X016007Y005350D01*
X015857Y010596D02*
X015907Y011824D01*
X016007Y011924D01*
X019707Y011924D01*
X019807Y011824D01*
X019857Y010596D01*
X019707Y012146D02*
X016007Y012146D01*
X015907Y012246D01*
X015857Y013475D01*
X015857Y014572D02*
X015907Y015801D01*
X016007Y015901D01*
X019707Y015901D01*
X019807Y015801D01*
X019857Y014572D01*
X019857Y013475D02*
X019807Y012246D01*
X019707Y012146D01*
D14*
X019588Y011645D03*
X016127Y012426D03*
X019588Y015621D03*
X019588Y008968D03*
X016127Y005812D03*
X019588Y005070D03*
D15*
X017857Y003709D03*
X017857Y007173D03*
X017857Y007606D03*
X017857Y010283D03*
X017857Y013787D03*
X017857Y014260D03*
D16*
X016106Y014516D03*
X016106Y013531D03*
X019609Y013531D03*
X019609Y014516D03*
X019609Y010539D03*
X016106Y010539D03*
X016106Y007862D03*
X016106Y006917D03*
X019609Y006917D03*
X019609Y007862D03*
X019609Y003965D03*
X016106Y003965D03*
D17*
X015644Y005242D02*
X015428Y005242D01*
X015644Y005458D01*
X015644Y005512D01*
X015590Y005566D01*
X015482Y005566D01*
X015428Y005512D01*
X015282Y005512D02*
X015282Y005296D01*
X015228Y005242D01*
X015120Y005242D01*
X015066Y005296D01*
X015066Y005512D01*
X015120Y005566D01*
X015228Y005566D01*
X015282Y005512D01*
X015174Y005350D02*
X015282Y005242D01*
X019167Y003224D02*
X019167Y003008D01*
X019221Y002954D01*
X019329Y002954D01*
X019383Y003008D01*
X019383Y003224D01*
X019329Y003278D01*
X019221Y003278D01*
X019167Y003224D01*
X019275Y003062D02*
X019383Y002954D01*
X019530Y002954D02*
X019746Y002954D01*
X019638Y002954D02*
X019638Y003278D01*
X019530Y003170D01*
X020009Y008781D02*
X019955Y008835D01*
X019955Y009051D01*
X020009Y009105D01*
X020117Y009105D01*
X020171Y009051D01*
X020171Y008835D01*
X020117Y008781D01*
X020009Y008781D01*
X020063Y008889D02*
X020171Y008781D01*
X020317Y008835D02*
X020371Y008781D01*
X020479Y008781D01*
X020533Y008835D01*
X020533Y008889D01*
X020479Y008943D01*
X020425Y008943D01*
X020479Y008943D02*
X020533Y008997D01*
X020533Y009051D01*
X020479Y009105D01*
X020371Y009105D01*
X020317Y009051D01*
X020289Y010041D02*
X020181Y010149D01*
X020289Y010095D02*
X020235Y010041D01*
X020127Y010041D01*
X020073Y010095D01*
X020073Y010311D01*
X020127Y010365D01*
X020235Y010365D01*
X020289Y010311D01*
X020289Y010095D01*
X020435Y010203D02*
X020597Y010365D01*
X020597Y010041D01*
X020651Y010203D02*
X020435Y010203D01*
X019519Y012708D02*
X019303Y012708D01*
X019249Y012762D01*
X019249Y012870D01*
X019303Y012924D01*
X019519Y012924D01*
X019573Y012870D01*
X019573Y012762D01*
X019519Y012708D01*
X019465Y012816D02*
X019573Y012924D01*
X019519Y013071D02*
X019573Y013125D01*
X019573Y013233D01*
X019519Y013287D01*
X019411Y013287D01*
X019357Y013233D01*
X019357Y013179D01*
X019411Y013071D01*
X019249Y013071D01*
X019249Y013287D01*
X016582Y016025D02*
X016636Y016079D01*
X016636Y016133D01*
X016582Y016187D01*
X016420Y016187D01*
X016420Y016079D01*
X016474Y016025D01*
X016582Y016025D01*
X016420Y016187D02*
X016528Y016295D01*
X016636Y016349D01*
X016273Y016295D02*
X016273Y016079D01*
X016219Y016025D01*
X016111Y016025D01*
X016057Y016079D01*
X016057Y016295D01*
X016111Y016349D01*
X016219Y016349D01*
X016273Y016295D01*
X016165Y016133D02*
X016273Y016025D01*
D18*
X016213Y016607D02*
X016213Y016789D01*
X016153Y016849D01*
X016031Y016849D01*
X015971Y016789D01*
X015971Y016607D01*
X016335Y016607D01*
X016213Y016728D02*
X016335Y016849D01*
X016335Y016969D02*
X016092Y017212D01*
X016031Y017212D01*
X015971Y017151D01*
X015971Y017030D01*
X016031Y016969D01*
X016335Y016969D02*
X016335Y017212D01*
X016153Y017332D02*
X016153Y017574D01*
X016335Y017514D02*
X015971Y017514D01*
X016153Y017332D01*
X017270Y017256D02*
X017634Y017256D01*
X017634Y017135D02*
X017634Y017377D01*
X017391Y017135D02*
X017270Y017256D01*
X017330Y017015D02*
X017270Y016954D01*
X017270Y016833D01*
X017330Y016772D01*
X017330Y016652D02*
X017452Y016652D01*
X017512Y016592D01*
X017512Y016410D01*
X017512Y016531D02*
X017634Y016652D01*
X017634Y016772D02*
X017391Y017015D01*
X017330Y017015D01*
X017634Y017015D02*
X017634Y016772D01*
X017330Y016652D02*
X017270Y016592D01*
X017270Y016410D01*
X017634Y016410D01*
X018884Y017630D02*
X018884Y017812D01*
X018945Y017873D01*
X019066Y017873D01*
X019127Y017812D01*
X019127Y017630D01*
X019248Y017630D02*
X018884Y017630D01*
X019127Y017752D02*
X019248Y017873D01*
X019248Y017993D02*
X019005Y018235D01*
X018945Y018235D01*
X018884Y018175D01*
X018884Y018053D01*
X018945Y017993D01*
X019248Y017993D02*
X019248Y018235D01*
X019248Y018355D02*
X019005Y018598D01*
X018945Y018598D01*
X018884Y018537D01*
X018884Y018416D01*
X018945Y018355D01*
X019248Y018355D02*
X019248Y018598D01*
X020223Y017907D02*
X020223Y017786D01*
X020283Y017725D01*
X020344Y017725D01*
X020405Y017786D01*
X020405Y017968D01*
X020526Y017968D02*
X020283Y017968D01*
X020223Y017907D01*
X020526Y017968D02*
X020587Y017907D01*
X020587Y017786D01*
X020526Y017725D01*
X020587Y017605D02*
X020587Y017363D01*
X020587Y017243D02*
X020465Y017122D01*
X020465Y017182D02*
X020465Y017000D01*
X020587Y017000D02*
X020223Y017000D01*
X020223Y017182D01*
X020283Y017243D01*
X020405Y017243D01*
X020465Y017182D01*
X020344Y017363D02*
X020223Y017484D01*
X020587Y017484D01*
X020813Y017423D02*
X020874Y017363D01*
X020813Y017423D02*
X020813Y017545D01*
X020874Y017605D01*
X020934Y017605D01*
X021177Y017363D01*
X021177Y017605D01*
X021116Y017725D02*
X020874Y017725D01*
X020813Y017786D01*
X020813Y017907D01*
X020874Y017968D01*
X021116Y017725D01*
X021177Y017786D01*
X021177Y017907D01*
X021116Y017968D01*
X020874Y017968D01*
X020797Y018572D02*
X020797Y018754D01*
X020858Y018815D01*
X020979Y018815D01*
X021040Y018754D01*
X021040Y018572D01*
X021161Y018572D02*
X020797Y018572D01*
X021040Y018693D02*
X021161Y018815D01*
X021161Y018935D02*
X020919Y019177D01*
X020858Y019177D01*
X020797Y019117D01*
X020797Y018995D01*
X020858Y018935D01*
X021161Y018935D02*
X021161Y019177D01*
X021101Y019297D02*
X021161Y019358D01*
X021161Y019479D01*
X021101Y019540D01*
X020858Y019540D01*
X020797Y019479D01*
X020797Y019358D01*
X020858Y019297D01*
X020919Y019297D01*
X020979Y019358D01*
X020979Y019540D01*
X020597Y019615D02*
X020597Y019677D01*
X020844Y019924D01*
X020844Y019985D01*
X020597Y019985D01*
X021597Y019800D02*
X021782Y019800D01*
X021844Y019738D01*
X021844Y019677D01*
X021782Y019615D01*
X021658Y019615D01*
X021597Y019677D01*
X021597Y019800D01*
X021720Y019924D01*
X021844Y019985D01*
X022597Y019985D02*
X022597Y019800D01*
X022720Y019862D01*
X022782Y019862D01*
X022844Y019800D01*
X022844Y019677D01*
X022782Y019615D01*
X022658Y019615D01*
X022597Y019677D01*
X022597Y019985D02*
X022844Y019985D01*
X023238Y019540D02*
X023299Y019540D01*
X023542Y019297D01*
X023602Y019297D01*
X023602Y019177D02*
X023602Y018935D01*
X023360Y019177D01*
X023299Y019177D01*
X023238Y019117D01*
X023238Y018995D01*
X023299Y018935D01*
X023299Y018815D02*
X023420Y018815D01*
X023481Y018754D01*
X023481Y018572D01*
X023602Y018572D02*
X023238Y018572D01*
X023238Y018754D01*
X023299Y018815D01*
X023481Y018693D02*
X023602Y018815D01*
X023868Y018715D02*
X023929Y018775D01*
X024050Y018775D01*
X024111Y018715D01*
X024111Y018533D01*
X024111Y018654D02*
X024232Y018775D01*
X024232Y018895D02*
X023990Y019138D01*
X023929Y019138D01*
X023868Y019077D01*
X023868Y018956D01*
X023929Y018895D01*
X023868Y018715D02*
X023868Y018533D01*
X024232Y018533D01*
X024232Y018895D02*
X024232Y019138D01*
X024172Y019258D02*
X024232Y019318D01*
X024232Y019440D01*
X024172Y019500D01*
X024050Y019500D01*
X023990Y019440D01*
X023990Y019379D01*
X024050Y019258D01*
X023868Y019258D01*
X023868Y019500D01*
X023782Y019615D02*
X023782Y019985D01*
X023597Y019800D01*
X023844Y019800D01*
X023238Y019540D02*
X023238Y019297D01*
X024597Y019677D02*
X024658Y019615D01*
X024782Y019615D01*
X024844Y019677D01*
X024844Y019738D01*
X024782Y019800D01*
X024720Y019800D01*
X024782Y019800D02*
X024844Y019862D01*
X024844Y019924D01*
X024782Y019985D01*
X024658Y019985D01*
X024597Y019924D01*
X025597Y019924D02*
X025658Y019985D01*
X025782Y019985D01*
X025844Y019924D01*
X025844Y019862D01*
X025597Y019615D01*
X025844Y019615D01*
X026191Y019422D02*
X026252Y019300D01*
X026373Y019179D01*
X026373Y019361D01*
X026434Y019422D01*
X026494Y019422D01*
X026555Y019361D01*
X026555Y019240D01*
X026494Y019179D01*
X026373Y019179D01*
X026312Y019059D02*
X026252Y019059D01*
X026191Y018998D01*
X026191Y018877D01*
X026252Y018816D01*
X026252Y018697D02*
X026191Y018636D01*
X026191Y018454D01*
X026555Y018454D01*
X026434Y018454D02*
X026434Y018636D01*
X026373Y018697D01*
X026252Y018697D01*
X026434Y018575D02*
X026555Y018697D01*
X026555Y018816D02*
X026312Y019059D01*
X026555Y019059D02*
X026555Y018816D01*
X026597Y019615D02*
X026844Y019615D01*
X026720Y019615D02*
X026720Y019985D01*
X026597Y019862D01*
X027597Y019924D02*
X027597Y019677D01*
X027844Y019924D01*
X027844Y019677D01*
X027782Y019615D01*
X027658Y019615D01*
X027597Y019677D01*
X027597Y019924D02*
X027658Y019985D01*
X027782Y019985D01*
X027844Y019924D01*
X026081Y021077D02*
X026081Y021324D01*
X026019Y021385D01*
X025896Y021385D01*
X025834Y021324D01*
X025834Y021077D01*
X025896Y021015D01*
X026019Y021015D01*
X026081Y021077D01*
X025713Y021385D02*
X025466Y021015D01*
X025344Y021015D02*
X025220Y021015D01*
X025282Y021015D02*
X025282Y021385D01*
X025220Y021385D02*
X025344Y021385D01*
X024730Y021015D02*
X024607Y021015D01*
X024668Y021015D02*
X024668Y021385D01*
X024607Y021385D01*
X024423Y021262D02*
X024485Y021200D01*
X024485Y021015D01*
X024300Y021015D01*
X024238Y021077D01*
X024300Y021138D01*
X024485Y021138D01*
X024423Y021262D02*
X024300Y021262D01*
X024116Y021262D02*
X023993Y021262D01*
X024054Y021324D02*
X024054Y021077D01*
X024116Y021015D01*
X023871Y021015D02*
X023747Y021015D01*
X023809Y021015D02*
X023809Y021262D01*
X023747Y021262D01*
X023626Y021262D02*
X023441Y021262D01*
X023379Y021200D01*
X023379Y021077D01*
X023441Y021015D01*
X023626Y021015D01*
X023626Y020953D02*
X023626Y021262D01*
X023809Y021385D02*
X023809Y021447D01*
X023626Y020953D02*
X023564Y020892D01*
X023502Y020892D01*
X023257Y021015D02*
X023133Y021015D01*
X023195Y021015D02*
X023195Y021262D01*
X023133Y021262D01*
X023012Y021324D02*
X022950Y021385D01*
X022765Y021385D01*
X022765Y021015D01*
X022950Y021015D01*
X023012Y021077D01*
X023012Y021324D01*
X023195Y021385D02*
X023195Y021447D01*
X019244Y019924D02*
X019244Y019862D01*
X019182Y019800D01*
X019058Y019800D01*
X018997Y019862D01*
X018997Y019924D01*
X019058Y019985D01*
X019182Y019985D01*
X019244Y019924D01*
X019182Y019800D02*
X019244Y019738D01*
X019244Y019677D01*
X019182Y019615D01*
X019058Y019615D01*
X018997Y019677D01*
X018997Y019738D01*
X019058Y019800D01*
X018244Y019800D02*
X018058Y019800D01*
X017997Y019862D01*
X017997Y019924D01*
X018058Y019985D01*
X018182Y019985D01*
X018244Y019924D01*
X018244Y019677D01*
X018182Y019615D01*
X018058Y019615D01*
X017997Y019677D01*
X017618Y019479D02*
X017618Y019358D01*
X017557Y019297D01*
X017497Y019297D01*
X017436Y019358D01*
X017436Y019479D01*
X017497Y019540D01*
X017557Y019540D01*
X017618Y019479D01*
X017436Y019479D02*
X017375Y019540D01*
X017315Y019540D01*
X017254Y019479D01*
X017254Y019358D01*
X017315Y019297D01*
X017375Y019297D01*
X017436Y019358D01*
X017375Y019177D02*
X017315Y019177D01*
X017254Y019117D01*
X017254Y018995D01*
X017315Y018935D01*
X017315Y018815D02*
X017436Y018815D01*
X017497Y018754D01*
X017497Y018572D01*
X017618Y018572D02*
X017254Y018572D01*
X017254Y018754D01*
X017315Y018815D01*
X017497Y018693D02*
X017618Y018815D01*
X017618Y018935D02*
X017375Y019177D01*
X017618Y019177D02*
X017618Y018935D01*
X017382Y019615D02*
X017258Y019615D01*
X017197Y019677D01*
X017444Y019924D01*
X017444Y019677D01*
X017382Y019615D01*
X017197Y019677D02*
X017197Y019924D01*
X017258Y019985D01*
X017382Y019985D01*
X017444Y019924D01*
X017075Y019615D02*
X016828Y019615D01*
X016952Y019615D02*
X016952Y019985D01*
X016828Y019862D01*
X016444Y019615D02*
X016197Y019615D01*
X016075Y019615D02*
X015828Y019615D01*
X015952Y019615D02*
X015952Y019985D01*
X015828Y019862D01*
X016197Y019862D02*
X016320Y019985D01*
X016320Y019615D01*
X015444Y019615D02*
X015197Y019615D01*
X015444Y019862D01*
X015444Y019924D01*
X015382Y019985D01*
X015258Y019985D01*
X015197Y019924D01*
X014952Y019985D02*
X014952Y019615D01*
X015075Y019615D02*
X014828Y019615D01*
X014828Y019862D02*
X014952Y019985D01*
X014444Y019924D02*
X014444Y019862D01*
X014382Y019800D01*
X014444Y019738D01*
X014444Y019677D01*
X014382Y019615D01*
X014258Y019615D01*
X014197Y019677D01*
X014075Y019615D02*
X013828Y019615D01*
X013952Y019615D02*
X013952Y019985D01*
X013828Y019862D01*
X013594Y019862D02*
X013408Y019862D01*
X013347Y019800D01*
X013347Y019677D01*
X013408Y019615D01*
X013594Y019615D01*
X013594Y019985D01*
X013225Y019800D02*
X013225Y019615D01*
X013225Y019800D02*
X013164Y019862D01*
X012978Y019862D01*
X012978Y019615D01*
X012857Y019615D02*
X012672Y019615D01*
X012610Y019677D01*
X012610Y019800D01*
X012672Y019862D01*
X012857Y019862D01*
X012857Y019553D01*
X012795Y019492D01*
X012733Y019492D01*
X012343Y019800D02*
X012219Y019800D01*
X012098Y019800D02*
X012098Y019738D01*
X011851Y019738D01*
X011851Y019677D02*
X011851Y019800D01*
X011913Y019862D01*
X012036Y019862D01*
X012098Y019800D01*
X012036Y019615D02*
X011913Y019615D01*
X011851Y019677D01*
X011730Y019615D02*
X011606Y019738D01*
X011668Y019738D02*
X011483Y019738D01*
X011483Y019615D02*
X011483Y019985D01*
X011668Y019985D01*
X011730Y019924D01*
X011730Y019800D01*
X011668Y019738D01*
X011361Y019800D02*
X011115Y019800D01*
X011115Y019862D02*
X011115Y019615D01*
X011361Y019615D02*
X011361Y019862D01*
X011238Y019985D01*
X011115Y019862D01*
X012281Y019924D02*
X012281Y019615D01*
X012281Y019924D02*
X012343Y019985D01*
X010862Y018852D02*
X010862Y018731D01*
X010801Y018670D01*
X010862Y018550D02*
X010862Y018308D01*
X010619Y018550D01*
X010559Y018550D01*
X010498Y018490D01*
X010498Y018368D01*
X010559Y018308D01*
X010559Y018188D02*
X010680Y018188D01*
X010741Y018127D01*
X010741Y017945D01*
X010862Y017945D02*
X010498Y017945D01*
X010498Y018127D01*
X010559Y018188D01*
X010741Y018067D02*
X010862Y018188D01*
X010559Y018670D02*
X010498Y018731D01*
X010498Y018852D01*
X010559Y018913D01*
X010619Y018913D01*
X010680Y018852D01*
X010741Y018913D01*
X010801Y018913D01*
X010862Y018852D01*
X010680Y018852D02*
X010680Y018792D01*
X009033Y017831D02*
X008973Y017892D01*
X008730Y017892D01*
X008669Y017831D01*
X008669Y017710D01*
X008730Y017649D01*
X008791Y017649D01*
X008851Y017710D01*
X008851Y017892D01*
X009033Y017831D02*
X009033Y017710D01*
X008973Y017649D01*
X008973Y017529D02*
X009033Y017469D01*
X009033Y017347D01*
X008973Y017287D01*
X008730Y017287D01*
X008669Y017347D01*
X008669Y017469D01*
X008730Y017529D01*
X005692Y019843D02*
X005445Y019843D01*
X005468Y019762D02*
X005468Y020004D01*
X005569Y019967D02*
X005569Y019720D01*
X005468Y019762D02*
X005104Y019762D01*
X005104Y020124D02*
X005468Y020124D01*
X005468Y020367D01*
X005468Y020487D02*
X005468Y020669D01*
X005408Y020729D01*
X005165Y020729D01*
X005104Y020669D01*
X005104Y020487D01*
X005468Y020487D01*
X005286Y020246D02*
X005286Y020124D01*
X005104Y020124D02*
X005104Y020367D01*
X005165Y020849D02*
X005104Y020910D01*
X005104Y021031D01*
X005165Y021092D01*
X005226Y021092D01*
X005468Y020849D01*
X005468Y021092D01*
X005971Y020781D02*
X005971Y020660D01*
X006031Y020599D01*
X006274Y020599D01*
X006031Y020842D01*
X006274Y020842D01*
X006335Y020781D01*
X006335Y020660D01*
X006274Y020599D01*
X006274Y020479D02*
X006335Y020419D01*
X006335Y020297D01*
X006274Y020237D01*
X006335Y020117D02*
X006213Y019996D01*
X006213Y020056D02*
X006213Y019874D01*
X006335Y019874D02*
X005971Y019874D01*
X005971Y020056D01*
X006031Y020117D01*
X006153Y020117D01*
X006213Y020056D01*
X006031Y020237D02*
X005971Y020297D01*
X005971Y020419D01*
X006031Y020479D01*
X006092Y020479D01*
X006153Y020419D01*
X006213Y020479D01*
X006274Y020479D01*
X006153Y020419D02*
X006153Y020358D01*
X005971Y020781D02*
X006031Y020842D01*
X009098Y015259D02*
X009037Y015198D01*
X009037Y014956D01*
X009098Y014895D01*
X009219Y014895D01*
X009280Y014956D01*
X009400Y014956D02*
X009400Y015016D01*
X009460Y015077D01*
X009582Y015077D01*
X009642Y015016D01*
X009642Y014956D01*
X009582Y014895D01*
X009460Y014895D01*
X009400Y014956D01*
X009460Y015077D02*
X009400Y015138D01*
X009400Y015198D01*
X009460Y015259D01*
X009582Y015259D01*
X009642Y015198D01*
X009642Y015138D01*
X009582Y015077D01*
X009280Y015198D02*
X009219Y015259D01*
X009098Y015259D01*
X010089Y015052D02*
X010089Y014809D01*
X010089Y014568D02*
X010453Y014568D01*
X010453Y014689D02*
X010453Y014446D01*
X010453Y014327D02*
X010331Y014205D01*
X010331Y014266D02*
X010331Y014084D01*
X010453Y014084D02*
X010089Y014084D01*
X010089Y014266D01*
X010149Y014327D01*
X010271Y014327D01*
X010331Y014266D01*
X010210Y014446D02*
X010089Y014568D01*
X010392Y014809D02*
X010453Y014809D01*
X010392Y014809D02*
X010149Y015052D01*
X010089Y015052D01*
X008933Y014207D02*
X008933Y014085D01*
X008872Y014025D01*
X008751Y014025D01*
X008751Y014207D01*
X008812Y014267D01*
X008872Y014267D01*
X008933Y014207D01*
X008751Y014025D02*
X008630Y014146D01*
X008569Y014267D01*
X008569Y013783D02*
X008933Y013783D01*
X008933Y013662D02*
X008933Y013905D01*
X008690Y013662D02*
X008569Y013783D01*
X008630Y013542D02*
X008751Y013542D01*
X008812Y013482D01*
X008812Y013300D01*
X008812Y013421D02*
X008933Y013542D01*
X008630Y013542D02*
X008569Y013482D01*
X008569Y013300D01*
X008933Y013300D01*
X008847Y012151D02*
X008908Y012090D01*
X008908Y012029D01*
X008847Y011969D01*
X008908Y011908D01*
X008908Y011847D01*
X008847Y011787D01*
X008726Y011787D01*
X008665Y011847D01*
X008546Y011787D02*
X008303Y011787D01*
X008183Y011787D02*
X008062Y011908D01*
X008122Y011908D02*
X007940Y011908D01*
X007940Y011787D02*
X007940Y012151D01*
X008122Y012151D01*
X008183Y012090D01*
X008183Y011969D01*
X008122Y011908D01*
X008303Y012029D02*
X008424Y012151D01*
X008424Y011787D01*
X008665Y012090D02*
X008726Y012151D01*
X008847Y012151D01*
X008847Y011969D02*
X008787Y011969D01*
X007536Y010238D02*
X007475Y010238D01*
X007414Y010177D01*
X007414Y009995D01*
X007536Y009995D01*
X007596Y010056D01*
X007596Y010177D01*
X007536Y010238D01*
X007293Y010116D02*
X007414Y009995D01*
X007293Y009875D02*
X007232Y009814D01*
X007232Y009693D01*
X007293Y009632D01*
X007536Y009632D01*
X007596Y009693D01*
X007596Y009814D01*
X007536Y009875D01*
X007293Y010116D02*
X007232Y010238D01*
X006737Y010174D02*
X006737Y010051D01*
X006675Y009989D01*
X006675Y009868D02*
X006737Y009806D01*
X006737Y009683D01*
X006675Y009621D01*
X006428Y009621D01*
X006366Y009683D01*
X006366Y009806D01*
X006428Y009868D01*
X006366Y009989D02*
X006551Y009989D01*
X006490Y010113D01*
X006490Y010174D01*
X006551Y010236D01*
X006675Y010236D01*
X006737Y010174D01*
X006366Y010236D02*
X006366Y009989D01*
X006917Y006718D02*
X007099Y006718D01*
X007160Y006657D01*
X007160Y006536D01*
X007099Y006475D01*
X006917Y006475D01*
X007038Y006475D02*
X007160Y006354D01*
X007279Y006354D02*
X007522Y006354D01*
X007401Y006354D02*
X007401Y006718D01*
X007279Y006596D01*
X007642Y006657D02*
X007642Y006414D01*
X007885Y006657D01*
X007885Y006414D01*
X007824Y006354D01*
X007703Y006354D01*
X007642Y006414D01*
X007642Y006657D02*
X007703Y006718D01*
X007824Y006718D01*
X007885Y006657D01*
X006917Y006718D02*
X006917Y006354D01*
X007712Y005516D02*
X007712Y005273D01*
X007530Y005455D01*
X007894Y005455D01*
X007894Y005153D02*
X007772Y005032D01*
X007772Y005093D02*
X007772Y004911D01*
X007894Y004911D02*
X007530Y004911D01*
X007530Y005093D01*
X007590Y005153D01*
X007712Y005153D01*
X007772Y005093D01*
X009711Y004994D02*
X009771Y005055D01*
X009832Y005055D01*
X009893Y004994D01*
X009953Y005055D01*
X010014Y005055D01*
X010075Y004994D01*
X010075Y004873D01*
X010014Y004812D01*
X010075Y004692D02*
X009953Y004571D01*
X009953Y004631D02*
X009953Y004449D01*
X010075Y004449D02*
X009711Y004449D01*
X009711Y004631D01*
X009771Y004692D01*
X009893Y004692D01*
X009953Y004631D01*
X009771Y004812D02*
X009711Y004873D01*
X009711Y004994D01*
X009893Y004994D02*
X009893Y004933D01*
X010262Y004812D02*
X010262Y005055D01*
X010323Y005055D01*
X010565Y004812D01*
X010626Y004812D01*
X010626Y004692D02*
X010505Y004571D01*
X010505Y004631D02*
X010505Y004449D01*
X010626Y004449D02*
X010262Y004449D01*
X010262Y004631D01*
X010323Y004692D01*
X010444Y004692D01*
X010505Y004631D01*
X011334Y004664D02*
X011516Y004664D01*
X011577Y004725D01*
X011577Y004846D01*
X011516Y004907D01*
X011334Y004907D01*
X011334Y004543D01*
X011456Y004664D02*
X011577Y004543D01*
X011697Y004603D02*
X011758Y004543D01*
X011879Y004543D01*
X011940Y004603D01*
X011940Y004725D01*
X011879Y004785D01*
X011818Y004785D01*
X011697Y004725D01*
X011697Y004907D01*
X011940Y004907D01*
X013764Y005001D02*
X013764Y004637D01*
X013764Y004758D02*
X013946Y004758D01*
X014007Y004819D01*
X014007Y004940D01*
X013946Y005001D01*
X013764Y005001D01*
X013886Y004758D02*
X014007Y004637D01*
X014127Y004698D02*
X014187Y004637D01*
X014309Y004637D01*
X014369Y004698D01*
X014369Y004758D01*
X014309Y004819D01*
X014127Y004819D01*
X014127Y004698D01*
X014127Y004819D02*
X014248Y004940D01*
X014369Y005001D01*
X014985Y006133D02*
X014985Y006497D01*
X015167Y006497D01*
X015227Y006436D01*
X015227Y006315D01*
X015167Y006254D01*
X014985Y006254D01*
X015106Y006254D02*
X015227Y006133D01*
X015347Y006194D02*
X015347Y006254D01*
X015408Y006315D01*
X015529Y006315D01*
X015590Y006254D01*
X015590Y006194D01*
X015529Y006133D01*
X015408Y006133D01*
X015347Y006194D01*
X015408Y006315D02*
X015347Y006376D01*
X015347Y006436D01*
X015408Y006497D01*
X015529Y006497D01*
X015590Y006436D01*
X015590Y006376D01*
X015529Y006315D01*
X012373Y006887D02*
X012373Y007129D01*
X012312Y007190D01*
X012191Y007190D01*
X012130Y007129D01*
X012130Y007069D01*
X012191Y007008D01*
X012373Y007008D01*
X012373Y006887D02*
X012312Y006826D01*
X012191Y006826D01*
X012130Y006887D01*
X012010Y006826D02*
X011889Y006947D01*
X011950Y006947D02*
X011768Y006947D01*
X011768Y006826D02*
X011768Y007190D01*
X011950Y007190D01*
X012010Y007129D01*
X012010Y007008D01*
X011950Y006947D01*
X015693Y003426D02*
X015875Y003426D01*
X015936Y003366D01*
X015936Y003244D01*
X015875Y003184D01*
X015693Y003184D01*
X015815Y003184D02*
X015936Y003062D01*
X016056Y003062D02*
X016299Y003305D01*
X016299Y003366D01*
X016238Y003426D01*
X016117Y003426D01*
X016056Y003366D01*
X016056Y003062D02*
X016299Y003062D01*
X016177Y002954D02*
X016177Y002590D01*
X016056Y002590D02*
X016299Y002590D01*
X016459Y002385D02*
X016582Y002385D01*
X016644Y002324D01*
X016644Y002262D01*
X016582Y002200D01*
X016644Y002138D01*
X016644Y002077D01*
X016582Y002015D01*
X016459Y002015D01*
X016397Y002077D01*
X016520Y002200D02*
X016582Y002200D01*
X016765Y002262D02*
X016889Y002015D01*
X017012Y002262D01*
X017497Y002200D02*
X017620Y002262D01*
X017682Y002262D01*
X017744Y002200D01*
X017744Y002077D01*
X017682Y002015D01*
X017559Y002015D01*
X017497Y002077D01*
X017497Y002200D02*
X017497Y002385D01*
X017744Y002385D01*
X017865Y002262D02*
X017989Y002015D01*
X018112Y002262D01*
X018769Y002324D02*
X018769Y002077D01*
X018831Y002015D01*
X018954Y002015D01*
X019016Y002077D01*
X019016Y002200D01*
X018892Y002200D01*
X018769Y002324D02*
X018831Y002385D01*
X018954Y002385D01*
X019016Y002324D01*
X019137Y002262D02*
X019137Y002015D01*
X019137Y002262D02*
X019322Y002262D01*
X019384Y002200D01*
X019384Y002015D01*
X019506Y002077D02*
X019506Y002200D01*
X019567Y002262D01*
X019752Y002262D01*
X019752Y002385D02*
X019752Y002015D01*
X019567Y002015D01*
X019506Y002077D01*
X020347Y002138D02*
X020470Y002015D01*
X020594Y002138D01*
X020594Y002385D01*
X020715Y002262D02*
X020777Y002262D01*
X020777Y002015D01*
X020715Y002015D02*
X020839Y002015D01*
X020961Y002015D02*
X020961Y002262D01*
X021146Y002262D01*
X021208Y002200D01*
X021208Y002015D01*
X020777Y002385D02*
X020777Y002447D01*
X020347Y002385D02*
X020347Y002138D01*
X022565Y002077D02*
X022812Y002324D01*
X022812Y002077D01*
X022750Y002015D01*
X022627Y002015D01*
X022565Y002077D01*
X022565Y002324D01*
X022627Y002385D01*
X022750Y002385D01*
X022812Y002324D01*
X023565Y002262D02*
X023688Y002385D01*
X023688Y002015D01*
X023565Y002015D02*
X023812Y002015D01*
X024565Y002015D02*
X024812Y002262D01*
X024812Y002324D01*
X024750Y002385D01*
X024627Y002385D01*
X024565Y002324D01*
X024565Y002015D02*
X024812Y002015D01*
X025565Y002077D02*
X025627Y002015D01*
X025750Y002015D01*
X025812Y002077D01*
X025812Y002138D01*
X025750Y002200D01*
X025688Y002200D01*
X025750Y002200D02*
X025812Y002262D01*
X025812Y002324D01*
X025750Y002385D01*
X025627Y002385D01*
X025565Y002324D01*
X026565Y002200D02*
X026812Y002200D01*
X026750Y002015D02*
X026750Y002385D01*
X026565Y002200D01*
X027565Y002200D02*
X027688Y002262D01*
X027750Y002262D01*
X027812Y002200D01*
X027812Y002077D01*
X027750Y002015D01*
X027627Y002015D01*
X027565Y002077D01*
X027565Y002200D02*
X027565Y002385D01*
X027812Y002385D01*
X026905Y000944D02*
X026720Y000944D01*
X026720Y000697D01*
X026598Y000697D02*
X026474Y000697D01*
X026536Y000697D02*
X026536Y001067D01*
X026474Y001067D02*
X026598Y001067D01*
X026905Y000944D02*
X026967Y000882D01*
X026967Y000697D01*
X025985Y000697D02*
X025799Y000697D01*
X025738Y000759D01*
X025738Y000882D01*
X025799Y000944D01*
X025985Y000944D01*
X025985Y000635D01*
X025923Y000574D01*
X025861Y000574D01*
X025616Y000759D02*
X025555Y000697D01*
X025431Y000697D01*
X025369Y000759D01*
X025369Y000882D01*
X025431Y000944D01*
X025555Y000944D01*
X025616Y000882D01*
X025616Y000759D01*
X025247Y000697D02*
X025124Y000697D01*
X025186Y000697D02*
X025186Y001067D01*
X025124Y001067D01*
X024941Y000944D02*
X025002Y000882D01*
X025002Y000697D01*
X024817Y000697D01*
X024756Y000759D01*
X024817Y000820D01*
X025002Y000820D01*
X024941Y000944D02*
X024817Y000944D01*
X024634Y000882D02*
X024634Y000697D01*
X024634Y000882D02*
X024572Y000944D01*
X024387Y000944D01*
X024387Y000697D01*
X024266Y000697D02*
X024266Y000944D01*
X024142Y001067D01*
X024019Y000944D01*
X024019Y000697D01*
X024019Y000882D02*
X024266Y000882D01*
X016459Y002385D02*
X016397Y002324D01*
X015995Y002385D02*
X015748Y002385D01*
X015871Y002385D02*
X015871Y002015D01*
X015626Y002077D02*
X015564Y002015D01*
X015441Y002015D01*
X015379Y002077D01*
X015258Y002015D02*
X015134Y002138D01*
X015196Y002138D02*
X015011Y002138D01*
X015011Y002015D02*
X015011Y002385D01*
X015196Y002385D01*
X015258Y002324D01*
X015258Y002200D01*
X015196Y002138D01*
X015379Y002262D02*
X015441Y002200D01*
X015564Y002200D01*
X015626Y002138D01*
X015626Y002077D01*
X015626Y002324D02*
X015564Y002385D01*
X015441Y002385D01*
X015379Y002324D01*
X015379Y002262D01*
X015693Y002590D02*
X015693Y002954D01*
X015875Y002954D01*
X015936Y002893D01*
X015936Y002772D01*
X015875Y002711D01*
X015693Y002711D01*
X015815Y002711D02*
X015936Y002590D01*
X016056Y002832D02*
X016177Y002954D01*
X015693Y003062D02*
X015693Y003426D01*
X024829Y008632D02*
X024829Y008875D01*
X024829Y008995D02*
X024829Y009177D01*
X024890Y009237D01*
X025011Y009237D01*
X025072Y009177D01*
X025072Y008995D01*
X025193Y008995D02*
X024829Y008995D01*
X024829Y008754D02*
X025193Y008754D01*
X025072Y009116D02*
X025193Y009237D01*
X025193Y009357D02*
X025193Y009600D01*
X025193Y009479D02*
X024829Y009479D01*
X024950Y009357D01*
X024711Y015168D02*
X024711Y015410D01*
X024711Y015530D02*
X024711Y015712D01*
X024771Y015773D01*
X024893Y015773D01*
X024953Y015712D01*
X024953Y015530D01*
X024953Y015651D02*
X025075Y015773D01*
X025075Y015893D02*
X024832Y016135D01*
X024771Y016135D01*
X024711Y016075D01*
X024711Y015953D01*
X024771Y015893D01*
X025075Y015893D02*
X025075Y016135D01*
X025075Y015530D02*
X024711Y015530D01*
X024711Y015289D02*
X025075Y015289D01*
X026246Y016179D02*
X026610Y016179D01*
X026610Y016422D01*
X026610Y016542D02*
X026610Y016784D01*
X026610Y016904D02*
X026246Y016904D01*
X026246Y017086D01*
X026307Y017147D01*
X026550Y017147D01*
X026610Y017086D01*
X026610Y016904D01*
X026428Y016663D02*
X026428Y016542D01*
X026246Y016542D02*
X026610Y016542D01*
X026246Y016542D02*
X026246Y016784D01*
X026368Y017267D02*
X026246Y017388D01*
X026610Y017388D01*
X026610Y017267D02*
X026610Y017509D01*
X026125Y017914D02*
X025878Y017914D01*
X026002Y017791D02*
X026002Y018038D01*
X021177Y017243D02*
X021056Y017122D01*
X021056Y017182D02*
X021056Y017000D01*
X021177Y017000D02*
X020813Y017000D01*
X020813Y017182D01*
X020874Y017243D01*
X020995Y017243D01*
X021056Y017182D01*
X016026Y020953D02*
X015964Y020892D01*
X015902Y020892D01*
X015841Y021015D02*
X016026Y021015D01*
X016026Y020953D02*
X016026Y021262D01*
X015841Y021262D01*
X015779Y021200D01*
X015779Y021077D01*
X015841Y021015D01*
X015657Y021015D02*
X015533Y021015D01*
X015595Y021015D02*
X015595Y021262D01*
X015533Y021262D01*
X015412Y021324D02*
X015412Y021077D01*
X015350Y021015D01*
X015165Y021015D01*
X015165Y021385D01*
X015350Y021385D01*
X015412Y021324D01*
X015595Y021385D02*
X015595Y021447D01*
X016147Y021262D02*
X016209Y021262D01*
X016209Y021015D01*
X016147Y021015D02*
X016271Y021015D01*
X016454Y021077D02*
X016454Y021324D01*
X016393Y021262D02*
X016516Y021262D01*
X016700Y021262D02*
X016823Y021262D01*
X016885Y021200D01*
X016885Y021015D01*
X016700Y021015D01*
X016638Y021077D01*
X016700Y021138D01*
X016885Y021138D01*
X017007Y021015D02*
X017130Y021015D01*
X017068Y021015D02*
X017068Y021385D01*
X017007Y021385D01*
X017620Y021385D02*
X017744Y021385D01*
X017682Y021385D02*
X017682Y021015D01*
X017620Y021015D02*
X017744Y021015D01*
X017866Y021015D02*
X018113Y021385D01*
X018234Y021324D02*
X018234Y021077D01*
X018296Y021015D01*
X018419Y021015D01*
X018481Y021077D01*
X018481Y021324D01*
X018419Y021385D01*
X018296Y021385D01*
X018234Y021324D01*
X016516Y021015D02*
X016454Y021077D01*
X016209Y021385D02*
X016209Y021447D01*
X014444Y019924D02*
X014382Y019985D01*
X014258Y019985D01*
X014197Y019924D01*
X014320Y019800D02*
X014382Y019800D01*
X012101Y014700D02*
X012161Y014640D01*
X012161Y014518D01*
X012101Y014458D01*
X012040Y014458D01*
X011979Y014518D01*
X011979Y014640D01*
X012040Y014700D01*
X012101Y014700D01*
X011979Y014640D02*
X011919Y014700D01*
X011858Y014700D01*
X011797Y014640D01*
X011797Y014518D01*
X011858Y014458D01*
X011919Y014458D01*
X011979Y014518D01*
X012161Y014338D02*
X012161Y014095D01*
X012161Y013975D02*
X012040Y013854D01*
X012040Y013915D02*
X012040Y013733D01*
X012161Y013733D02*
X011797Y013733D01*
X011797Y013915D01*
X011858Y013975D01*
X011979Y013975D01*
X012040Y013915D01*
X011919Y014095D02*
X011797Y014216D01*
X012161Y014216D01*
X012164Y013647D02*
X012164Y013283D01*
X012043Y013283D02*
X012286Y013283D01*
X012406Y013343D02*
X012466Y013283D01*
X012588Y013283D01*
X012648Y013343D01*
X012648Y013465D01*
X012588Y013525D01*
X012527Y013525D01*
X012406Y013465D01*
X012406Y013647D01*
X012648Y013647D01*
X012744Y013411D02*
X012926Y013411D01*
X012986Y013350D01*
X012986Y013229D01*
X012926Y013168D01*
X012744Y013168D01*
X012865Y013168D02*
X012986Y013046D01*
X013106Y013046D02*
X013349Y013046D01*
X013227Y013046D02*
X013227Y013411D01*
X013106Y013289D01*
X013469Y013229D02*
X013711Y013229D01*
X013651Y013411D02*
X013651Y013046D01*
X013469Y013229D02*
X013651Y013411D01*
X012744Y013411D02*
X012744Y013046D01*
X012164Y013647D02*
X012043Y013525D01*
X011923Y013586D02*
X011923Y013465D01*
X011863Y013404D01*
X011681Y013404D01*
X011802Y013404D02*
X011923Y013283D01*
X011681Y013283D02*
X011681Y013647D01*
X011863Y013647D01*
X011923Y013586D01*
X012544Y012403D02*
X012726Y012403D01*
X012786Y012342D01*
X012786Y012221D01*
X012726Y012160D01*
X012544Y012160D01*
X012665Y012160D02*
X012786Y012039D01*
X012906Y012039D02*
X013149Y012039D01*
X013269Y012039D02*
X013511Y012281D01*
X013511Y012342D01*
X013451Y012403D01*
X013329Y012403D01*
X013269Y012342D01*
X013028Y012403D02*
X013028Y012039D01*
X013070Y011836D02*
X013070Y011472D01*
X012949Y011472D02*
X013191Y011472D01*
X013311Y011472D02*
X013554Y011472D01*
X013432Y011472D02*
X013432Y011836D01*
X013311Y011714D01*
X013070Y011836D02*
X012949Y011714D01*
X012829Y011654D02*
X012768Y011593D01*
X012586Y011593D01*
X012586Y011472D02*
X012586Y011836D01*
X012768Y011836D01*
X012829Y011775D01*
X012829Y011654D01*
X012707Y011593D02*
X012829Y011472D01*
X012544Y012039D02*
X012544Y012403D01*
X012906Y012281D02*
X013028Y012403D01*
X013269Y012039D02*
X013511Y012039D01*
D19*
X020139Y011368D02*
X020139Y014356D01*
X020141Y014408D01*
X020146Y014460D01*
X020156Y014511D01*
X020168Y014561D01*
X020185Y014610D01*
X020205Y014658D01*
X020228Y014705D01*
X020255Y014750D01*
X020284Y014792D01*
X020317Y014833D01*
X020352Y014871D01*
X020390Y014906D01*
X020431Y014939D01*
X020473Y014968D01*
X020518Y014995D01*
X020565Y015018D01*
X020613Y015038D01*
X020662Y015055D01*
X020712Y015067D01*
X020763Y015077D01*
X020815Y015082D01*
X020867Y015084D01*
X021909Y015084D01*
X021939Y015812D02*
X021939Y009902D01*
X024242Y009902D01*
X024249Y009912D02*
X024249Y015822D01*
X021940Y015822D01*
X024258Y015084D02*
X025311Y015084D01*
X025363Y015082D01*
X025415Y015077D01*
X025466Y015067D01*
X025516Y015055D01*
X025565Y015038D01*
X025613Y015018D01*
X025660Y014995D01*
X025705Y014968D01*
X025747Y014939D01*
X025788Y014906D01*
X025826Y014871D01*
X025861Y014833D01*
X025894Y014792D01*
X025923Y014750D01*
X025950Y014705D01*
X025973Y014658D01*
X025993Y014610D01*
X026010Y014561D01*
X026022Y014511D01*
X026032Y014460D01*
X026037Y014408D01*
X026039Y014356D01*
X026039Y011368D01*
X026440Y011248D02*
X026440Y010854D01*
X026598Y010854D01*
X029550Y010854D01*
X029550Y011169D01*
X030731Y011169D01*
X030731Y012587D01*
X029550Y012587D01*
X029550Y012862D01*
X026440Y012862D01*
X026440Y012429D01*
X026039Y011368D02*
X026037Y011316D01*
X026032Y011264D01*
X026022Y011213D01*
X026010Y011163D01*
X025993Y011114D01*
X025973Y011066D01*
X025950Y011019D01*
X025923Y010974D01*
X025894Y010932D01*
X025861Y010891D01*
X025826Y010853D01*
X025788Y010818D01*
X025747Y010785D01*
X025705Y010756D01*
X025660Y010729D01*
X025613Y010706D01*
X025565Y010686D01*
X025516Y010669D01*
X025466Y010657D01*
X025415Y010647D01*
X025363Y010642D01*
X025311Y010640D01*
X024258Y010640D01*
X024249Y009090D02*
X021940Y009090D01*
X021939Y009080D02*
X021939Y003170D01*
X024242Y003170D01*
X024249Y003180D02*
X024249Y009090D01*
X024258Y008352D02*
X025311Y008352D01*
X025363Y008350D01*
X025415Y008345D01*
X025466Y008335D01*
X025516Y008323D01*
X025565Y008306D01*
X025613Y008286D01*
X025660Y008263D01*
X025705Y008236D01*
X025747Y008207D01*
X025788Y008174D01*
X025826Y008139D01*
X025861Y008101D01*
X025894Y008060D01*
X025923Y008018D01*
X025950Y007973D01*
X025973Y007926D01*
X025993Y007878D01*
X026010Y007829D01*
X026022Y007779D01*
X026032Y007728D01*
X026037Y007676D01*
X026039Y007624D01*
X026039Y004636D01*
X026440Y005146D02*
X026598Y005146D01*
X029550Y005146D01*
X029550Y005461D01*
X030731Y005461D01*
X030731Y006878D01*
X029550Y006878D01*
X029550Y007154D01*
X026440Y007154D01*
X026440Y006720D01*
X026440Y005539D02*
X026440Y005146D01*
X026519Y005146D02*
X026598Y005146D01*
X026039Y004636D02*
X026037Y004584D01*
X026032Y004532D01*
X026022Y004481D01*
X026010Y004431D01*
X025993Y004382D01*
X025973Y004334D01*
X025950Y004287D01*
X025923Y004242D01*
X025894Y004200D01*
X025861Y004159D01*
X025826Y004121D01*
X025788Y004086D01*
X025747Y004053D01*
X025705Y004024D01*
X025660Y003997D01*
X025613Y003974D01*
X025565Y003954D01*
X025516Y003937D01*
X025466Y003925D01*
X025415Y003915D01*
X025363Y003910D01*
X025311Y003908D01*
X024258Y003908D01*
X021909Y003908D02*
X020867Y003908D01*
X020815Y003910D01*
X020763Y003915D01*
X020712Y003925D01*
X020662Y003937D01*
X020613Y003954D01*
X020565Y003974D01*
X020518Y003997D01*
X020473Y004024D01*
X020431Y004053D01*
X020390Y004086D01*
X020352Y004121D01*
X020317Y004159D01*
X020284Y004200D01*
X020255Y004242D01*
X020228Y004287D01*
X020205Y004334D01*
X020185Y004382D01*
X020168Y004431D01*
X020156Y004481D01*
X020146Y004532D01*
X020141Y004584D01*
X020139Y004636D01*
X020139Y007624D01*
X020141Y007676D01*
X020146Y007728D01*
X020156Y007779D01*
X020168Y007829D01*
X020185Y007878D01*
X020205Y007926D01*
X020228Y007973D01*
X020255Y008018D01*
X020284Y008060D01*
X020317Y008101D01*
X020352Y008139D01*
X020390Y008174D01*
X020431Y008207D01*
X020473Y008236D01*
X020518Y008263D01*
X020565Y008286D01*
X020613Y008306D01*
X020662Y008323D01*
X020712Y008335D01*
X020763Y008345D01*
X020815Y008350D01*
X020867Y008352D01*
X021909Y008352D01*
X021909Y010640D02*
X020867Y010640D01*
X020815Y010642D01*
X020763Y010647D01*
X020712Y010657D01*
X020662Y010669D01*
X020613Y010686D01*
X020565Y010706D01*
X020518Y010729D01*
X020473Y010756D01*
X020431Y010785D01*
X020390Y010818D01*
X020352Y010853D01*
X020317Y010891D01*
X020284Y010932D01*
X020255Y010974D01*
X020228Y011019D01*
X020205Y011066D01*
X020185Y011114D01*
X020168Y011163D01*
X020156Y011213D01*
X020146Y011264D01*
X020141Y011316D01*
X020139Y011368D01*
X026519Y010854D02*
X026598Y010854D01*
X029550Y011169D02*
X029550Y012587D01*
X029550Y006878D02*
X029550Y005461D01*
D20*
X002700Y000500D02*
X002700Y021500D01*
X028100Y021500D01*
X028700Y020900D01*
X028700Y016400D01*
X029700Y015400D01*
X029700Y002500D01*
X028700Y001500D01*
X028700Y000500D01*
X002700Y000500D01*
X007570Y001500D02*
X007572Y001550D01*
X007578Y001600D01*
X007588Y001649D01*
X007602Y001697D01*
X007619Y001744D01*
X007640Y001789D01*
X007665Y001833D01*
X007693Y001874D01*
X007725Y001913D01*
X007759Y001950D01*
X007796Y001984D01*
X007836Y002014D01*
X007878Y002041D01*
X007922Y002065D01*
X007968Y002086D01*
X008015Y002102D01*
X008063Y002115D01*
X008113Y002124D01*
X008162Y002129D01*
X008213Y002130D01*
X008263Y002127D01*
X008312Y002120D01*
X008361Y002109D01*
X008409Y002094D01*
X008455Y002076D01*
X008500Y002054D01*
X008543Y002028D01*
X008584Y001999D01*
X008623Y001967D01*
X008659Y001932D01*
X008691Y001894D01*
X008721Y001854D01*
X008748Y001811D01*
X008771Y001767D01*
X008790Y001721D01*
X008806Y001673D01*
X008818Y001624D01*
X008826Y001575D01*
X008830Y001525D01*
X008830Y001475D01*
X008826Y001425D01*
X008818Y001376D01*
X008806Y001327D01*
X008790Y001279D01*
X008771Y001233D01*
X008748Y001189D01*
X008721Y001146D01*
X008691Y001106D01*
X008659Y001068D01*
X008623Y001033D01*
X008584Y001001D01*
X008543Y000972D01*
X008500Y000946D01*
X008455Y000924D01*
X008409Y000906D01*
X008361Y000891D01*
X008312Y000880D01*
X008263Y000873D01*
X008213Y000870D01*
X008162Y000871D01*
X008113Y000876D01*
X008063Y000885D01*
X008015Y000898D01*
X007968Y000914D01*
X007922Y000935D01*
X007878Y000959D01*
X007836Y000986D01*
X007796Y001016D01*
X007759Y001050D01*
X007725Y001087D01*
X007693Y001126D01*
X007665Y001167D01*
X007640Y001211D01*
X007619Y001256D01*
X007602Y001303D01*
X007588Y001351D01*
X007578Y001400D01*
X007572Y001450D01*
X007570Y001500D01*
X022720Y003235D02*
X022722Y003273D01*
X022728Y003312D01*
X022738Y003349D01*
X022751Y003385D01*
X022769Y003419D01*
X022789Y003452D01*
X022813Y003482D01*
X022840Y003509D01*
X022870Y003534D01*
X022901Y003556D01*
X022935Y003574D01*
X022971Y003588D01*
X023008Y003599D01*
X023046Y003606D01*
X023084Y003609D01*
X023123Y003608D01*
X023161Y003603D01*
X023199Y003594D01*
X023235Y003581D01*
X023270Y003565D01*
X023303Y003545D01*
X023334Y003522D01*
X023362Y003496D01*
X023387Y003467D01*
X023410Y003436D01*
X023429Y003402D01*
X023444Y003367D01*
X023456Y003330D01*
X023464Y003293D01*
X023468Y003254D01*
X023468Y003216D01*
X023464Y003177D01*
X023456Y003140D01*
X023444Y003103D01*
X023429Y003068D01*
X023410Y003034D01*
X023387Y003003D01*
X023362Y002974D01*
X023334Y002948D01*
X023303Y002925D01*
X023270Y002905D01*
X023235Y002889D01*
X023199Y002876D01*
X023161Y002867D01*
X023123Y002862D01*
X023084Y002861D01*
X023046Y002864D01*
X023008Y002871D01*
X022971Y002882D01*
X022935Y002896D01*
X022901Y002914D01*
X022870Y002936D01*
X022840Y002961D01*
X022813Y002988D01*
X022789Y003018D01*
X022769Y003051D01*
X022751Y003085D01*
X022738Y003121D01*
X022728Y003158D01*
X022722Y003197D01*
X022720Y003235D01*
X028015Y006130D02*
X028017Y006160D01*
X028023Y006190D01*
X028032Y006219D01*
X028045Y006246D01*
X028062Y006271D01*
X028081Y006294D01*
X028104Y006315D01*
X028129Y006332D01*
X028155Y006346D01*
X028184Y006356D01*
X028213Y006363D01*
X028243Y006366D01*
X028274Y006365D01*
X028304Y006360D01*
X028333Y006351D01*
X028360Y006339D01*
X028386Y006324D01*
X028410Y006305D01*
X028431Y006283D01*
X028449Y006259D01*
X028464Y006232D01*
X028475Y006204D01*
X028483Y006175D01*
X028487Y006145D01*
X028487Y006115D01*
X028483Y006085D01*
X028475Y006056D01*
X028464Y006028D01*
X028449Y006001D01*
X028431Y005977D01*
X028410Y005955D01*
X028386Y005936D01*
X028360Y005921D01*
X028333Y005909D01*
X028304Y005900D01*
X028274Y005895D01*
X028243Y005894D01*
X028213Y005897D01*
X028184Y005904D01*
X028155Y005914D01*
X028129Y005928D01*
X028104Y005945D01*
X028081Y005966D01*
X028062Y005989D01*
X028045Y006014D01*
X028032Y006041D01*
X028023Y006070D01*
X028017Y006100D01*
X028015Y006130D01*
X022720Y009025D02*
X022722Y009063D01*
X022728Y009102D01*
X022738Y009139D01*
X022751Y009175D01*
X022769Y009209D01*
X022789Y009242D01*
X022813Y009272D01*
X022840Y009299D01*
X022870Y009324D01*
X022901Y009346D01*
X022935Y009364D01*
X022971Y009378D01*
X023008Y009389D01*
X023046Y009396D01*
X023084Y009399D01*
X023123Y009398D01*
X023161Y009393D01*
X023199Y009384D01*
X023235Y009371D01*
X023270Y009355D01*
X023303Y009335D01*
X023334Y009312D01*
X023362Y009286D01*
X023387Y009257D01*
X023410Y009226D01*
X023429Y009192D01*
X023444Y009157D01*
X023456Y009120D01*
X023464Y009083D01*
X023468Y009044D01*
X023468Y009006D01*
X023464Y008967D01*
X023456Y008930D01*
X023444Y008893D01*
X023429Y008858D01*
X023410Y008824D01*
X023387Y008793D01*
X023362Y008764D01*
X023334Y008738D01*
X023303Y008715D01*
X023270Y008695D01*
X023235Y008679D01*
X023199Y008666D01*
X023161Y008657D01*
X023123Y008652D01*
X023084Y008651D01*
X023046Y008654D01*
X023008Y008661D01*
X022971Y008672D01*
X022935Y008686D01*
X022901Y008704D01*
X022870Y008726D01*
X022840Y008751D01*
X022813Y008778D01*
X022789Y008808D01*
X022769Y008841D01*
X022751Y008875D01*
X022738Y008911D01*
X022728Y008948D01*
X022722Y008987D01*
X022720Y009025D01*
X022720Y009967D02*
X022722Y010005D01*
X022728Y010044D01*
X022738Y010081D01*
X022751Y010117D01*
X022769Y010151D01*
X022789Y010184D01*
X022813Y010214D01*
X022840Y010241D01*
X022870Y010266D01*
X022901Y010288D01*
X022935Y010306D01*
X022971Y010320D01*
X023008Y010331D01*
X023046Y010338D01*
X023084Y010341D01*
X023123Y010340D01*
X023161Y010335D01*
X023199Y010326D01*
X023235Y010313D01*
X023270Y010297D01*
X023303Y010277D01*
X023334Y010254D01*
X023362Y010228D01*
X023387Y010199D01*
X023410Y010168D01*
X023429Y010134D01*
X023444Y010099D01*
X023456Y010062D01*
X023464Y010025D01*
X023468Y009986D01*
X023468Y009948D01*
X023464Y009909D01*
X023456Y009872D01*
X023444Y009835D01*
X023429Y009800D01*
X023410Y009766D01*
X023387Y009735D01*
X023362Y009706D01*
X023334Y009680D01*
X023303Y009657D01*
X023270Y009637D01*
X023235Y009621D01*
X023199Y009608D01*
X023161Y009599D01*
X023123Y009594D01*
X023084Y009593D01*
X023046Y009596D01*
X023008Y009603D01*
X022971Y009614D01*
X022935Y009628D01*
X022901Y009646D01*
X022870Y009668D01*
X022840Y009693D01*
X022813Y009720D01*
X022789Y009750D01*
X022769Y009783D01*
X022751Y009817D01*
X022738Y009853D01*
X022728Y009890D01*
X022722Y009929D01*
X022720Y009967D01*
X028015Y011839D02*
X028017Y011869D01*
X028023Y011899D01*
X028032Y011928D01*
X028045Y011955D01*
X028062Y011980D01*
X028081Y012003D01*
X028104Y012024D01*
X028129Y012041D01*
X028155Y012055D01*
X028184Y012065D01*
X028213Y012072D01*
X028243Y012075D01*
X028274Y012074D01*
X028304Y012069D01*
X028333Y012060D01*
X028360Y012048D01*
X028386Y012033D01*
X028410Y012014D01*
X028431Y011992D01*
X028449Y011968D01*
X028464Y011941D01*
X028475Y011913D01*
X028483Y011884D01*
X028487Y011854D01*
X028487Y011824D01*
X028483Y011794D01*
X028475Y011765D01*
X028464Y011737D01*
X028449Y011710D01*
X028431Y011686D01*
X028410Y011664D01*
X028386Y011645D01*
X028360Y011630D01*
X028333Y011618D01*
X028304Y011609D01*
X028274Y011604D01*
X028243Y011603D01*
X028213Y011606D01*
X028184Y011613D01*
X028155Y011623D01*
X028129Y011637D01*
X028104Y011654D01*
X028081Y011675D01*
X028062Y011698D01*
X028045Y011723D01*
X028032Y011750D01*
X028023Y011779D01*
X028017Y011809D01*
X028015Y011839D01*
X028070Y014500D02*
X028072Y014550D01*
X028078Y014600D01*
X028088Y014649D01*
X028102Y014697D01*
X028119Y014744D01*
X028140Y014789D01*
X028165Y014833D01*
X028193Y014874D01*
X028225Y014913D01*
X028259Y014950D01*
X028296Y014984D01*
X028336Y015014D01*
X028378Y015041D01*
X028422Y015065D01*
X028468Y015086D01*
X028515Y015102D01*
X028563Y015115D01*
X028613Y015124D01*
X028662Y015129D01*
X028713Y015130D01*
X028763Y015127D01*
X028812Y015120D01*
X028861Y015109D01*
X028909Y015094D01*
X028955Y015076D01*
X029000Y015054D01*
X029043Y015028D01*
X029084Y014999D01*
X029123Y014967D01*
X029159Y014932D01*
X029191Y014894D01*
X029221Y014854D01*
X029248Y014811D01*
X029271Y014767D01*
X029290Y014721D01*
X029306Y014673D01*
X029318Y014624D01*
X029326Y014575D01*
X029330Y014525D01*
X029330Y014475D01*
X029326Y014425D01*
X029318Y014376D01*
X029306Y014327D01*
X029290Y014279D01*
X029271Y014233D01*
X029248Y014189D01*
X029221Y014146D01*
X029191Y014106D01*
X029159Y014068D01*
X029123Y014033D01*
X029084Y014001D01*
X029043Y013972D01*
X029000Y013946D01*
X028955Y013924D01*
X028909Y013906D01*
X028861Y013891D01*
X028812Y013880D01*
X028763Y013873D01*
X028713Y013870D01*
X028662Y013871D01*
X028613Y013876D01*
X028563Y013885D01*
X028515Y013898D01*
X028468Y013914D01*
X028422Y013935D01*
X028378Y013959D01*
X028336Y013986D01*
X028296Y014016D01*
X028259Y014050D01*
X028225Y014087D01*
X028193Y014126D01*
X028165Y014167D01*
X028140Y014211D01*
X028119Y014256D01*
X028102Y014303D01*
X028088Y014351D01*
X028078Y014400D01*
X028072Y014450D01*
X028070Y014500D01*
X022720Y015757D02*
X022722Y015795D01*
X022728Y015834D01*
X022738Y015871D01*
X022751Y015907D01*
X022769Y015941D01*
X022789Y015974D01*
X022813Y016004D01*
X022840Y016031D01*
X022870Y016056D01*
X022901Y016078D01*
X022935Y016096D01*
X022971Y016110D01*
X023008Y016121D01*
X023046Y016128D01*
X023084Y016131D01*
X023123Y016130D01*
X023161Y016125D01*
X023199Y016116D01*
X023235Y016103D01*
X023270Y016087D01*
X023303Y016067D01*
X023334Y016044D01*
X023362Y016018D01*
X023387Y015989D01*
X023410Y015958D01*
X023429Y015924D01*
X023444Y015889D01*
X023456Y015852D01*
X023464Y015815D01*
X023468Y015776D01*
X023468Y015738D01*
X023464Y015699D01*
X023456Y015662D01*
X023444Y015625D01*
X023429Y015590D01*
X023410Y015556D01*
X023387Y015525D01*
X023362Y015496D01*
X023334Y015470D01*
X023303Y015447D01*
X023270Y015427D01*
X023235Y015411D01*
X023199Y015398D01*
X023161Y015389D01*
X023123Y015384D01*
X023084Y015383D01*
X023046Y015386D01*
X023008Y015393D01*
X022971Y015404D01*
X022935Y015418D01*
X022901Y015436D01*
X022870Y015458D01*
X022840Y015483D01*
X022813Y015510D01*
X022789Y015540D01*
X022769Y015573D01*
X022751Y015607D01*
X022738Y015643D01*
X022728Y015680D01*
X022722Y015719D01*
X022720Y015757D01*
X008070Y020500D02*
X008072Y020550D01*
X008078Y020600D01*
X008088Y020649D01*
X008102Y020697D01*
X008119Y020744D01*
X008140Y020789D01*
X008165Y020833D01*
X008193Y020874D01*
X008225Y020913D01*
X008259Y020950D01*
X008296Y020984D01*
X008336Y021014D01*
X008378Y021041D01*
X008422Y021065D01*
X008468Y021086D01*
X008515Y021102D01*
X008563Y021115D01*
X008613Y021124D01*
X008662Y021129D01*
X008713Y021130D01*
X008763Y021127D01*
X008812Y021120D01*
X008861Y021109D01*
X008909Y021094D01*
X008955Y021076D01*
X009000Y021054D01*
X009043Y021028D01*
X009084Y020999D01*
X009123Y020967D01*
X009159Y020932D01*
X009191Y020894D01*
X009221Y020854D01*
X009248Y020811D01*
X009271Y020767D01*
X009290Y020721D01*
X009306Y020673D01*
X009318Y020624D01*
X009326Y020575D01*
X009330Y020525D01*
X009330Y020475D01*
X009326Y020425D01*
X009318Y020376D01*
X009306Y020327D01*
X009290Y020279D01*
X009271Y020233D01*
X009248Y020189D01*
X009221Y020146D01*
X009191Y020106D01*
X009159Y020068D01*
X009123Y020033D01*
X009084Y020001D01*
X009043Y019972D01*
X009000Y019946D01*
X008955Y019924D01*
X008909Y019906D01*
X008861Y019891D01*
X008812Y019880D01*
X008763Y019873D01*
X008713Y019870D01*
X008662Y019871D01*
X008613Y019876D01*
X008563Y019885D01*
X008515Y019898D01*
X008468Y019914D01*
X008422Y019935D01*
X008378Y019959D01*
X008336Y019986D01*
X008296Y020016D01*
X008259Y020050D01*
X008225Y020087D01*
X008193Y020126D01*
X008165Y020167D01*
X008140Y020211D01*
X008119Y020256D01*
X008102Y020303D01*
X008088Y020351D01*
X008078Y020400D01*
X008072Y020450D01*
X008070Y020500D01*
D21*
X005535Y018984D03*
X005062Y018984D03*
X025495Y017055D03*
X025968Y017055D03*
D22*
X025731Y017055D03*
X005298Y018984D03*
M02*
